%TF.GenerationSoftware,KiCad,Pcbnew,8.0.7*%
%TF.CreationDate,2024-12-10T14:46:16+07:00*%
%TF.ProjectId,CH551G_DEVKIT_V0,43483535-3147-45f4-9445-564b49545f56,rev?*%
%TF.SameCoordinates,Original*%
%TF.FileFunction,Legend,Top*%
%TF.FilePolarity,Positive*%
%FSLAX46Y46*%
G04 Gerber Fmt 4.6, Leading zero omitted, Abs format (unit mm)*
G04 Created by KiCad (PCBNEW 8.0.7) date 2024-12-10 14:46:16*
%MOMM*%
%LPD*%
G01*
G04 APERTURE LIST*
%ADD10C,0.152400*%
%ADD11C,0.120000*%
G04 APERTURE END LIST*
D10*
X199622833Y-88888477D02*
X199580500Y-88930811D01*
X199580500Y-88930811D02*
X199453500Y-88973144D01*
X199453500Y-88973144D02*
X199368833Y-88973144D01*
X199368833Y-88973144D02*
X199241833Y-88930811D01*
X199241833Y-88930811D02*
X199157167Y-88846144D01*
X199157167Y-88846144D02*
X199114833Y-88761477D01*
X199114833Y-88761477D02*
X199072500Y-88592144D01*
X199072500Y-88592144D02*
X199072500Y-88465144D01*
X199072500Y-88465144D02*
X199114833Y-88295811D01*
X199114833Y-88295811D02*
X199157167Y-88211144D01*
X199157167Y-88211144D02*
X199241833Y-88126477D01*
X199241833Y-88126477D02*
X199368833Y-88084144D01*
X199368833Y-88084144D02*
X199453500Y-88084144D01*
X199453500Y-88084144D02*
X199580500Y-88126477D01*
X199580500Y-88126477D02*
X199622833Y-88168811D01*
X200469500Y-88973144D02*
X199961500Y-88973144D01*
X200215500Y-88973144D02*
X200215500Y-88084144D01*
X200215500Y-88084144D02*
X200130833Y-88211144D01*
X200130833Y-88211144D02*
X200046167Y-88295811D01*
X200046167Y-88295811D02*
X199961500Y-88338144D01*
X192680167Y-105677877D02*
X192383833Y-105677877D01*
X192383833Y-106143544D02*
X192383833Y-105254544D01*
X192383833Y-105254544D02*
X192807167Y-105254544D01*
X193569167Y-106143544D02*
X193145833Y-106143544D01*
X193145833Y-106143544D02*
X193145833Y-105254544D01*
X193823167Y-105889544D02*
X194246500Y-105889544D01*
X193738500Y-106143544D02*
X194034834Y-105254544D01*
X194034834Y-105254544D02*
X194331167Y-106143544D01*
X194585167Y-106101211D02*
X194712167Y-106143544D01*
X194712167Y-106143544D02*
X194923834Y-106143544D01*
X194923834Y-106143544D02*
X195008500Y-106101211D01*
X195008500Y-106101211D02*
X195050834Y-106058877D01*
X195050834Y-106058877D02*
X195093167Y-105974211D01*
X195093167Y-105974211D02*
X195093167Y-105889544D01*
X195093167Y-105889544D02*
X195050834Y-105804877D01*
X195050834Y-105804877D02*
X195008500Y-105762544D01*
X195008500Y-105762544D02*
X194923834Y-105720211D01*
X194923834Y-105720211D02*
X194754500Y-105677877D01*
X194754500Y-105677877D02*
X194669834Y-105635544D01*
X194669834Y-105635544D02*
X194627500Y-105593211D01*
X194627500Y-105593211D02*
X194585167Y-105508544D01*
X194585167Y-105508544D02*
X194585167Y-105423877D01*
X194585167Y-105423877D02*
X194627500Y-105339211D01*
X194627500Y-105339211D02*
X194669834Y-105296877D01*
X194669834Y-105296877D02*
X194754500Y-105254544D01*
X194754500Y-105254544D02*
X194966167Y-105254544D01*
X194966167Y-105254544D02*
X195093167Y-105296877D01*
X195474167Y-106143544D02*
X195474167Y-105254544D01*
X195474167Y-105677877D02*
X195982167Y-105677877D01*
X195982167Y-106143544D02*
X195982167Y-105254544D01*
X191875833Y-87110477D02*
X191833500Y-87152811D01*
X191833500Y-87152811D02*
X191706500Y-87195144D01*
X191706500Y-87195144D02*
X191621833Y-87195144D01*
X191621833Y-87195144D02*
X191494833Y-87152811D01*
X191494833Y-87152811D02*
X191410167Y-87068144D01*
X191410167Y-87068144D02*
X191367833Y-86983477D01*
X191367833Y-86983477D02*
X191325500Y-86814144D01*
X191325500Y-86814144D02*
X191325500Y-86687144D01*
X191325500Y-86687144D02*
X191367833Y-86517811D01*
X191367833Y-86517811D02*
X191410167Y-86433144D01*
X191410167Y-86433144D02*
X191494833Y-86348477D01*
X191494833Y-86348477D02*
X191621833Y-86306144D01*
X191621833Y-86306144D02*
X191706500Y-86306144D01*
X191706500Y-86306144D02*
X191833500Y-86348477D01*
X191833500Y-86348477D02*
X191875833Y-86390811D01*
X192637833Y-86602477D02*
X192637833Y-87195144D01*
X192426167Y-86263811D02*
X192214500Y-86898811D01*
X192214500Y-86898811D02*
X192764833Y-86898811D01*
X185695166Y-106143544D02*
X185398833Y-105720211D01*
X185187166Y-106143544D02*
X185187166Y-105254544D01*
X185187166Y-105254544D02*
X185525833Y-105254544D01*
X185525833Y-105254544D02*
X185610500Y-105296877D01*
X185610500Y-105296877D02*
X185652833Y-105339211D01*
X185652833Y-105339211D02*
X185695166Y-105423877D01*
X185695166Y-105423877D02*
X185695166Y-105550877D01*
X185695166Y-105550877D02*
X185652833Y-105635544D01*
X185652833Y-105635544D02*
X185610500Y-105677877D01*
X185610500Y-105677877D02*
X185525833Y-105720211D01*
X185525833Y-105720211D02*
X185187166Y-105720211D01*
X186033833Y-106101211D02*
X186160833Y-106143544D01*
X186160833Y-106143544D02*
X186372500Y-106143544D01*
X186372500Y-106143544D02*
X186457166Y-106101211D01*
X186457166Y-106101211D02*
X186499500Y-106058877D01*
X186499500Y-106058877D02*
X186541833Y-105974211D01*
X186541833Y-105974211D02*
X186541833Y-105889544D01*
X186541833Y-105889544D02*
X186499500Y-105804877D01*
X186499500Y-105804877D02*
X186457166Y-105762544D01*
X186457166Y-105762544D02*
X186372500Y-105720211D01*
X186372500Y-105720211D02*
X186203166Y-105677877D01*
X186203166Y-105677877D02*
X186118500Y-105635544D01*
X186118500Y-105635544D02*
X186076166Y-105593211D01*
X186076166Y-105593211D02*
X186033833Y-105508544D01*
X186033833Y-105508544D02*
X186033833Y-105423877D01*
X186033833Y-105423877D02*
X186076166Y-105339211D01*
X186076166Y-105339211D02*
X186118500Y-105296877D01*
X186118500Y-105296877D02*
X186203166Y-105254544D01*
X186203166Y-105254544D02*
X186414833Y-105254544D01*
X186414833Y-105254544D02*
X186541833Y-105296877D01*
X186795833Y-105254544D02*
X187303833Y-105254544D01*
X187049833Y-106143544D02*
X187049833Y-105254544D01*
X198886233Y-100191477D02*
X198843900Y-100233811D01*
X198843900Y-100233811D02*
X198716900Y-100276144D01*
X198716900Y-100276144D02*
X198632233Y-100276144D01*
X198632233Y-100276144D02*
X198505233Y-100233811D01*
X198505233Y-100233811D02*
X198420567Y-100149144D01*
X198420567Y-100149144D02*
X198378233Y-100064477D01*
X198378233Y-100064477D02*
X198335900Y-99895144D01*
X198335900Y-99895144D02*
X198335900Y-99768144D01*
X198335900Y-99768144D02*
X198378233Y-99598811D01*
X198378233Y-99598811D02*
X198420567Y-99514144D01*
X198420567Y-99514144D02*
X198505233Y-99429477D01*
X198505233Y-99429477D02*
X198632233Y-99387144D01*
X198632233Y-99387144D02*
X198716900Y-99387144D01*
X198716900Y-99387144D02*
X198843900Y-99429477D01*
X198843900Y-99429477D02*
X198886233Y-99471811D01*
X199182567Y-99387144D02*
X199732900Y-99387144D01*
X199732900Y-99387144D02*
X199436567Y-99725811D01*
X199436567Y-99725811D02*
X199563567Y-99725811D01*
X199563567Y-99725811D02*
X199648233Y-99768144D01*
X199648233Y-99768144D02*
X199690567Y-99810477D01*
X199690567Y-99810477D02*
X199732900Y-99895144D01*
X199732900Y-99895144D02*
X199732900Y-100106811D01*
X199732900Y-100106811D02*
X199690567Y-100191477D01*
X199690567Y-100191477D02*
X199648233Y-100233811D01*
X199648233Y-100233811D02*
X199563567Y-100276144D01*
X199563567Y-100276144D02*
X199309567Y-100276144D01*
X199309567Y-100276144D02*
X199224900Y-100233811D01*
X199224900Y-100233811D02*
X199182567Y-100191477D01*
X197971833Y-103197144D02*
X197675500Y-102773811D01*
X197463833Y-103197144D02*
X197463833Y-102308144D01*
X197463833Y-102308144D02*
X197802500Y-102308144D01*
X197802500Y-102308144D02*
X197887167Y-102350477D01*
X197887167Y-102350477D02*
X197929500Y-102392811D01*
X197929500Y-102392811D02*
X197971833Y-102477477D01*
X197971833Y-102477477D02*
X197971833Y-102604477D01*
X197971833Y-102604477D02*
X197929500Y-102689144D01*
X197929500Y-102689144D02*
X197887167Y-102731477D01*
X197887167Y-102731477D02*
X197802500Y-102773811D01*
X197802500Y-102773811D02*
X197463833Y-102773811D01*
X198268167Y-102308144D02*
X198818500Y-102308144D01*
X198818500Y-102308144D02*
X198522167Y-102646811D01*
X198522167Y-102646811D02*
X198649167Y-102646811D01*
X198649167Y-102646811D02*
X198733833Y-102689144D01*
X198733833Y-102689144D02*
X198776167Y-102731477D01*
X198776167Y-102731477D02*
X198818500Y-102816144D01*
X198818500Y-102816144D02*
X198818500Y-103027811D01*
X198818500Y-103027811D02*
X198776167Y-103112477D01*
X198776167Y-103112477D02*
X198733833Y-103154811D01*
X198733833Y-103154811D02*
X198649167Y-103197144D01*
X198649167Y-103197144D02*
X198395167Y-103197144D01*
X198395167Y-103197144D02*
X198310500Y-103154811D01*
X198310500Y-103154811D02*
X198268167Y-103112477D01*
X189970833Y-103273344D02*
X189674500Y-102850011D01*
X189462833Y-103273344D02*
X189462833Y-102384344D01*
X189462833Y-102384344D02*
X189801500Y-102384344D01*
X189801500Y-102384344D02*
X189886167Y-102426677D01*
X189886167Y-102426677D02*
X189928500Y-102469011D01*
X189928500Y-102469011D02*
X189970833Y-102553677D01*
X189970833Y-102553677D02*
X189970833Y-102680677D01*
X189970833Y-102680677D02*
X189928500Y-102765344D01*
X189928500Y-102765344D02*
X189886167Y-102807677D01*
X189886167Y-102807677D02*
X189801500Y-102850011D01*
X189801500Y-102850011D02*
X189462833Y-102850011D01*
X190775167Y-102384344D02*
X190351833Y-102384344D01*
X190351833Y-102384344D02*
X190309500Y-102807677D01*
X190309500Y-102807677D02*
X190351833Y-102765344D01*
X190351833Y-102765344D02*
X190436500Y-102723011D01*
X190436500Y-102723011D02*
X190648167Y-102723011D01*
X190648167Y-102723011D02*
X190732833Y-102765344D01*
X190732833Y-102765344D02*
X190775167Y-102807677D01*
X190775167Y-102807677D02*
X190817500Y-102892344D01*
X190817500Y-102892344D02*
X190817500Y-103104011D01*
X190817500Y-103104011D02*
X190775167Y-103188677D01*
X190775167Y-103188677D02*
X190732833Y-103231011D01*
X190732833Y-103231011D02*
X190648167Y-103273344D01*
X190648167Y-103273344D02*
X190436500Y-103273344D01*
X190436500Y-103273344D02*
X190351833Y-103231011D01*
X190351833Y-103231011D02*
X190309500Y-103188677D01*
X201125666Y-77568544D02*
X201125666Y-76679544D01*
X201125666Y-76679544D02*
X201464333Y-76679544D01*
X201464333Y-76679544D02*
X201549000Y-76721877D01*
X201549000Y-76721877D02*
X201591333Y-76764211D01*
X201591333Y-76764211D02*
X201633666Y-76848877D01*
X201633666Y-76848877D02*
X201633666Y-76975877D01*
X201633666Y-76975877D02*
X201591333Y-77060544D01*
X201591333Y-77060544D02*
X201549000Y-77102877D01*
X201549000Y-77102877D02*
X201464333Y-77145211D01*
X201464333Y-77145211D02*
X201125666Y-77145211D01*
X201930000Y-76679544D02*
X202141666Y-77568544D01*
X202141666Y-77568544D02*
X202311000Y-76933544D01*
X202311000Y-76933544D02*
X202480333Y-77568544D01*
X202480333Y-77568544D02*
X202692000Y-76679544D01*
X203538666Y-77568544D02*
X203242333Y-77145211D01*
X203030666Y-77568544D02*
X203030666Y-76679544D01*
X203030666Y-76679544D02*
X203369333Y-76679544D01*
X203369333Y-76679544D02*
X203454000Y-76721877D01*
X203454000Y-76721877D02*
X203496333Y-76764211D01*
X203496333Y-76764211D02*
X203538666Y-76848877D01*
X203538666Y-76848877D02*
X203538666Y-76975877D01*
X203538666Y-76975877D02*
X203496333Y-77060544D01*
X203496333Y-77060544D02*
X203454000Y-77102877D01*
X203454000Y-77102877D02*
X203369333Y-77145211D01*
X203369333Y-77145211D02*
X203030666Y-77145211D01*
X193480266Y-97202744D02*
X193480266Y-97922411D01*
X193480266Y-97922411D02*
X193522600Y-98007077D01*
X193522600Y-98007077D02*
X193564933Y-98049411D01*
X193564933Y-98049411D02*
X193649600Y-98091744D01*
X193649600Y-98091744D02*
X193818933Y-98091744D01*
X193818933Y-98091744D02*
X193903600Y-98049411D01*
X193903600Y-98049411D02*
X193945933Y-98007077D01*
X193945933Y-98007077D02*
X193988266Y-97922411D01*
X193988266Y-97922411D02*
X193988266Y-97202744D01*
X194369266Y-97287411D02*
X194411599Y-97245077D01*
X194411599Y-97245077D02*
X194496266Y-97202744D01*
X194496266Y-97202744D02*
X194707933Y-97202744D01*
X194707933Y-97202744D02*
X194792599Y-97245077D01*
X194792599Y-97245077D02*
X194834933Y-97287411D01*
X194834933Y-97287411D02*
X194877266Y-97372077D01*
X194877266Y-97372077D02*
X194877266Y-97456744D01*
X194877266Y-97456744D02*
X194834933Y-97583744D01*
X194834933Y-97583744D02*
X194326933Y-98091744D01*
X194326933Y-98091744D02*
X194877266Y-98091744D01*
X189234233Y-100140677D02*
X189191900Y-100183011D01*
X189191900Y-100183011D02*
X189064900Y-100225344D01*
X189064900Y-100225344D02*
X188980233Y-100225344D01*
X188980233Y-100225344D02*
X188853233Y-100183011D01*
X188853233Y-100183011D02*
X188768567Y-100098344D01*
X188768567Y-100098344D02*
X188726233Y-100013677D01*
X188726233Y-100013677D02*
X188683900Y-99844344D01*
X188683900Y-99844344D02*
X188683900Y-99717344D01*
X188683900Y-99717344D02*
X188726233Y-99548011D01*
X188726233Y-99548011D02*
X188768567Y-99463344D01*
X188768567Y-99463344D02*
X188853233Y-99378677D01*
X188853233Y-99378677D02*
X188980233Y-99336344D01*
X188980233Y-99336344D02*
X189064900Y-99336344D01*
X189064900Y-99336344D02*
X189191900Y-99378677D01*
X189191900Y-99378677D02*
X189234233Y-99421011D01*
X190038567Y-99336344D02*
X189615233Y-99336344D01*
X189615233Y-99336344D02*
X189572900Y-99759677D01*
X189572900Y-99759677D02*
X189615233Y-99717344D01*
X189615233Y-99717344D02*
X189699900Y-99675011D01*
X189699900Y-99675011D02*
X189911567Y-99675011D01*
X189911567Y-99675011D02*
X189996233Y-99717344D01*
X189996233Y-99717344D02*
X190038567Y-99759677D01*
X190038567Y-99759677D02*
X190080900Y-99844344D01*
X190080900Y-99844344D02*
X190080900Y-100056011D01*
X190080900Y-100056011D02*
X190038567Y-100140677D01*
X190038567Y-100140677D02*
X189996233Y-100183011D01*
X189996233Y-100183011D02*
X189911567Y-100225344D01*
X189911567Y-100225344D02*
X189699900Y-100225344D01*
X189699900Y-100225344D02*
X189615233Y-100183011D01*
X189615233Y-100183011D02*
X189572900Y-100140677D01*
X184023000Y-76679544D02*
X184023000Y-77399211D01*
X184023000Y-77399211D02*
X184065334Y-77483877D01*
X184065334Y-77483877D02*
X184107667Y-77526211D01*
X184107667Y-77526211D02*
X184192334Y-77568544D01*
X184192334Y-77568544D02*
X184361667Y-77568544D01*
X184361667Y-77568544D02*
X184446334Y-77526211D01*
X184446334Y-77526211D02*
X184488667Y-77483877D01*
X184488667Y-77483877D02*
X184531000Y-77399211D01*
X184531000Y-77399211D02*
X184531000Y-76679544D01*
X184912000Y-77526211D02*
X185039000Y-77568544D01*
X185039000Y-77568544D02*
X185250667Y-77568544D01*
X185250667Y-77568544D02*
X185335333Y-77526211D01*
X185335333Y-77526211D02*
X185377667Y-77483877D01*
X185377667Y-77483877D02*
X185420000Y-77399211D01*
X185420000Y-77399211D02*
X185420000Y-77314544D01*
X185420000Y-77314544D02*
X185377667Y-77229877D01*
X185377667Y-77229877D02*
X185335333Y-77187544D01*
X185335333Y-77187544D02*
X185250667Y-77145211D01*
X185250667Y-77145211D02*
X185081333Y-77102877D01*
X185081333Y-77102877D02*
X184996667Y-77060544D01*
X184996667Y-77060544D02*
X184954333Y-77018211D01*
X184954333Y-77018211D02*
X184912000Y-76933544D01*
X184912000Y-76933544D02*
X184912000Y-76848877D01*
X184912000Y-76848877D02*
X184954333Y-76764211D01*
X184954333Y-76764211D02*
X184996667Y-76721877D01*
X184996667Y-76721877D02*
X185081333Y-76679544D01*
X185081333Y-76679544D02*
X185293000Y-76679544D01*
X185293000Y-76679544D02*
X185420000Y-76721877D01*
X185801000Y-77102877D02*
X186097334Y-77102877D01*
X186224334Y-77568544D02*
X185801000Y-77568544D01*
X185801000Y-77568544D02*
X185801000Y-76679544D01*
X185801000Y-76679544D02*
X186224334Y-76679544D01*
X187113333Y-77568544D02*
X186817000Y-77145211D01*
X186605333Y-77568544D02*
X186605333Y-76679544D01*
X186605333Y-76679544D02*
X186944000Y-76679544D01*
X186944000Y-76679544D02*
X187028667Y-76721877D01*
X187028667Y-76721877D02*
X187071000Y-76764211D01*
X187071000Y-76764211D02*
X187113333Y-76848877D01*
X187113333Y-76848877D02*
X187113333Y-76975877D01*
X187113333Y-76975877D02*
X187071000Y-77060544D01*
X187071000Y-77060544D02*
X187028667Y-77102877D01*
X187028667Y-77102877D02*
X186944000Y-77145211D01*
X186944000Y-77145211D02*
X186605333Y-77145211D01*
X200533000Y-105254544D02*
X200533000Y-105974211D01*
X200533000Y-105974211D02*
X200575334Y-106058877D01*
X200575334Y-106058877D02*
X200617667Y-106101211D01*
X200617667Y-106101211D02*
X200702334Y-106143544D01*
X200702334Y-106143544D02*
X200871667Y-106143544D01*
X200871667Y-106143544D02*
X200956334Y-106101211D01*
X200956334Y-106101211D02*
X200998667Y-106058877D01*
X200998667Y-106058877D02*
X201041000Y-105974211D01*
X201041000Y-105974211D02*
X201041000Y-105254544D01*
X201422000Y-106101211D02*
X201549000Y-106143544D01*
X201549000Y-106143544D02*
X201760667Y-106143544D01*
X201760667Y-106143544D02*
X201845333Y-106101211D01*
X201845333Y-106101211D02*
X201887667Y-106058877D01*
X201887667Y-106058877D02*
X201930000Y-105974211D01*
X201930000Y-105974211D02*
X201930000Y-105889544D01*
X201930000Y-105889544D02*
X201887667Y-105804877D01*
X201887667Y-105804877D02*
X201845333Y-105762544D01*
X201845333Y-105762544D02*
X201760667Y-105720211D01*
X201760667Y-105720211D02*
X201591333Y-105677877D01*
X201591333Y-105677877D02*
X201506667Y-105635544D01*
X201506667Y-105635544D02*
X201464333Y-105593211D01*
X201464333Y-105593211D02*
X201422000Y-105508544D01*
X201422000Y-105508544D02*
X201422000Y-105423877D01*
X201422000Y-105423877D02*
X201464333Y-105339211D01*
X201464333Y-105339211D02*
X201506667Y-105296877D01*
X201506667Y-105296877D02*
X201591333Y-105254544D01*
X201591333Y-105254544D02*
X201803000Y-105254544D01*
X201803000Y-105254544D02*
X201930000Y-105296877D01*
X202311000Y-105677877D02*
X202607334Y-105677877D01*
X202734334Y-106143544D02*
X202311000Y-106143544D01*
X202311000Y-106143544D02*
X202311000Y-105254544D01*
X202311000Y-105254544D02*
X202734334Y-105254544D01*
X203623333Y-106143544D02*
X203327000Y-105720211D01*
X203115333Y-106143544D02*
X203115333Y-105254544D01*
X203115333Y-105254544D02*
X203454000Y-105254544D01*
X203454000Y-105254544D02*
X203538667Y-105296877D01*
X203538667Y-105296877D02*
X203581000Y-105339211D01*
X203581000Y-105339211D02*
X203623333Y-105423877D01*
X203623333Y-105423877D02*
X203623333Y-105550877D01*
X203623333Y-105550877D02*
X203581000Y-105635544D01*
X203581000Y-105635544D02*
X203538667Y-105677877D01*
X203538667Y-105677877D02*
X203454000Y-105720211D01*
X203454000Y-105720211D02*
X203115333Y-105720211D01*
X199622833Y-92825477D02*
X199580500Y-92867811D01*
X199580500Y-92867811D02*
X199453500Y-92910144D01*
X199453500Y-92910144D02*
X199368833Y-92910144D01*
X199368833Y-92910144D02*
X199241833Y-92867811D01*
X199241833Y-92867811D02*
X199157167Y-92783144D01*
X199157167Y-92783144D02*
X199114833Y-92698477D01*
X199114833Y-92698477D02*
X199072500Y-92529144D01*
X199072500Y-92529144D02*
X199072500Y-92402144D01*
X199072500Y-92402144D02*
X199114833Y-92232811D01*
X199114833Y-92232811D02*
X199157167Y-92148144D01*
X199157167Y-92148144D02*
X199241833Y-92063477D01*
X199241833Y-92063477D02*
X199368833Y-92021144D01*
X199368833Y-92021144D02*
X199453500Y-92021144D01*
X199453500Y-92021144D02*
X199580500Y-92063477D01*
X199580500Y-92063477D02*
X199622833Y-92105811D01*
X199961500Y-92105811D02*
X200003833Y-92063477D01*
X200003833Y-92063477D02*
X200088500Y-92021144D01*
X200088500Y-92021144D02*
X200300167Y-92021144D01*
X200300167Y-92021144D02*
X200384833Y-92063477D01*
X200384833Y-92063477D02*
X200427167Y-92105811D01*
X200427167Y-92105811D02*
X200469500Y-92190477D01*
X200469500Y-92190477D02*
X200469500Y-92275144D01*
X200469500Y-92275144D02*
X200427167Y-92402144D01*
X200427167Y-92402144D02*
X199919167Y-92910144D01*
X199919167Y-92910144D02*
X200469500Y-92910144D01*
D11*
%TO.C,C1*%
X199630420Y-89228200D02*
X199911580Y-89228200D01*
X199630420Y-90248200D02*
X199911580Y-90248200D01*
%TO.C,J1*%
X189447000Y-85964200D02*
X189447000Y-78704200D01*
X190947000Y-85964200D02*
X189447000Y-85964200D01*
X198947000Y-85964200D02*
X197447000Y-85964200D01*
X198947000Y-85964200D02*
X198947000Y-78704200D01*
%TO.C,SW3*%
X192546000Y-102182200D02*
X195846000Y-102182200D01*
X192546000Y-102482200D02*
X192546000Y-102182200D01*
X192546000Y-104682200D02*
X192546000Y-104982200D01*
X192546000Y-104982200D02*
X195846000Y-104982200D01*
X195846000Y-102182200D02*
X195846000Y-102482200D01*
X195846000Y-104982200D02*
X195846000Y-104682200D01*
%TO.C,J2*%
X183582000Y-80945200D02*
X184912000Y-80945200D01*
X183582000Y-82275200D02*
X183582000Y-80945200D01*
X183582000Y-83545200D02*
X183582000Y-101385200D01*
X183582000Y-83545200D02*
X186242000Y-83545200D01*
X183582000Y-101385200D02*
X186242000Y-101385200D01*
X186242000Y-83545200D02*
X186242000Y-101385200D01*
%TO.C,C4*%
X191858020Y-87602600D02*
X192139180Y-87602600D01*
X191858020Y-88622600D02*
X192139180Y-88622600D01*
%TO.C,SW2*%
X184519000Y-102180200D02*
X184519000Y-102480200D01*
X184519000Y-104980200D02*
X184519000Y-104680200D01*
X187819000Y-102180200D02*
X184519000Y-102180200D01*
X187819000Y-102480200D02*
X187819000Y-102180200D01*
X187819000Y-104680200D02*
X187819000Y-104980200D01*
X187819000Y-104980200D02*
X184519000Y-104980200D01*
%TO.C,J3*%
X201997000Y-98755200D02*
X201997000Y-80915200D01*
X204657000Y-80915200D02*
X201997000Y-80915200D01*
X204657000Y-98755200D02*
X201997000Y-98755200D01*
X204657000Y-98755200D02*
X204657000Y-80915200D01*
X204657000Y-100025200D02*
X204657000Y-101355200D01*
X204657000Y-101355200D02*
X203327000Y-101355200D01*
%TO.C,C3*%
X199630420Y-100658200D02*
X199911580Y-100658200D01*
X199630420Y-101678200D02*
X199911580Y-101678200D01*
%TO.C,R3*%
X197740000Y-104189559D02*
X197740000Y-104496841D01*
X198500000Y-104189559D02*
X198500000Y-104496841D01*
%TO.C,R5*%
X189739000Y-104496841D02*
X189739000Y-104189559D01*
X190499000Y-104496841D02*
X190499000Y-104189559D01*
%TO.C,D1*%
X202454000Y-79776200D02*
X205139000Y-79776200D01*
X205139000Y-77856200D02*
X202454000Y-77856200D01*
X205139000Y-79776200D02*
X205139000Y-77856200D01*
%TO.C,U2*%
X194183000Y-89123200D02*
X192233000Y-89123200D01*
X194183000Y-89123200D02*
X196133000Y-89123200D01*
X194183000Y-99243200D02*
X192233000Y-99243200D01*
X194183000Y-99243200D02*
X196133000Y-99243200D01*
X191483000Y-89178200D02*
X191243000Y-88848200D01*
X191723000Y-88848200D01*
X191483000Y-89178200D01*
G36*
X191483000Y-89178200D02*
G01*
X191243000Y-88848200D01*
X191723000Y-88848200D01*
X191483000Y-89178200D01*
G37*
%TO.C,C5*%
X188454420Y-100658200D02*
X188735580Y-100658200D01*
X188454420Y-101678200D02*
X188735580Y-101678200D01*
%TO.C,D2*%
X183100000Y-77856200D02*
X183100000Y-79776200D01*
X183100000Y-79776200D02*
X185785000Y-79776200D01*
X185785000Y-77856200D02*
X183100000Y-77856200D01*
%TO.C,SW1*%
X200420000Y-102182200D02*
X203720000Y-102182200D01*
X200420000Y-102482200D02*
X200420000Y-102182200D01*
X200420000Y-104682200D02*
X200420000Y-104982200D01*
X200420000Y-104982200D02*
X203720000Y-104982200D01*
X203720000Y-102182200D02*
X203720000Y-102482200D01*
X203720000Y-104982200D02*
X203720000Y-104682200D01*
%TO.C,C2*%
X199630420Y-90752200D02*
X199911580Y-90752200D01*
X199630420Y-91772200D02*
X199911580Y-91772200D01*
%TD*%
M02*
