%TF.GenerationSoftware,KiCad,Pcbnew,8.0.7*%
%TF.CreationDate,2024-12-10T14:46:16+07:00*%
%TF.ProjectId,CH551G_DEVKIT_V0,43483535-3147-45f4-9445-564b49545f56,rev?*%
%TF.SameCoordinates,Original*%
%TF.FileFunction,Soldermask,Bot*%
%TF.FilePolarity,Negative*%
%FSLAX46Y46*%
G04 Gerber Fmt 4.6, Leading zero omitted, Abs format (unit mm)*
G04 Created by KiCad (PCBNEW 8.0.7) date 2024-12-10 14:46:16*
%MOMM*%
%LPD*%
G01*
G04 APERTURE LIST*
G04 Aperture macros list*
%AMRoundRect*
0 Rectangle with rounded corners*
0 $1 Rounding radius*
0 $2 $3 $4 $5 $6 $7 $8 $9 X,Y pos of 4 corners*
0 Add a 4 corners polygon primitive as box body*
4,1,4,$2,$3,$4,$5,$6,$7,$8,$9,$2,$3,0*
0 Add four circle primitives for the rounded corners*
1,1,$1+$1,$2,$3*
1,1,$1+$1,$4,$5*
1,1,$1+$1,$6,$7*
1,1,$1+$1,$8,$9*
0 Add four rect primitives between the rounded corners*
20,1,$1+$1,$2,$3,$4,$5,0*
20,1,$1+$1,$4,$5,$6,$7,0*
20,1,$1+$1,$6,$7,$8,$9,0*
20,1,$1+$1,$8,$9,$2,$3,0*%
G04 Aperture macros list end*
%ADD10C,0.751600*%
%ADD11O,1.051600X0.751600*%
%ADD12O,0.901600X1.501600*%
%ADD13RoundRect,0.050800X-0.850000X-0.850000X0.850000X-0.850000X0.850000X0.850000X-0.850000X0.850000X0*%
%ADD14O,1.801600X1.801600*%
%ADD15RoundRect,0.050800X0.850000X0.850000X-0.850000X0.850000X-0.850000X-0.850000X0.850000X-0.850000X0*%
%ADD16RoundRect,0.160400X-0.160400X-0.210400X0.160400X-0.210400X0.160400X0.210400X-0.160400X0.210400X0*%
%ADD17RoundRect,0.272087X0.678713X-0.353713X0.678713X0.353713X-0.678713X0.353713X-0.678713X-0.353713X0*%
%ADD18RoundRect,0.125400X0.250400X0.125400X-0.250400X0.125400X-0.250400X-0.125400X0.250400X-0.125400X0*%
%ADD19RoundRect,0.250400X0.250400X0.275400X-0.250400X0.275400X-0.250400X-0.275400X0.250400X-0.275400X0*%
%ADD20RoundRect,0.244150X-0.406650X0.244150X-0.406650X-0.244150X0.406650X-0.244150X0.406650X0.244150X0*%
%ADD21RoundRect,0.175400X-0.537900X-0.175400X0.537900X-0.175400X0.537900X0.175400X-0.537900X0.175400X0*%
%ADD22RoundRect,0.160400X0.160400X0.210400X-0.160400X0.210400X-0.160400X-0.210400X0.160400X-0.210400X0*%
G04 APERTURE END LIST*
D10*
%TO.C,J1*%
X197797000Y-84954200D03*
D11*
X190597000Y-84954200D03*
D10*
X191397000Y-84304200D03*
X191797000Y-83604200D03*
X192597000Y-83604200D03*
X192997000Y-84304200D03*
X193397000Y-83604200D03*
X193797000Y-84304200D03*
X194597000Y-84304200D03*
X194997000Y-83604200D03*
X195397000Y-84304200D03*
X195797000Y-83604200D03*
X196597000Y-83604200D03*
X196997000Y-84304200D03*
D12*
X198687000Y-77754200D03*
X198327000Y-83704200D03*
X190067000Y-83704200D03*
X189707000Y-77754200D03*
%TD*%
D13*
%TO.C,J2*%
X184912000Y-82275200D03*
D14*
X184912000Y-84815200D03*
X184912000Y-87355200D03*
X184912000Y-89895200D03*
X184912000Y-92435200D03*
X184912000Y-94975200D03*
X184912000Y-97515200D03*
X184912000Y-100055200D03*
%TD*%
D15*
%TO.C,J3*%
X203327000Y-100025200D03*
D14*
X203327000Y-97485200D03*
X203327000Y-94945200D03*
X203327000Y-92405200D03*
X203327000Y-89865200D03*
X203327000Y-87325200D03*
X203327000Y-84785200D03*
X203327000Y-82245200D03*
%TD*%
D16*
%TO.C,R2*%
X185545000Y-78816200D03*
X186565000Y-78816200D03*
%TD*%
D17*
%TO.C,C7*%
X197485000Y-82323200D03*
X197485000Y-79373200D03*
%TD*%
D18*
%TO.C,U1*%
X195133000Y-88199200D03*
X195133000Y-88849200D03*
X195133000Y-89499200D03*
X193233000Y-89499200D03*
X193233000Y-88849200D03*
X193233000Y-88199200D03*
%TD*%
D19*
%TO.C,C8*%
X194958000Y-78816200D03*
X193408000Y-78816200D03*
%TD*%
D20*
%TO.C,FB1*%
X196773800Y-88320100D03*
X196773800Y-90445100D03*
%TD*%
D21*
%TO.C,U3*%
X193045500Y-82306200D03*
X193045500Y-81356200D03*
X193045500Y-80406200D03*
X195320500Y-80406200D03*
X195320500Y-82306200D03*
%TD*%
D22*
%TO.C,R1*%
X202948000Y-78816200D03*
X201928000Y-78816200D03*
%TD*%
D16*
%TO.C,R4*%
X186815000Y-104343200D03*
X187835000Y-104343200D03*
%TD*%
D17*
%TO.C,C6*%
X190881000Y-82323200D03*
X190881000Y-79373200D03*
%TD*%
M02*
