%TF.GenerationSoftware,KiCad,Pcbnew,8.0.7*%
%TF.CreationDate,2024-12-10T14:46:21+07:00*%
%TF.ProjectId,CH551G_DEVKIT_V0,43483535-3147-45f4-9445-564b49545f56,rev?*%
%TF.SameCoordinates,Original*%
%TF.FileFunction,Plated,1,2,PTH,Mixed*%
%TF.FilePolarity,Positive*%
%FSLAX46Y46*%
G04 Gerber Fmt 4.6, Leading zero omitted, Abs format (unit mm)*
G04 Created by KiCad (PCBNEW 8.0.7) date 2024-12-10 14:46:21*
%MOMM*%
%LPD*%
G01*
G04 APERTURE LIST*
%TA.AperFunction,ViaDrill*%
%ADD10C,0.400000*%
%TD*%
%TA.AperFunction,ComponentDrill*%
%ADD11C,0.400000*%
%TD*%
G04 aperture for slot hole*
%TA.AperFunction,ComponentDrill*%
%ADD12C,0.500000*%
%TD*%
%TA.AperFunction,ComponentDrill*%
%ADD13C,1.000000*%
%TD*%
G04 APERTURE END LIST*
D10*
X185547000Y-80213200D03*
X187833000Y-99644200D03*
X189103000Y-82372200D03*
X190119000Y-105867200D03*
X190119000Y-105867200D03*
X194924468Y-87629786D03*
X194945000Y-86629997D03*
X196723000Y-101041200D03*
X198755000Y-93548200D03*
X198755000Y-94818200D03*
X199009000Y-87452200D03*
X202946000Y-80213200D03*
D11*
%TO.C,J1*%
X191397000Y-84304200D03*
X191797000Y-83604200D03*
X192597000Y-83604200D03*
X192997000Y-84304200D03*
X193397000Y-83604200D03*
X193797000Y-84304200D03*
X194597000Y-84304200D03*
X194997000Y-83604200D03*
X195397000Y-84304200D03*
X195797000Y-83604200D03*
X196597000Y-83604200D03*
X196997000Y-84304200D03*
D12*
X189707000Y-77454200D02*
X189707000Y-78054200D01*
X190067000Y-83404200D02*
X190067000Y-84004200D01*
X198327000Y-83404200D02*
X198327000Y-84004200D01*
X198687000Y-77454200D02*
X198687000Y-78054200D01*
D13*
%TO.C,J2*%
X184912000Y-82275200D03*
X184912000Y-84815200D03*
X184912000Y-87355200D03*
X184912000Y-89895200D03*
X184912000Y-92435200D03*
X184912000Y-94975200D03*
X184912000Y-97515200D03*
X184912000Y-100055200D03*
%TO.C,J3*%
X203327000Y-82245200D03*
X203327000Y-84785200D03*
X203327000Y-87325200D03*
X203327000Y-89865200D03*
X203327000Y-92405200D03*
X203327000Y-94945200D03*
X203327000Y-97485200D03*
X203327000Y-100025200D03*
M02*
