%TF.GenerationSoftware,KiCad,Pcbnew,8.0.7*%
%TF.CreationDate,2024-12-10T14:46:16+07:00*%
%TF.ProjectId,CH551G_DEVKIT_V0,43483535-3147-45f4-9445-564b49545f56,rev?*%
%TF.SameCoordinates,Original*%
%TF.FileFunction,Copper,L2,Bot*%
%TF.FilePolarity,Positive*%
%FSLAX46Y46*%
G04 Gerber Fmt 4.6, Leading zero omitted, Abs format (unit mm)*
G04 Created by KiCad (PCBNEW 8.0.7) date 2024-12-10 14:46:16*
%MOMM*%
%LPD*%
G01*
G04 APERTURE LIST*
G04 Aperture macros list*
%AMRoundRect*
0 Rectangle with rounded corners*
0 $1 Rounding radius*
0 $2 $3 $4 $5 $6 $7 $8 $9 X,Y pos of 4 corners*
0 Add a 4 corners polygon primitive as box body*
4,1,4,$2,$3,$4,$5,$6,$7,$8,$9,$2,$3,0*
0 Add four circle primitives for the rounded corners*
1,1,$1+$1,$2,$3*
1,1,$1+$1,$4,$5*
1,1,$1+$1,$6,$7*
1,1,$1+$1,$8,$9*
0 Add four rect primitives between the rounded corners*
20,1,$1+$1,$2,$3,$4,$5,0*
20,1,$1+$1,$4,$5,$6,$7,0*
20,1,$1+$1,$6,$7,$8,$9,0*
20,1,$1+$1,$8,$9,$2,$3,0*%
G04 Aperture macros list end*
%TA.AperFunction,ComponentPad*%
%ADD10C,0.650000*%
%TD*%
%TA.AperFunction,ComponentPad*%
%ADD11O,0.800000X1.400000*%
%TD*%
%TA.AperFunction,ComponentPad*%
%ADD12R,1.700000X1.700000*%
%TD*%
%TA.AperFunction,ComponentPad*%
%ADD13O,1.700000X1.700000*%
%TD*%
%TA.AperFunction,SMDPad,CuDef*%
%ADD14RoundRect,0.135000X-0.135000X-0.185000X0.135000X-0.185000X0.135000X0.185000X-0.135000X0.185000X0*%
%TD*%
%TA.AperFunction,SMDPad,CuDef*%
%ADD15RoundRect,0.250000X0.650000X-0.325000X0.650000X0.325000X-0.650000X0.325000X-0.650000X-0.325000X0*%
%TD*%
%TA.AperFunction,SMDPad,CuDef*%
%ADD16RoundRect,0.100000X0.225000X0.100000X-0.225000X0.100000X-0.225000X-0.100000X0.225000X-0.100000X0*%
%TD*%
%TA.AperFunction,SMDPad,CuDef*%
%ADD17RoundRect,0.225000X0.225000X0.250000X-0.225000X0.250000X-0.225000X-0.250000X0.225000X-0.250000X0*%
%TD*%
%TA.AperFunction,SMDPad,CuDef*%
%ADD18RoundRect,0.218750X-0.381250X0.218750X-0.381250X-0.218750X0.381250X-0.218750X0.381250X0.218750X0*%
%TD*%
%TA.AperFunction,SMDPad,CuDef*%
%ADD19RoundRect,0.150000X-0.512500X-0.150000X0.512500X-0.150000X0.512500X0.150000X-0.512500X0.150000X0*%
%TD*%
%TA.AperFunction,SMDPad,CuDef*%
%ADD20RoundRect,0.135000X0.135000X0.185000X-0.135000X0.185000X-0.135000X-0.185000X0.135000X-0.185000X0*%
%TD*%
%TA.AperFunction,ViaPad*%
%ADD21C,0.800000*%
%TD*%
%TA.AperFunction,Conductor*%
%ADD22C,0.254000*%
%TD*%
%TA.AperFunction,Conductor*%
%ADD23C,0.508000*%
%TD*%
G04 APERTURE END LIST*
D10*
%TO.P,J1,B1,GND*%
%TO.N,GND*%
X191397000Y-84304200D03*
%TO.P,J1,B2,TX2+*%
%TO.N,unconnected-(J1-TX2+-PadB2)*%
X191797000Y-83604200D03*
%TO.P,J1,B3,TX2-*%
%TO.N,unconnected-(J1-TX2--PadB3)*%
X192597000Y-83604200D03*
%TO.P,J1,B4,VBUS*%
%TO.N,Net-(FB1-Pad1)*%
X192997000Y-84304200D03*
%TO.P,J1,B5,CC2*%
%TO.N,unconnected-(J1-CC2-PadB5)*%
X193397000Y-83604200D03*
%TO.P,J1,B6,D+*%
%TO.N,/UD_P*%
X193797000Y-84304200D03*
%TO.P,J1,B7,D-*%
%TO.N,/UD_N*%
X194597000Y-84304200D03*
%TO.P,J1,B8,SBU2*%
%TO.N,unconnected-(J1-SBU2-PadB8)*%
X194997000Y-83604200D03*
%TO.P,J1,B9,VBUS*%
%TO.N,Net-(FB1-Pad1)*%
X195397000Y-84304200D03*
%TO.P,J1,B10,RX1-*%
%TO.N,unconnected-(J1-RX1--PadB10)*%
X195797000Y-83604200D03*
%TO.P,J1,B11,RX1+*%
%TO.N,unconnected-(J1-RX1+-PadB11)*%
X196597000Y-83604200D03*
%TO.P,J1,B12,GND*%
%TO.N,GND*%
X196997000Y-84304200D03*
D11*
%TO.P,J1,S1,SHIELD*%
X198687000Y-77754200D03*
X198327000Y-83704200D03*
X190067000Y-83704200D03*
X189707000Y-77754200D03*
%TD*%
D12*
%TO.P,J2,1,Pin_1*%
%TO.N,/P3.2*%
X184912000Y-82275200D03*
D13*
%TO.P,J2,2,Pin_2*%
%TO.N,/P1.2*%
X184912000Y-84815200D03*
%TO.P,J2,3,Pin_3*%
%TO.N,/P1.5*%
X184912000Y-87355200D03*
%TO.P,J2,4,Pin_4*%
%TO.N,/P1.6*%
X184912000Y-89895200D03*
%TO.P,J2,5,Pin_5*%
%TO.N,/P1.7*%
X184912000Y-92435200D03*
%TO.P,J2,6,Pin_6*%
%TO.N,/P3.1*%
X184912000Y-94975200D03*
%TO.P,J2,7,Pin_7*%
%TO.N,/P3.0*%
X184912000Y-97515200D03*
%TO.P,J2,8,Pin_8*%
%TO.N,GND*%
X184912000Y-100055200D03*
%TD*%
D12*
%TO.P,J3,1,Pin_1*%
%TO.N,/P1.1*%
X203327000Y-100025200D03*
D13*
%TO.P,J3,2,Pin_2*%
%TO.N,/P3.3*%
X203327000Y-97485200D03*
%TO.P,J3,3,Pin_3*%
%TO.N,/P3.4*%
X203327000Y-94945200D03*
%TO.P,J3,4,Pin_4*%
%TO.N,+5V*%
X203327000Y-92405200D03*
%TO.P,J3,5,Pin_5*%
X203327000Y-89865200D03*
%TO.P,J3,6,Pin_6*%
%TO.N,+3V3*%
X203327000Y-87325200D03*
%TO.P,J3,7,Pin_7*%
X203327000Y-84785200D03*
%TO.P,J3,8,Pin_8*%
%TO.N,GND*%
X203327000Y-82245200D03*
%TD*%
D14*
%TO.P,R2,1*%
%TO.N,Net-(D2-A)*%
X185545000Y-78816200D03*
%TO.P,R2,2*%
%TO.N,/P3.3*%
X186565000Y-78816200D03*
%TD*%
D15*
%TO.P,C7,1*%
%TO.N,+3V3*%
X197485000Y-82323200D03*
%TO.P,C7,2*%
%TO.N,GND*%
X197485000Y-79373200D03*
%TD*%
D16*
%TO.P,U1,1*%
%TO.N,/UD_N*%
X195133000Y-88199200D03*
%TO.P,U1,2*%
%TO.N,GND*%
X195133000Y-88849200D03*
%TO.P,U1,3*%
%TO.N,unconnected-(U1-Pad3)*%
X195133000Y-89499200D03*
%TO.P,U1,4*%
%TO.N,unconnected-(U1-Pad4)*%
X193233000Y-89499200D03*
%TO.P,U1,5*%
%TO.N,unconnected-(U1-Pad5)*%
X193233000Y-88849200D03*
%TO.P,U1,6*%
%TO.N,/UD_P*%
X193233000Y-88199200D03*
%TD*%
D17*
%TO.P,C8,1*%
%TO.N,Net-(U3-BP)*%
X194958000Y-78816200D03*
%TO.P,C8,2*%
%TO.N,GND*%
X193408000Y-78816200D03*
%TD*%
D18*
%TO.P,FB1,1*%
%TO.N,Net-(FB1-Pad1)*%
X196773800Y-88320100D03*
%TO.P,FB1,2*%
%TO.N,+5V*%
X196773800Y-90445100D03*
%TD*%
D19*
%TO.P,U3,1,VIN*%
%TO.N,+5V*%
X193045500Y-82306200D03*
%TO.P,U3,2,GND*%
%TO.N,GND*%
X193045500Y-81356200D03*
%TO.P,U3,3,EN*%
%TO.N,+5V*%
X193045500Y-80406200D03*
%TO.P,U3,4,BP*%
%TO.N,Net-(U3-BP)*%
X195320500Y-80406200D03*
%TO.P,U3,5,VOUT*%
%TO.N,+3V3*%
X195320500Y-82306200D03*
%TD*%
D20*
%TO.P,R1,1*%
%TO.N,Net-(D1-A)*%
X202948000Y-78816200D03*
%TO.P,R1,2*%
%TO.N,+5V*%
X201928000Y-78816200D03*
%TD*%
D14*
%TO.P,R4,1*%
%TO.N,GND*%
X186815000Y-104343200D03*
%TO.P,R4,2*%
%TO.N,/RST*%
X187835000Y-104343200D03*
%TD*%
D15*
%TO.P,C6,1*%
%TO.N,+5V*%
X190881000Y-82323200D03*
%TO.P,C6,2*%
%TO.N,GND*%
X190881000Y-79373200D03*
%TD*%
D21*
%TO.N,+5V*%
X189103000Y-82372200D03*
X196723000Y-101041200D03*
X187833000Y-99644200D03*
X199009000Y-87452200D03*
%TO.N,Net-(D1-A)*%
X202946000Y-80213200D03*
%TO.N,Net-(D2-A)*%
X185547000Y-80213200D03*
%TO.N,/UD_N*%
X194924468Y-87629786D03*
X198755000Y-93548200D03*
%TO.N,/UD_P*%
X198755000Y-94818200D03*
X194945000Y-86629997D03*
%TO.N,/RST*%
X190119000Y-105867200D03*
X190119000Y-105867200D03*
%TD*%
D22*
%TO.N,GND*%
X189707000Y-77754200D02*
X189753000Y-77800200D01*
X186055000Y-104343200D02*
X184912000Y-103200200D01*
X196441632Y-89357200D02*
X197358000Y-89357200D01*
X184912000Y-100055200D02*
X183134000Y-98277200D01*
X189753000Y-77800200D02*
X191389000Y-77800200D01*
X195133000Y-88849200D02*
X195933632Y-88849200D01*
X191389000Y-77800200D02*
X193421000Y-77800200D01*
X184912000Y-103200200D02*
X184912000Y-100055200D01*
X197612000Y-89103200D02*
X197612000Y-85761978D01*
X187706000Y-80213200D02*
X187706000Y-78943200D01*
X188895000Y-77754200D02*
X189707000Y-77754200D01*
X196977000Y-77800200D02*
X197485000Y-78308200D01*
X197612000Y-85761978D02*
X196997000Y-85146978D01*
X183134000Y-98277200D02*
X183134000Y-81610200D01*
X183769000Y-80975200D02*
X186944000Y-80975200D01*
X195933632Y-88849200D02*
X196441632Y-89357200D01*
X183134000Y-81610200D02*
X183769000Y-80975200D01*
X190881000Y-77800200D02*
X191389000Y-77800200D01*
X197358000Y-89357200D02*
X197612000Y-89103200D01*
X193421000Y-77800200D02*
X196977000Y-77800200D01*
X193045500Y-81356200D02*
X191643000Y-81356200D01*
X193408000Y-77813200D02*
X193421000Y-77800200D01*
X190881000Y-79373200D02*
X190881000Y-77800200D01*
X191643000Y-81356200D02*
X190881000Y-80594200D01*
X187706000Y-78943200D02*
X188895000Y-77754200D01*
X186944000Y-80975200D02*
X187706000Y-80213200D01*
X197485000Y-78308200D02*
X197485000Y-79373200D01*
X186815000Y-104343200D02*
X186055000Y-104343200D01*
X196997000Y-85146978D02*
X196997000Y-84304200D01*
X190881000Y-80594200D02*
X190881000Y-79373200D01*
X193408000Y-78816200D02*
X193408000Y-77813200D01*
%TO.N,+5V*%
X201928000Y-78816200D02*
X200787000Y-78816200D01*
D23*
X200787000Y-89865200D02*
X200787000Y-94818200D01*
X190832000Y-82372200D02*
X190881000Y-82323200D01*
X199009000Y-87452200D02*
X200304400Y-87452200D01*
D22*
X194183000Y-81102200D02*
X194183000Y-81991200D01*
X193868000Y-82306200D02*
X193045500Y-82306200D01*
X193868000Y-80406200D02*
X194183000Y-80721200D01*
D23*
X190881000Y-82323200D02*
X193028500Y-82323200D01*
X199009000Y-89810100D02*
X198374000Y-90445100D01*
X200787000Y-94818200D02*
X200787000Y-96977200D01*
X200787000Y-96977200D02*
X196723000Y-101041200D01*
X200304400Y-87452200D02*
X200787000Y-87934800D01*
D22*
X200787000Y-78816200D02*
X198501000Y-81102200D01*
D23*
X203327000Y-92405200D02*
X200787000Y-92405200D01*
X199009000Y-87452200D02*
X199009000Y-89810100D01*
X200787000Y-90500200D02*
X200787000Y-89865200D01*
X189103000Y-82372200D02*
X190832000Y-82372200D01*
X196773800Y-90445100D02*
X198374000Y-90445100D01*
D22*
X194183000Y-80721200D02*
X194183000Y-81102200D01*
D23*
X191770000Y-95707200D02*
X187833000Y-99644200D01*
D22*
X194183000Y-81991200D02*
X193868000Y-82306200D01*
D23*
X200787000Y-87934800D02*
X200787000Y-89865200D01*
X193028500Y-82323200D02*
X193045500Y-82306200D01*
X200787000Y-92405200D02*
X200787000Y-90500200D01*
D22*
X193045500Y-80406200D02*
X193868000Y-80406200D01*
D23*
X200787000Y-95707200D02*
X191770000Y-95707200D01*
D22*
X198501000Y-81102200D02*
X194183000Y-81102200D01*
D23*
X203327000Y-89865200D02*
X200787000Y-89865200D01*
%TO.N,+3V3*%
X203327000Y-87325200D02*
X200025000Y-84023200D01*
X197485000Y-82323200D02*
X200025000Y-82323200D01*
X195320500Y-82306200D02*
X197468000Y-82306200D01*
X197468000Y-82306200D02*
X197485000Y-82323200D01*
X200865000Y-82323200D02*
X203327000Y-84785200D01*
X200025000Y-82323200D02*
X200865000Y-82323200D01*
X200025000Y-84023200D02*
X200025000Y-82323200D01*
%TO.N,Net-(U3-BP)*%
X195320500Y-80406200D02*
X195320500Y-79178700D01*
X195320500Y-79178700D02*
X194958000Y-78816200D01*
D22*
%TO.N,Net-(D1-A)*%
X202946000Y-80213200D02*
X202946000Y-78818200D01*
X202946000Y-78818200D02*
X202948000Y-78816200D01*
%TO.N,Net-(D2-A)*%
X185545000Y-78816200D02*
X185545000Y-80211200D01*
X185545000Y-80211200D02*
X185547000Y-80213200D01*
D23*
%TO.N,Net-(FB1-Pad1)*%
X195397000Y-84304200D02*
X195397000Y-85364200D01*
X196803500Y-86770700D02*
X196803500Y-88341200D01*
X195397000Y-85364200D02*
X196803500Y-86770700D01*
D22*
%TO.N,/UD_N*%
X194924468Y-87629786D02*
X195133000Y-87838318D01*
X198372000Y-93931200D02*
X196370182Y-93931200D01*
X194385000Y-88665560D02*
X194851360Y-88199200D01*
X194385000Y-91946018D02*
X194385000Y-88665560D01*
X196370182Y-93931200D02*
X194385000Y-91946018D01*
X198755000Y-93548200D02*
X198372000Y-93931200D01*
X194851360Y-88199200D02*
X195133000Y-88199200D01*
X195133000Y-87838318D02*
X195133000Y-88199200D01*
X194597000Y-84304200D02*
X194437000Y-84464200D01*
%TO.N,/UD_P*%
X198372000Y-94435200D02*
X196161418Y-94435200D01*
X194945000Y-86629997D02*
X193797000Y-85481997D01*
X193243200Y-87350600D02*
X193243200Y-88189000D01*
X193797000Y-85481997D02*
X193797000Y-84304200D01*
X193931000Y-88521000D02*
X193609200Y-88199200D01*
X194945000Y-86629997D02*
X193963803Y-86629997D01*
X193609200Y-88199200D02*
X193233000Y-88199200D01*
X196161418Y-94435200D02*
X193931000Y-92204782D01*
X193963803Y-86629997D02*
X193243200Y-87350600D01*
X198755000Y-94818200D02*
X198372000Y-94435200D01*
X193243200Y-88189000D02*
X193233000Y-88199200D01*
X193931000Y-92204782D02*
X193931000Y-88521000D01*
X193797000Y-84304200D02*
X193929000Y-84436200D01*
%TO.N,/P3.3*%
X186565000Y-78816200D02*
X186565000Y-77798200D01*
X187636000Y-76727200D02*
X203905000Y-76727200D01*
X205232000Y-95580200D02*
X203327000Y-97485200D01*
X205232000Y-78054200D02*
X205232000Y-95580200D01*
X186565000Y-77798200D02*
X187636000Y-76727200D01*
X203905000Y-76727200D02*
X205232000Y-78054200D01*
%TO.N,/RST*%
X187835000Y-105361200D02*
X188341000Y-105867200D01*
X188341000Y-105867200D02*
X189357000Y-105867200D01*
X187835000Y-104343200D02*
X187835000Y-105361200D01*
X189357000Y-105867200D02*
X190119000Y-105867200D01*
%TD*%
%TA.AperFunction,Conductor*%
%TO.N,GND*%
G36*
X187259996Y-76422885D02*
G01*
X187305751Y-76475689D01*
X187315695Y-76544847D01*
X187286670Y-76608403D01*
X187280638Y-76614881D01*
X186300376Y-77595142D01*
X186300374Y-77595145D01*
X186256836Y-77670553D01*
X186234300Y-77754660D01*
X186234300Y-78161196D01*
X186229230Y-78196290D01*
X186225198Y-78209954D01*
X186224714Y-78211555D01*
X186212831Y-78249912D01*
X186212273Y-78251666D01*
X186200617Y-78287404D01*
X186199975Y-78289320D01*
X186188548Y-78322511D01*
X186187802Y-78324616D01*
X186176702Y-78355065D01*
X186175828Y-78357389D01*
X186165086Y-78385117D01*
X186164059Y-78387684D01*
X186162310Y-78391916D01*
X186118512Y-78446355D01*
X186052236Y-78468472D01*
X185984523Y-78451247D01*
X185960030Y-78432236D01*
X185877267Y-78349473D01*
X185769015Y-78298994D01*
X185769014Y-78298993D01*
X185719698Y-78292501D01*
X185719693Y-78292500D01*
X185719688Y-78292500D01*
X185370312Y-78292500D01*
X185370306Y-78292500D01*
X185370301Y-78292501D01*
X185320985Y-78298993D01*
X185320984Y-78298994D01*
X185212732Y-78349473D01*
X185128273Y-78433932D01*
X185077794Y-78542184D01*
X185077793Y-78542185D01*
X185071301Y-78591501D01*
X185071300Y-78591518D01*
X185071300Y-79040881D01*
X185071301Y-79040898D01*
X185077793Y-79090213D01*
X185077794Y-79090215D01*
X185092154Y-79121012D01*
X185098918Y-79139063D01*
X185101995Y-79149734D01*
X185103986Y-79156641D01*
X185109451Y-79167215D01*
X185110713Y-79169657D01*
X185112476Y-79173208D01*
X185116217Y-79181051D01*
X185116222Y-79181062D01*
X185119731Y-79188420D01*
X185121436Y-79191994D01*
X185122892Y-79195161D01*
X185132585Y-79217048D01*
X185133807Y-79219903D01*
X185144061Y-79244717D01*
X185145086Y-79247280D01*
X185155828Y-79275008D01*
X185156702Y-79277332D01*
X185167802Y-79307781D01*
X185168548Y-79309886D01*
X185179975Y-79343077D01*
X185180617Y-79344993D01*
X185192265Y-79380707D01*
X185192823Y-79382461D01*
X185202322Y-79413122D01*
X185207804Y-79454032D01*
X185206736Y-79485432D01*
X185205909Y-79496122D01*
X185200671Y-79539382D01*
X185198285Y-79552829D01*
X185192484Y-79577528D01*
X185188110Y-79592080D01*
X185181860Y-79609028D01*
X185176457Y-79621521D01*
X185165743Y-79642977D01*
X185161559Y-79650664D01*
X185141263Y-79685010D01*
X185139934Y-79687207D01*
X185110232Y-79735174D01*
X185109271Y-79736740D01*
X185109208Y-79736845D01*
X185107816Y-79739171D01*
X185073444Y-79797512D01*
X185070969Y-79801831D01*
X185070719Y-79802281D01*
X185068238Y-79806866D01*
X185007811Y-79921961D01*
X185004748Y-79935335D01*
X184992064Y-79963516D01*
X184990723Y-79966561D01*
X184990611Y-79966822D01*
X184987958Y-79979595D01*
X184981112Y-80001824D01*
X184958840Y-80055597D01*
X184958839Y-80055599D01*
X184938091Y-80213198D01*
X184938091Y-80213201D01*
X184958838Y-80370795D01*
X184958840Y-80370800D01*
X185019667Y-80517652D01*
X185019668Y-80517654D01*
X185019669Y-80517655D01*
X185116436Y-80643764D01*
X185242545Y-80740531D01*
X185389403Y-80801361D01*
X185468201Y-80811735D01*
X185546999Y-80822109D01*
X185547000Y-80822109D01*
X185547001Y-80822109D01*
X185599532Y-80815193D01*
X185704597Y-80801361D01*
X185851455Y-80740531D01*
X185977564Y-80643764D01*
X186074331Y-80517655D01*
X186135161Y-80370797D01*
X186155909Y-80213200D01*
X186154585Y-80203147D01*
X186148100Y-80153886D01*
X186135161Y-80055603D01*
X186111943Y-79999550D01*
X186105705Y-79980086D01*
X186102729Y-79967242D01*
X186101811Y-79963278D01*
X186067932Y-79888232D01*
X186065170Y-79882359D01*
X186064846Y-79881697D01*
X186064812Y-79881631D01*
X186063856Y-79879752D01*
X186061827Y-79875768D01*
X186060379Y-79873034D01*
X186024911Y-79806059D01*
X186022152Y-79801017D01*
X186021916Y-79800601D01*
X186021915Y-79800599D01*
X186021877Y-79800532D01*
X186019332Y-79796152D01*
X185984940Y-79738579D01*
X185984708Y-79738190D01*
X185983897Y-79736848D01*
X185983528Y-79736236D01*
X185983513Y-79736211D01*
X185983465Y-79736132D01*
X185983395Y-79736018D01*
X185982284Y-79734230D01*
X185981852Y-79733534D01*
X185951489Y-79685401D01*
X185950272Y-79683429D01*
X185929349Y-79648807D01*
X185925105Y-79641191D01*
X185914172Y-79619841D01*
X185908591Y-79607268D01*
X185902362Y-79590833D01*
X185897786Y-79576028D01*
X185893144Y-79556828D01*
X185892014Y-79552155D01*
X185889500Y-79538388D01*
X185884203Y-79495929D01*
X185883327Y-79484945D01*
X185882244Y-79454004D01*
X185887720Y-79412976D01*
X185897215Y-79382327D01*
X185897728Y-79380718D01*
X185900324Y-79372760D01*
X185909381Y-79344989D01*
X185910023Y-79343073D01*
X185911116Y-79339900D01*
X185915741Y-79326462D01*
X185921457Y-79309861D01*
X185922165Y-79307858D01*
X185933323Y-79277253D01*
X185934154Y-79275047D01*
X185944914Y-79247271D01*
X185945936Y-79244717D01*
X185947692Y-79240467D01*
X185991496Y-79186034D01*
X186057775Y-79163924D01*
X186125486Y-79181157D01*
X186149967Y-79200161D01*
X186232733Y-79282927D01*
X186340984Y-79333405D01*
X186340985Y-79333406D01*
X186350484Y-79334656D01*
X186390312Y-79339900D01*
X186390319Y-79339900D01*
X186739681Y-79339900D01*
X186739688Y-79339900D01*
X186789014Y-79333406D01*
X186897267Y-79282927D01*
X186981727Y-79198467D01*
X187032206Y-79090214D01*
X187038700Y-79040888D01*
X187038700Y-78591512D01*
X187032206Y-78542186D01*
X187017842Y-78511382D01*
X187011076Y-78493323D01*
X187007637Y-78481393D01*
X187006013Y-78475759D01*
X187002016Y-78468026D01*
X186999278Y-78462728D01*
X186997525Y-78459201D01*
X186988537Y-78440353D01*
X186987131Y-78437294D01*
X186977400Y-78415324D01*
X186976225Y-78412577D01*
X186965883Y-78387551D01*
X186964929Y-78385167D01*
X186954160Y-78357368D01*
X186953310Y-78355105D01*
X186942188Y-78324599D01*
X186941467Y-78322564D01*
X186929988Y-78289221D01*
X186929411Y-78287503D01*
X186917706Y-78251613D01*
X186917170Y-78249923D01*
X186914883Y-78242542D01*
X186905284Y-78211555D01*
X186904835Y-78210074D01*
X186900765Y-78196279D01*
X186895700Y-78161200D01*
X186895700Y-77986542D01*
X186915385Y-77919503D01*
X186932019Y-77898861D01*
X187736661Y-77094219D01*
X187797984Y-77060734D01*
X187824342Y-77057900D01*
X203716658Y-77057900D01*
X203783697Y-77077585D01*
X203804339Y-77094219D01*
X204864981Y-78154861D01*
X204898466Y-78216184D01*
X204901300Y-78242542D01*
X204901300Y-95391857D01*
X204881615Y-95458896D01*
X204864981Y-95479538D01*
X204320717Y-96023801D01*
X204296526Y-96042633D01*
X204291255Y-96045774D01*
X204291245Y-96045781D01*
X204163325Y-96161149D01*
X204150738Y-96171103D01*
X204053597Y-96238181D01*
X204036604Y-96248025D01*
X203958692Y-96285258D01*
X203939851Y-96292445D01*
X203865415Y-96314091D01*
X203849945Y-96317535D01*
X203760764Y-96331479D01*
X203752871Y-96332454D01*
X203642502Y-96342520D01*
X203642109Y-96342537D01*
X203637615Y-96342965D01*
X203637174Y-96343006D01*
X203635506Y-96343158D01*
X203635146Y-96343200D01*
X203560733Y-96350279D01*
X203501433Y-96355921D01*
X203501404Y-96355924D01*
X203501395Y-96355925D01*
X203495834Y-96356529D01*
X203495189Y-96356608D01*
X203488885Y-96357480D01*
X203488854Y-96357484D01*
X203488845Y-96357486D01*
X203461163Y-96361746D01*
X203338606Y-96380610D01*
X203329376Y-96382245D01*
X203328340Y-96382453D01*
X203319186Y-96384502D01*
X203148903Y-96426678D01*
X203138605Y-96429510D01*
X203137492Y-96429846D01*
X203127568Y-96433124D01*
X202942846Y-96499304D01*
X202938238Y-96501017D01*
X202931668Y-96503549D01*
X202931520Y-96503166D01*
X202922558Y-96506772D01*
X202921823Y-96506994D01*
X202921813Y-96506998D01*
X202738768Y-96604838D01*
X202738761Y-96604842D01*
X202578316Y-96736516D01*
X202446642Y-96896961D01*
X202446638Y-96896968D01*
X202348801Y-97080008D01*
X202348800Y-97080011D01*
X202348799Y-97080013D01*
X202348798Y-97080016D01*
X202339698Y-97110016D01*
X202288546Y-97278640D01*
X202268202Y-97485200D01*
X202288546Y-97691759D01*
X202297647Y-97721761D01*
X202348798Y-97890384D01*
X202348799Y-97890385D01*
X202348800Y-97890388D01*
X202348801Y-97890391D01*
X202446638Y-98073431D01*
X202446642Y-98073438D01*
X202578316Y-98233883D01*
X202738761Y-98365557D01*
X202738768Y-98365561D01*
X202921808Y-98463398D01*
X202921809Y-98463398D01*
X202921816Y-98463402D01*
X203120439Y-98523653D01*
X203120438Y-98523653D01*
X203138958Y-98525477D01*
X203327000Y-98543998D01*
X203533561Y-98523653D01*
X203732184Y-98463402D01*
X203915237Y-98365558D01*
X204075683Y-98233883D01*
X204207358Y-98073437D01*
X204305202Y-97890384D01*
X204306585Y-97885821D01*
X204312253Y-97871139D01*
X204312904Y-97869319D01*
X204312907Y-97869316D01*
X204379073Y-97684626D01*
X204382348Y-97674710D01*
X204382691Y-97673577D01*
X204385523Y-97663280D01*
X204427692Y-97493021D01*
X204429745Y-97483853D01*
X204429952Y-97482820D01*
X204431591Y-97473563D01*
X204454706Y-97323385D01*
X204455561Y-97317219D01*
X204455644Y-97316547D01*
X204456280Y-97310728D01*
X204469163Y-97175300D01*
X204469162Y-97175299D01*
X204469210Y-97174802D01*
X204469230Y-97174597D01*
X204469257Y-97174308D01*
X204473568Y-97128996D01*
X204473573Y-97126963D01*
X204479744Y-97059302D01*
X204480712Y-97051467D01*
X204494662Y-96962246D01*
X204498105Y-96946784D01*
X204503869Y-96926963D01*
X204519756Y-96872329D01*
X204526934Y-96853510D01*
X204564173Y-96775588D01*
X204574011Y-96758608D01*
X204589266Y-96736516D01*
X204641097Y-96661450D01*
X204651053Y-96648861D01*
X204663697Y-96634842D01*
X204766420Y-96520948D01*
X204770659Y-96514039D01*
X204788661Y-96491217D01*
X205401319Y-95878560D01*
X205462642Y-95845075D01*
X205532334Y-95850059D01*
X205588267Y-95891931D01*
X205612684Y-95957395D01*
X205613000Y-95966241D01*
X205613000Y-105293275D01*
X205611116Y-105314808D01*
X205586953Y-105451841D01*
X205581359Y-105472719D01*
X205512918Y-105660758D01*
X205503783Y-105680347D01*
X205403734Y-105853637D01*
X205391337Y-105871343D01*
X205262714Y-106024630D01*
X205247430Y-106039914D01*
X205094143Y-106168537D01*
X205076437Y-106180934D01*
X204903147Y-106280983D01*
X204883558Y-106290118D01*
X204695519Y-106358559D01*
X204674642Y-106364153D01*
X204655662Y-106367499D01*
X204622675Y-106373316D01*
X204601146Y-106375200D01*
X190741592Y-106375200D01*
X190674553Y-106355515D01*
X190628798Y-106302711D01*
X190618854Y-106233553D01*
X190643217Y-106175713D01*
X190646331Y-106171655D01*
X190707161Y-106024797D01*
X190727364Y-105871343D01*
X190727909Y-105867201D01*
X190727909Y-105867198D01*
X190707161Y-105709604D01*
X190707161Y-105709603D01*
X190646331Y-105562746D01*
X190646330Y-105562745D01*
X190646330Y-105562744D01*
X190549565Y-105436637D01*
X190549564Y-105436636D01*
X190423455Y-105339869D01*
X190423454Y-105339868D01*
X190423452Y-105339867D01*
X190276600Y-105279040D01*
X190276595Y-105279038D01*
X190119001Y-105258291D01*
X190118999Y-105258291D01*
X189961401Y-105279039D01*
X189905482Y-105302201D01*
X189885948Y-105308455D01*
X189879391Y-105309970D01*
X189869193Y-105312326D01*
X189794131Y-105346159D01*
X189788214Y-105348937D01*
X189787626Y-105349225D01*
X189781959Y-105352103D01*
X189712154Y-105388900D01*
X189707638Y-105391354D01*
X189707075Y-105391669D01*
X189704773Y-105392995D01*
X189702563Y-105394269D01*
X189702536Y-105394284D01*
X189702536Y-105394285D01*
X189644366Y-105428777D01*
X189642238Y-105430056D01*
X189641971Y-105430218D01*
X189640080Y-105431385D01*
X189592072Y-105461369D01*
X189589961Y-105462659D01*
X189555393Y-105483301D01*
X189547736Y-105487514D01*
X189526332Y-105498328D01*
X189513798Y-105503815D01*
X189497036Y-105510075D01*
X189482373Y-105514540D01*
X189458033Y-105520335D01*
X189444422Y-105522783D01*
X189401493Y-105528053D01*
X189390660Y-105528903D01*
X189323102Y-105531234D01*
X189317051Y-105532601D01*
X189313295Y-105533450D01*
X189285965Y-105536500D01*
X188529342Y-105536500D01*
X188462303Y-105516815D01*
X188441661Y-105500181D01*
X188202019Y-105260539D01*
X188168534Y-105199216D01*
X188165700Y-105172858D01*
X188165700Y-104998199D01*
X188170766Y-104963117D01*
X188170770Y-104963105D01*
X188174831Y-104949337D01*
X188175296Y-104947802D01*
X188187191Y-104909404D01*
X188187728Y-104907718D01*
X188199381Y-104871989D01*
X188200023Y-104870073D01*
X188211457Y-104836861D01*
X188212165Y-104834858D01*
X188223323Y-104804253D01*
X188224154Y-104802047D01*
X188234914Y-104774271D01*
X188235940Y-104771707D01*
X188246169Y-104746953D01*
X188247392Y-104744095D01*
X188257137Y-104722092D01*
X188258575Y-104718963D01*
X188267545Y-104700154D01*
X188269259Y-104696703D01*
X188276011Y-104683644D01*
X188290586Y-104643303D01*
X188294816Y-104633059D01*
X188302206Y-104617214D01*
X188308700Y-104567888D01*
X188308700Y-104118512D01*
X188302206Y-104069186D01*
X188251727Y-103960933D01*
X188167267Y-103876473D01*
X188059015Y-103825994D01*
X188059014Y-103825993D01*
X188009698Y-103819501D01*
X188009693Y-103819500D01*
X188009688Y-103819500D01*
X187660312Y-103819500D01*
X187660306Y-103819500D01*
X187660301Y-103819501D01*
X187610985Y-103825993D01*
X187610984Y-103825994D01*
X187502732Y-103876473D01*
X187418273Y-103960932D01*
X187367794Y-104069184D01*
X187367793Y-104069185D01*
X187361301Y-104118501D01*
X187361300Y-104118518D01*
X187361300Y-104567881D01*
X187361301Y-104567898D01*
X187367793Y-104617213D01*
X187367794Y-104617215D01*
X187382154Y-104648012D01*
X187388918Y-104666063D01*
X187393986Y-104683641D01*
X187393988Y-104683644D01*
X187400713Y-104696657D01*
X187402480Y-104700215D01*
X187405725Y-104707020D01*
X187405732Y-104707034D01*
X187411436Y-104718994D01*
X187412892Y-104722161D01*
X187422585Y-104744048D01*
X187423807Y-104746903D01*
X187434061Y-104771717D01*
X187435086Y-104774280D01*
X187445828Y-104802008D01*
X187446702Y-104804332D01*
X187457802Y-104834781D01*
X187458548Y-104836886D01*
X187469975Y-104870077D01*
X187470617Y-104871993D01*
X187482265Y-104907707D01*
X187482824Y-104909463D01*
X187494710Y-104947832D01*
X187495192Y-104949426D01*
X187499229Y-104963105D01*
X187504300Y-104998204D01*
X187504300Y-105404739D01*
X187510741Y-105428777D01*
X187526836Y-105488846D01*
X187570374Y-105564255D01*
X187570376Y-105564257D01*
X187639010Y-105632891D01*
X187639016Y-105632896D01*
X188072033Y-106065913D01*
X188072043Y-106065924D01*
X188076373Y-106070254D01*
X188076374Y-106070255D01*
X188137945Y-106131826D01*
X188152491Y-106140224D01*
X188158708Y-106143814D01*
X188206923Y-106194382D01*
X188220144Y-106262989D01*
X188194175Y-106327853D01*
X188137260Y-106368381D01*
X188096706Y-106375200D01*
X183650854Y-106375200D01*
X183629324Y-106373316D01*
X183577357Y-106364153D01*
X183556480Y-106358559D01*
X183368441Y-106290118D01*
X183348852Y-106280983D01*
X183175562Y-106180934D01*
X183157861Y-106168540D01*
X183004568Y-106039913D01*
X182989285Y-106024630D01*
X182860657Y-105871336D01*
X182848265Y-105853637D01*
X182765108Y-105709604D01*
X182748214Y-105680343D01*
X182739081Y-105660758D01*
X182728938Y-105632891D01*
X182670639Y-105472716D01*
X182665047Y-105451844D01*
X182630063Y-105253443D01*
X182628209Y-105234615D01*
X182626029Y-105134530D01*
X182626000Y-105131830D01*
X182626000Y-99644198D01*
X187224091Y-99644198D01*
X187224091Y-99644201D01*
X187244838Y-99801795D01*
X187244840Y-99801800D01*
X187305667Y-99948652D01*
X187305668Y-99948654D01*
X187305669Y-99948655D01*
X187402436Y-100074764D01*
X187528545Y-100171531D01*
X187675403Y-100232361D01*
X187754201Y-100242735D01*
X187832999Y-100253109D01*
X187833000Y-100253109D01*
X187833001Y-100253109D01*
X187885532Y-100246193D01*
X187990597Y-100232361D01*
X188137455Y-100171531D01*
X188263564Y-100074764D01*
X188263565Y-100074763D01*
X188266298Y-100072029D01*
X188273049Y-100064791D01*
X188272879Y-100064633D01*
X188277024Y-100060168D01*
X188277026Y-100060167D01*
X188343491Y-99988580D01*
X188349343Y-99982004D01*
X188349992Y-99981243D01*
X188355705Y-99974244D01*
X188355724Y-99974221D01*
X188410897Y-99903545D01*
X188410901Y-99903539D01*
X188410921Y-99903514D01*
X188416748Y-99895678D01*
X188417371Y-99894798D01*
X188422671Y-99886940D01*
X188463558Y-99823238D01*
X188468020Y-99815962D01*
X188468506Y-99815132D01*
X188472705Y-99807609D01*
X188504186Y-99748366D01*
X188506557Y-99743767D01*
X188506816Y-99743249D01*
X188509067Y-99738605D01*
X188535984Y-99681269D01*
X188535983Y-99681268D01*
X188552622Y-99645826D01*
X188552623Y-99645821D01*
X188559532Y-99631106D01*
X188562246Y-99625677D01*
X188583842Y-99585035D01*
X188588965Y-99576283D01*
X188614739Y-99536127D01*
X188621318Y-99526847D01*
X188659007Y-99478567D01*
X188665847Y-99470538D01*
X188723558Y-99408385D01*
X188728758Y-99400112D01*
X188746050Y-99378434D01*
X191923266Y-96201219D01*
X191984589Y-96167734D01*
X192010947Y-96164900D01*
X200205300Y-96164900D01*
X200272339Y-96184585D01*
X200318094Y-96237389D01*
X200329300Y-96288900D01*
X200329300Y-96736251D01*
X200309615Y-96803290D01*
X200292981Y-96823932D01*
X196988510Y-100128402D01*
X196965851Y-100146306D01*
X196958818Y-100150636D01*
X196958816Y-100150638D01*
X196896666Y-100208342D01*
X196888599Y-100215213D01*
X196866634Y-100232361D01*
X196840387Y-100252850D01*
X196831062Y-100259461D01*
X196790916Y-100285228D01*
X196782125Y-100290373D01*
X196741554Y-100311932D01*
X196736062Y-100314678D01*
X196685932Y-100338212D01*
X196685931Y-100338213D01*
X196628532Y-100365158D01*
X196623917Y-100367395D01*
X196623462Y-100367623D01*
X196618865Y-100369992D01*
X196559589Y-100401491D01*
X196552174Y-100405627D01*
X196551378Y-100406092D01*
X196547823Y-100408271D01*
X196543963Y-100410638D01*
X196543949Y-100410647D01*
X196480234Y-100451543D01*
X196472334Y-100456871D01*
X196471502Y-100457461D01*
X196463704Y-100463261D01*
X196420515Y-100496976D01*
X196392936Y-100518506D01*
X196385864Y-100524280D01*
X196385853Y-100524289D01*
X196385140Y-100524897D01*
X196378631Y-100530692D01*
X196307044Y-100597160D01*
X196303892Y-100600147D01*
X196300457Y-100603468D01*
X196294256Y-100608814D01*
X196292436Y-100610634D01*
X196195669Y-100736744D01*
X196134839Y-100883602D01*
X196134838Y-100883604D01*
X196114091Y-101041198D01*
X196114091Y-101041201D01*
X196134838Y-101198795D01*
X196134840Y-101198800D01*
X196195667Y-101345652D01*
X196195668Y-101345654D01*
X196195669Y-101345655D01*
X196292436Y-101471764D01*
X196418545Y-101568531D01*
X196565403Y-101629361D01*
X196644201Y-101639735D01*
X196722999Y-101650109D01*
X196723000Y-101650109D01*
X196723001Y-101650109D01*
X196775532Y-101643193D01*
X196880597Y-101629361D01*
X197027455Y-101568531D01*
X197153564Y-101471764D01*
X197153565Y-101471763D01*
X197156298Y-101469029D01*
X197163049Y-101461791D01*
X197162879Y-101461633D01*
X197167024Y-101457168D01*
X197167026Y-101457167D01*
X197233491Y-101385580D01*
X197239343Y-101379004D01*
X197239992Y-101378243D01*
X197245705Y-101371244D01*
X197245724Y-101371221D01*
X197300897Y-101300545D01*
X197300901Y-101300539D01*
X197300921Y-101300514D01*
X197306748Y-101292678D01*
X197307371Y-101291798D01*
X197312671Y-101283940D01*
X197353558Y-101220238D01*
X197358020Y-101212962D01*
X197358506Y-101212132D01*
X197362705Y-101204609D01*
X197394186Y-101145366D01*
X197396557Y-101140767D01*
X197396816Y-101140249D01*
X197399067Y-101135605D01*
X197425984Y-101078269D01*
X197425983Y-101078268D01*
X197442622Y-101042826D01*
X197442623Y-101042821D01*
X197449532Y-101028106D01*
X197452246Y-101022677D01*
X197473842Y-100982035D01*
X197478965Y-100973283D01*
X197504739Y-100933127D01*
X197511318Y-100923847D01*
X197533629Y-100895266D01*
X202273299Y-100895266D01*
X202285117Y-100954676D01*
X202285118Y-100954679D01*
X202285119Y-100954680D01*
X202330140Y-101022060D01*
X202397520Y-101067081D01*
X202397523Y-101067082D01*
X202456933Y-101078900D01*
X202456936Y-101078900D01*
X204197066Y-101078900D01*
X204256476Y-101067082D01*
X204256477Y-101067081D01*
X204256480Y-101067081D01*
X204323860Y-101022060D01*
X204368881Y-100954680D01*
X204380700Y-100895264D01*
X204380700Y-99155136D01*
X204380700Y-99155133D01*
X204368882Y-99095723D01*
X204368881Y-99095720D01*
X204323860Y-99028340D01*
X204256480Y-98983319D01*
X204256479Y-98983318D01*
X204256476Y-98983317D01*
X204197066Y-98971500D01*
X204197064Y-98971500D01*
X202456936Y-98971500D01*
X202456934Y-98971500D01*
X202397523Y-98983317D01*
X202397520Y-98983318D01*
X202330140Y-99028340D01*
X202285118Y-99095720D01*
X202285117Y-99095723D01*
X202273300Y-99155133D01*
X202273300Y-99155136D01*
X202273300Y-100895264D01*
X202273300Y-100895266D01*
X202273299Y-100895266D01*
X197533629Y-100895266D01*
X197549007Y-100875567D01*
X197555847Y-100867538D01*
X197613558Y-100805385D01*
X197618758Y-100797112D01*
X197636050Y-100775434D01*
X201153251Y-97258235D01*
X201213508Y-97153866D01*
X201244700Y-97037457D01*
X201244700Y-96916942D01*
X201244700Y-94945200D01*
X202268202Y-94945200D01*
X202288546Y-95151759D01*
X202297647Y-95181761D01*
X202348798Y-95350384D01*
X202348799Y-95350387D01*
X202348800Y-95350388D01*
X202348801Y-95350391D01*
X202446638Y-95533431D01*
X202446642Y-95533438D01*
X202578316Y-95693883D01*
X202738761Y-95825557D01*
X202738768Y-95825561D01*
X202921808Y-95923398D01*
X202921809Y-95923398D01*
X202921816Y-95923402D01*
X203120439Y-95983653D01*
X203120438Y-95983653D01*
X203138958Y-95985477D01*
X203327000Y-96003998D01*
X203533561Y-95983653D01*
X203732184Y-95923402D01*
X203915237Y-95825558D01*
X204075683Y-95693883D01*
X204207358Y-95533437D01*
X204305202Y-95350384D01*
X204365453Y-95151761D01*
X204385798Y-94945200D01*
X204365453Y-94738639D01*
X204305202Y-94540016D01*
X204305198Y-94540008D01*
X204207361Y-94356968D01*
X204207357Y-94356961D01*
X204075683Y-94196516D01*
X203915238Y-94064842D01*
X203915231Y-94064838D01*
X203732191Y-93967001D01*
X203732188Y-93967000D01*
X203732187Y-93966999D01*
X203732184Y-93966998D01*
X203533561Y-93906747D01*
X203533559Y-93906746D01*
X203533561Y-93906746D01*
X203327000Y-93886402D01*
X203120440Y-93906746D01*
X203021541Y-93936747D01*
X202921816Y-93966998D01*
X202921813Y-93966999D01*
X202921811Y-93967000D01*
X202921808Y-93967001D01*
X202738768Y-94064838D01*
X202738761Y-94064842D01*
X202578316Y-94196516D01*
X202446642Y-94356961D01*
X202446638Y-94356968D01*
X202348801Y-94540008D01*
X202348800Y-94540011D01*
X202348799Y-94540013D01*
X202348798Y-94540016D01*
X202300321Y-94699825D01*
X202288547Y-94738639D01*
X202268202Y-94945200D01*
X201244700Y-94945200D01*
X201244700Y-94757943D01*
X201244700Y-92986900D01*
X201264385Y-92919861D01*
X201317189Y-92874106D01*
X201368700Y-92862900D01*
X201593934Y-92862900D01*
X201622536Y-92866243D01*
X201630670Y-92868172D01*
X201803206Y-92874462D01*
X201814593Y-92875405D01*
X201941476Y-92891850D01*
X201955681Y-92894543D01*
X202043936Y-92916684D01*
X202048720Y-92917885D01*
X202063864Y-92922736D01*
X202139445Y-92952411D01*
X202152122Y-92958231D01*
X202156206Y-92960392D01*
X202156210Y-92960395D01*
X202156211Y-92960395D01*
X202186664Y-92976510D01*
X202186664Y-92976511D01*
X202227524Y-92998134D01*
X202235016Y-93002441D01*
X202323236Y-93057332D01*
X202324961Y-93058426D01*
X202430397Y-93126565D01*
X202432650Y-93128000D01*
X202432919Y-93128169D01*
X202435479Y-93129752D01*
X202559323Y-93205089D01*
X202564313Y-93208030D01*
X202564870Y-93208348D01*
X202569807Y-93211079D01*
X202718802Y-93290881D01*
X202724869Y-93294004D01*
X202725563Y-93294347D01*
X202731884Y-93297341D01*
X202904569Y-93375602D01*
X202904619Y-93375624D01*
X202907521Y-93376912D01*
X202913768Y-93379622D01*
X202913567Y-93380083D01*
X202916140Y-93381165D01*
X202916181Y-93381068D01*
X202921808Y-93383397D01*
X202921816Y-93383402D01*
X203120439Y-93443653D01*
X203120438Y-93443653D01*
X203138958Y-93445477D01*
X203327000Y-93463998D01*
X203533561Y-93443653D01*
X203732184Y-93383402D01*
X203915237Y-93285558D01*
X204075683Y-93153883D01*
X204207358Y-92993437D01*
X204305202Y-92810384D01*
X204365453Y-92611761D01*
X204385798Y-92405200D01*
X204365453Y-92198639D01*
X204305202Y-92000016D01*
X204266610Y-91927815D01*
X204207361Y-91816968D01*
X204207357Y-91816961D01*
X204075683Y-91656516D01*
X203915238Y-91524842D01*
X203915231Y-91524838D01*
X203732191Y-91427001D01*
X203732188Y-91427000D01*
X203732187Y-91426999D01*
X203732184Y-91426998D01*
X203533561Y-91366747D01*
X203533559Y-91366746D01*
X203533561Y-91366746D01*
X203327000Y-91346402D01*
X203120440Y-91366746D01*
X202921816Y-91426997D01*
X202920807Y-91427537D01*
X202910079Y-91432187D01*
X202910121Y-91432280D01*
X202731851Y-91513070D01*
X202725479Y-91516090D01*
X202724768Y-91516442D01*
X202718794Y-91519518D01*
X202569844Y-91599297D01*
X202565008Y-91601968D01*
X202564538Y-91602236D01*
X202559339Y-91605297D01*
X202435470Y-91680650D01*
X202432639Y-91682403D01*
X202432495Y-91682494D01*
X202430449Y-91683799D01*
X202325085Y-91751889D01*
X202323292Y-91753026D01*
X202234997Y-91807965D01*
X202227489Y-91812281D01*
X202152121Y-91852167D01*
X202139437Y-91857991D01*
X202063867Y-91887661D01*
X202048723Y-91892511D01*
X202004592Y-91903582D01*
X202004591Y-91903581D01*
X202004581Y-91903585D01*
X201955680Y-91915852D01*
X201941447Y-91918550D01*
X201814616Y-91934988D01*
X201803197Y-91935935D01*
X201647175Y-91941625D01*
X201630667Y-91942227D01*
X201621071Y-91944410D01*
X201593565Y-91947500D01*
X201368700Y-91947500D01*
X201301661Y-91927815D01*
X201255906Y-91875011D01*
X201244700Y-91823500D01*
X201244700Y-90446900D01*
X201264385Y-90379861D01*
X201317189Y-90334106D01*
X201368700Y-90322900D01*
X201593934Y-90322900D01*
X201622536Y-90326243D01*
X201630670Y-90328172D01*
X201803206Y-90334462D01*
X201814593Y-90335405D01*
X201941476Y-90351850D01*
X201955681Y-90354543D01*
X202043936Y-90376684D01*
X202048720Y-90377885D01*
X202063864Y-90382736D01*
X202139445Y-90412411D01*
X202152122Y-90418231D01*
X202156206Y-90420392D01*
X202156210Y-90420395D01*
X202156211Y-90420395D01*
X202186664Y-90436510D01*
X202186664Y-90436511D01*
X202227524Y-90458134D01*
X202235016Y-90462441D01*
X202323236Y-90517332D01*
X202324961Y-90518426D01*
X202430397Y-90586565D01*
X202432650Y-90588000D01*
X202432919Y-90588169D01*
X202435479Y-90589752D01*
X202559323Y-90665089D01*
X202564313Y-90668030D01*
X202564870Y-90668348D01*
X202569807Y-90671079D01*
X202718802Y-90750881D01*
X202724869Y-90754004D01*
X202725563Y-90754347D01*
X202731884Y-90757341D01*
X202904569Y-90835602D01*
X202904619Y-90835624D01*
X202907521Y-90836912D01*
X202913768Y-90839622D01*
X202913567Y-90840083D01*
X202916140Y-90841165D01*
X202916181Y-90841068D01*
X202921808Y-90843397D01*
X202921816Y-90843402D01*
X203120439Y-90903653D01*
X203120438Y-90903653D01*
X203138958Y-90905477D01*
X203327000Y-90923998D01*
X203533561Y-90903653D01*
X203732184Y-90843402D01*
X203915237Y-90745558D01*
X204075683Y-90613883D01*
X204207358Y-90453437D01*
X204305202Y-90270384D01*
X204365453Y-90071761D01*
X204385798Y-89865200D01*
X204365453Y-89658639D01*
X204305202Y-89460016D01*
X204266610Y-89387815D01*
X204207361Y-89276968D01*
X204207357Y-89276961D01*
X204075683Y-89116516D01*
X203915238Y-88984842D01*
X203915231Y-88984838D01*
X203732191Y-88887001D01*
X203732188Y-88887000D01*
X203732187Y-88886999D01*
X203732184Y-88886998D01*
X203533561Y-88826747D01*
X203533559Y-88826746D01*
X203533561Y-88826746D01*
X203327000Y-88806402D01*
X203120440Y-88826746D01*
X202921816Y-88886997D01*
X202920807Y-88887537D01*
X202910079Y-88892187D01*
X202910121Y-88892280D01*
X202731851Y-88973070D01*
X202725479Y-88976090D01*
X202724768Y-88976442D01*
X202718794Y-88979518D01*
X202569844Y-89059297D01*
X202565008Y-89061968D01*
X202564538Y-89062236D01*
X202559339Y-89065297D01*
X202435470Y-89140650D01*
X202432639Y-89142403D01*
X202432495Y-89142494D01*
X202430449Y-89143799D01*
X202325085Y-89211889D01*
X202323292Y-89213026D01*
X202234997Y-89267965D01*
X202227489Y-89272281D01*
X202152121Y-89312167D01*
X202139437Y-89317991D01*
X202063867Y-89347661D01*
X202048723Y-89352511D01*
X202004592Y-89363582D01*
X202004591Y-89363581D01*
X202004581Y-89363585D01*
X201955680Y-89375852D01*
X201941447Y-89378550D01*
X201814616Y-89394988D01*
X201803197Y-89395935D01*
X201647175Y-89401625D01*
X201630667Y-89402227D01*
X201621071Y-89404410D01*
X201593565Y-89407500D01*
X201368700Y-89407500D01*
X201301661Y-89387815D01*
X201255906Y-89335011D01*
X201244700Y-89283500D01*
X201244700Y-87874544D01*
X201243478Y-87869985D01*
X201213508Y-87758135D01*
X201213507Y-87758134D01*
X201213507Y-87758132D01*
X201213505Y-87758129D01*
X201186106Y-87710673D01*
X201186104Y-87710671D01*
X201181294Y-87702339D01*
X201153251Y-87653765D01*
X201153249Y-87653763D01*
X201153248Y-87653761D01*
X201153247Y-87653760D01*
X200585436Y-87085950D01*
X200585428Y-87085944D01*
X200481072Y-87025695D01*
X200481067Y-87025692D01*
X200442263Y-87015294D01*
X200364658Y-86994500D01*
X200364657Y-86994500D01*
X200364656Y-86994500D01*
X199842195Y-86994500D01*
X199813513Y-86991137D01*
X199805472Y-86989225D01*
X199764422Y-86987702D01*
X199723374Y-86986180D01*
X199723372Y-86986180D01*
X199723364Y-86986177D01*
X199723352Y-86986179D01*
X199720695Y-86986080D01*
X199710141Y-86985234D01*
X199708478Y-86985029D01*
X199708447Y-86985024D01*
X199708447Y-86985025D01*
X199649436Y-86977756D01*
X199638168Y-86975837D01*
X199635495Y-86975254D01*
X199626460Y-86973283D01*
X199591584Y-86965675D01*
X199581728Y-86963097D01*
X199537785Y-86949650D01*
X199531971Y-86947712D01*
X199504553Y-86937813D01*
X199420304Y-86907393D01*
X199415538Y-86905738D01*
X199414995Y-86905557D01*
X199409917Y-86903932D01*
X199345794Y-86884311D01*
X199337502Y-86881958D01*
X199336635Y-86881731D01*
X199329712Y-86880072D01*
X199328282Y-86879729D01*
X199294705Y-86872405D01*
X199254280Y-86863587D01*
X199244816Y-86861752D01*
X199244803Y-86861749D01*
X199244799Y-86861749D01*
X199244605Y-86861716D01*
X199243743Y-86861569D01*
X199234311Y-86860187D01*
X199145190Y-86849208D01*
X199136254Y-86848303D01*
X199135276Y-86848225D01*
X199126488Y-86847713D01*
X199028797Y-86844090D01*
X199025085Y-86843985D01*
X199019254Y-86843870D01*
X199011576Y-86843291D01*
X199008999Y-86843291D01*
X198851403Y-86864039D01*
X198851402Y-86864039D01*
X198704544Y-86924869D01*
X198578436Y-87021636D01*
X198481669Y-87147744D01*
X198420839Y-87294602D01*
X198420839Y-87294603D01*
X198400091Y-87452198D01*
X198400091Y-87456033D01*
X198400437Y-87465958D01*
X198400665Y-87465950D01*
X198404513Y-87569688D01*
X198405026Y-87578478D01*
X198405103Y-87579454D01*
X198406008Y-87588390D01*
X198416987Y-87677511D01*
X198418370Y-87686947D01*
X198418549Y-87688002D01*
X198420388Y-87697481D01*
X198423266Y-87710673D01*
X198436262Y-87770253D01*
X198436530Y-87771479D01*
X198438502Y-87779718D01*
X198438743Y-87780639D01*
X198441103Y-87788971D01*
X198460734Y-87853119D01*
X198462298Y-87858018D01*
X198462461Y-87858508D01*
X198464177Y-87863455D01*
X198468181Y-87874544D01*
X198485702Y-87923072D01*
X198488054Y-87929585D01*
X198504511Y-87975168D01*
X198506451Y-87980991D01*
X198519896Y-88024927D01*
X198522475Y-88034784D01*
X198532637Y-88081368D01*
X198534556Y-88092636D01*
X198541825Y-88151647D01*
X198541829Y-88151678D01*
X198542034Y-88153341D01*
X198542881Y-88163915D01*
X198546024Y-88248669D01*
X198546025Y-88248674D01*
X198548196Y-88258192D01*
X198551300Y-88285761D01*
X198551300Y-89569152D01*
X198531615Y-89636191D01*
X198514981Y-89656833D01*
X198220733Y-89951081D01*
X198159410Y-89984566D01*
X198133052Y-89987400D01*
X197851819Y-89987400D01*
X197818594Y-89982866D01*
X197816102Y-89982173D01*
X197777566Y-89979279D01*
X197771694Y-89978697D01*
X197730075Y-89973571D01*
X197724304Y-89972722D01*
X197682350Y-89965538D01*
X197676718Y-89964439D01*
X197634382Y-89955155D01*
X197628912Y-89953825D01*
X197586042Y-89942362D01*
X197580781Y-89940829D01*
X197537397Y-89927143D01*
X197532362Y-89925435D01*
X197488340Y-89909432D01*
X197483507Y-89907559D01*
X197438928Y-89889210D01*
X197434332Y-89887209D01*
X197389066Y-89866400D01*
X197384721Y-89864299D01*
X197340436Y-89841813D01*
X197340423Y-89841808D01*
X197340422Y-89841807D01*
X197340421Y-89841807D01*
X197308354Y-89829551D01*
X197296331Y-89824209D01*
X197287222Y-89819568D01*
X197287220Y-89819567D01*
X197188303Y-89803900D01*
X197188298Y-89803900D01*
X196359302Y-89803900D01*
X196359297Y-89803900D01*
X196260382Y-89819566D01*
X196141143Y-89880321D01*
X196141139Y-89880324D01*
X196046524Y-89974939D01*
X196046521Y-89974943D01*
X196046520Y-89974945D01*
X195987319Y-90091135D01*
X195985766Y-90094182D01*
X195970100Y-90193096D01*
X195970100Y-90697103D01*
X195985766Y-90796017D01*
X195985767Y-90796020D01*
X195985768Y-90796022D01*
X196046520Y-90915255D01*
X196046521Y-90915256D01*
X196046524Y-90915260D01*
X196141139Y-91009875D01*
X196141143Y-91009878D01*
X196141145Y-91009880D01*
X196260378Y-91070632D01*
X196260380Y-91070632D01*
X196260382Y-91070633D01*
X196359297Y-91086300D01*
X196359302Y-91086300D01*
X197188303Y-91086300D01*
X197287216Y-91070633D01*
X197287216Y-91070632D01*
X197287222Y-91070632D01*
X197308212Y-91059936D01*
X197331028Y-91051026D01*
X197340417Y-91048393D01*
X197340417Y-91048392D01*
X197340420Y-91048392D01*
X197384728Y-91025892D01*
X197389020Y-91023817D01*
X197434385Y-91002964D01*
X197438887Y-91001004D01*
X197483581Y-90982608D01*
X197488323Y-90980772D01*
X197532356Y-90964764D01*
X197537374Y-90963061D01*
X197580798Y-90949362D01*
X197586052Y-90947831D01*
X197628945Y-90936362D01*
X197634302Y-90935060D01*
X197676763Y-90925747D01*
X197682318Y-90924664D01*
X197724348Y-90917467D01*
X197730051Y-90916628D01*
X197771729Y-90911496D01*
X197777561Y-90910918D01*
X197816098Y-90908026D01*
X197821106Y-90906734D01*
X197852092Y-90902800D01*
X198434256Y-90902800D01*
X198434258Y-90902800D01*
X198550666Y-90871608D01*
X198655035Y-90811351D01*
X199375251Y-90091134D01*
X199435508Y-89986765D01*
X199466700Y-89870357D01*
X199466700Y-89749842D01*
X199466700Y-88285390D01*
X199470063Y-88256708D01*
X199471973Y-88248674D01*
X199471975Y-88248666D01*
X199475117Y-88163915D01*
X199475961Y-88153359D01*
X199483443Y-88092625D01*
X199485353Y-88081405D01*
X199495531Y-88034747D01*
X199498083Y-88024983D01*
X199498400Y-88023947D01*
X199536814Y-87965591D01*
X199580696Y-87941616D01*
X199581731Y-87941300D01*
X199591552Y-87938730D01*
X199638201Y-87928554D01*
X199649425Y-87926643D01*
X199710167Y-87919160D01*
X199720716Y-87918316D01*
X199805468Y-87915174D01*
X199814991Y-87913002D01*
X199842556Y-87909900D01*
X200063452Y-87909900D01*
X200130491Y-87929585D01*
X200151133Y-87946219D01*
X200292981Y-88088067D01*
X200326466Y-88149390D01*
X200329300Y-88175748D01*
X200329300Y-95125500D01*
X200309615Y-95192539D01*
X200256811Y-95238294D01*
X200205300Y-95249500D01*
X199415369Y-95249500D01*
X199348330Y-95229815D01*
X199302575Y-95177011D01*
X199292631Y-95107853D01*
X199300808Y-95078048D01*
X199320690Y-95030048D01*
X199343161Y-94975797D01*
X199363909Y-94818200D01*
X199357789Y-94771717D01*
X199343161Y-94660604D01*
X199343161Y-94660603D01*
X199282331Y-94513746D01*
X199282330Y-94513745D01*
X199282330Y-94513744D01*
X199185565Y-94387637D01*
X199184684Y-94386961D01*
X199059455Y-94290869D01*
X199059451Y-94290867D01*
X199058969Y-94290589D01*
X199058641Y-94290245D01*
X199053007Y-94285922D01*
X199053681Y-94285043D01*
X199010752Y-94240023D01*
X198997527Y-94171417D01*
X199023493Y-94106551D01*
X199053237Y-94080777D01*
X199053007Y-94080478D01*
X199058039Y-94076616D01*
X199058969Y-94075811D01*
X199059445Y-94075534D01*
X199059455Y-94075531D01*
X199185564Y-93978764D01*
X199282331Y-93852655D01*
X199343161Y-93705797D01*
X199363909Y-93548200D01*
X199362649Y-93538633D01*
X199350077Y-93443135D01*
X199343161Y-93390603D01*
X199282331Y-93243746D01*
X199282330Y-93243745D01*
X199282330Y-93243744D01*
X199185565Y-93117637D01*
X199185564Y-93117636D01*
X199059455Y-93020869D01*
X199059454Y-93020868D01*
X199059452Y-93020867D01*
X198912600Y-92960040D01*
X198912595Y-92960038D01*
X198755001Y-92939291D01*
X198754999Y-92939291D01*
X198597404Y-92960038D01*
X198597402Y-92960039D01*
X198450544Y-93020869D01*
X198324436Y-93117636D01*
X198227667Y-93243748D01*
X198202827Y-93303715D01*
X198194632Y-93319999D01*
X198184805Y-93336397D01*
X198165267Y-93391020D01*
X198162671Y-93398756D01*
X198162387Y-93399661D01*
X198159972Y-93407950D01*
X198143186Y-93470375D01*
X198142034Y-93474859D01*
X198141905Y-93475383D01*
X198140820Y-93480043D01*
X198135708Y-93503215D01*
X198102042Y-93564440D01*
X198040620Y-93597743D01*
X198014620Y-93600500D01*
X196558524Y-93600500D01*
X196491485Y-93580815D01*
X196470843Y-93564181D01*
X194752019Y-91845357D01*
X194718534Y-91784034D01*
X194715700Y-91757676D01*
X194715700Y-90025068D01*
X194735385Y-89958029D01*
X194788189Y-89912274D01*
X194853997Y-89901895D01*
X194862655Y-89902900D01*
X195403344Y-89902899D01*
X195428737Y-89899954D01*
X195532605Y-89854092D01*
X195612892Y-89773805D01*
X195658754Y-89669937D01*
X195661700Y-89644545D01*
X195661699Y-89353856D01*
X195658754Y-89328463D01*
X195612892Y-89224595D01*
X195532605Y-89144308D01*
X195524320Y-89140650D01*
X195428738Y-89098446D01*
X195403345Y-89095500D01*
X194862662Y-89095500D01*
X194862639Y-89095502D01*
X194853985Y-89096506D01*
X194785124Y-89084676D01*
X194733591Y-89037495D01*
X194715700Y-88973332D01*
X194715700Y-88853902D01*
X194735385Y-88786863D01*
X194752014Y-88766224D01*
X194833281Y-88684957D01*
X194888315Y-88653014D01*
X194890139Y-88652517D01*
X194893044Y-88651763D01*
X194926389Y-88643548D01*
X194929385Y-88642850D01*
X194930938Y-88642508D01*
X194930939Y-88642509D01*
X194962698Y-88635523D01*
X194965596Y-88634923D01*
X194998808Y-88628499D01*
X195001775Y-88627965D01*
X195034836Y-88622443D01*
X195037933Y-88621967D01*
X195070855Y-88617339D01*
X195073972Y-88616943D01*
X195106803Y-88613198D01*
X195109963Y-88612879D01*
X195142679Y-88610011D01*
X195145831Y-88609776D01*
X195169756Y-88608316D01*
X195182137Y-88607188D01*
X195182692Y-88607120D01*
X195183418Y-88607033D01*
X195183610Y-88607009D01*
X195184134Y-88606945D01*
X195184137Y-88606943D01*
X195186780Y-88606311D01*
X195215669Y-88602899D01*
X195403338Y-88602899D01*
X195403344Y-88602899D01*
X195428737Y-88599954D01*
X195532605Y-88554092D01*
X195612892Y-88473805D01*
X195658754Y-88369937D01*
X195661700Y-88344545D01*
X195661699Y-88053856D01*
X195658754Y-88028463D01*
X195612892Y-87924595D01*
X195551570Y-87863273D01*
X195518085Y-87801950D01*
X195516312Y-87759407D01*
X195516480Y-87758135D01*
X195533377Y-87629786D01*
X195527932Y-87588430D01*
X195514016Y-87482726D01*
X195512629Y-87472189D01*
X195451799Y-87325332D01*
X195451798Y-87325331D01*
X195451798Y-87325330D01*
X195369943Y-87218654D01*
X195344749Y-87153485D01*
X195358788Y-87085040D01*
X195371580Y-87067750D01*
X195370616Y-87067010D01*
X195421880Y-87000201D01*
X195472331Y-86934452D01*
X195474630Y-86928903D01*
X195494071Y-86881967D01*
X195533161Y-86787594D01*
X195553909Y-86629997D01*
X195547263Y-86579519D01*
X195532100Y-86464342D01*
X195534347Y-86464046D01*
X195535729Y-86405935D01*
X195574891Y-86348072D01*
X195639119Y-86320567D01*
X195708021Y-86332153D01*
X195741523Y-86356009D01*
X196309481Y-86923967D01*
X196342966Y-86985290D01*
X196345800Y-87011648D01*
X196345800Y-87374376D01*
X196338870Y-87415248D01*
X196333431Y-87430827D01*
X196332776Y-87432658D01*
X196314794Y-87481680D01*
X196314044Y-87483672D01*
X196296294Y-87529607D01*
X196295431Y-87531779D01*
X196278035Y-87574391D01*
X196277037Y-87576764D01*
X196260034Y-87616062D01*
X196258869Y-87618673D01*
X196253120Y-87631162D01*
X196253089Y-87631230D01*
X196242368Y-87654522D01*
X196241009Y-87657378D01*
X196228356Y-87683118D01*
X196181116Y-87734597D01*
X196173371Y-87738898D01*
X196141146Y-87755318D01*
X196141144Y-87755320D01*
X196046524Y-87849939D01*
X196046521Y-87849943D01*
X195985766Y-87969182D01*
X195970100Y-88068096D01*
X195970100Y-88572103D01*
X195985766Y-88671017D01*
X195985767Y-88671020D01*
X195985768Y-88671022D01*
X196044792Y-88786863D01*
X196046521Y-88790256D01*
X196046524Y-88790260D01*
X196141139Y-88884875D01*
X196141143Y-88884878D01*
X196141145Y-88884880D01*
X196260378Y-88945632D01*
X196260380Y-88945632D01*
X196260382Y-88945633D01*
X196359297Y-88961300D01*
X196359302Y-88961300D01*
X197188303Y-88961300D01*
X197287217Y-88945633D01*
X197287217Y-88945632D01*
X197287222Y-88945632D01*
X197406455Y-88884880D01*
X197501080Y-88790255D01*
X197561832Y-88671022D01*
X197564884Y-88651754D01*
X197577500Y-88572103D01*
X197577500Y-88068096D01*
X197561833Y-87969182D01*
X197561832Y-87969180D01*
X197561832Y-87969178D01*
X197501080Y-87849945D01*
X197501078Y-87849943D01*
X197501075Y-87849939D01*
X197399555Y-87748419D01*
X197400464Y-87747509D01*
X197364971Y-87702339D01*
X197353037Y-87673267D01*
X197352017Y-87670700D01*
X197337708Y-87633505D01*
X197336841Y-87631185D01*
X197336334Y-87629784D01*
X197322093Y-87590437D01*
X197321391Y-87588440D01*
X197306389Y-87544543D01*
X197305751Y-87542624D01*
X197290483Y-87495448D01*
X197289958Y-87493788D01*
X197274460Y-87443374D01*
X197274036Y-87441960D01*
X197266191Y-87415151D01*
X197261200Y-87380326D01*
X197261200Y-86710444D01*
X197258819Y-86701557D01*
X197230008Y-86594035D01*
X197195889Y-86534939D01*
X197169751Y-86489665D01*
X197169749Y-86489663D01*
X197169748Y-86489661D01*
X195891019Y-85210932D01*
X195857534Y-85149609D01*
X195854700Y-85123251D01*
X195854700Y-84984456D01*
X195857656Y-84957544D01*
X195859903Y-84947437D01*
X195859904Y-84947427D01*
X195861051Y-84896110D01*
X195861443Y-84878596D01*
X195861451Y-84878434D01*
X197221500Y-84878434D01*
X197221500Y-85029965D01*
X197260719Y-85176336D01*
X197286151Y-85220384D01*
X197336485Y-85307565D01*
X197443635Y-85414715D01*
X197574865Y-85490481D01*
X197721234Y-85529700D01*
X197721236Y-85529700D01*
X197872764Y-85529700D01*
X197872766Y-85529700D01*
X198019135Y-85490481D01*
X198150365Y-85414715D01*
X198257515Y-85307565D01*
X198333281Y-85176335D01*
X198372500Y-85029966D01*
X198372500Y-84878434D01*
X198333281Y-84732065D01*
X198257515Y-84600835D01*
X198150365Y-84493685D01*
X198061222Y-84442218D01*
X198019136Y-84417919D01*
X197877677Y-84380016D01*
X197872766Y-84378700D01*
X197721234Y-84378700D01*
X197574863Y-84417919D01*
X197443635Y-84493685D01*
X197443632Y-84493687D01*
X197336487Y-84600832D01*
X197336485Y-84600835D01*
X197260719Y-84732063D01*
X197221500Y-84878434D01*
X195861451Y-84878434D01*
X195861747Y-84872261D01*
X195865834Y-84817026D01*
X195866529Y-84810221D01*
X195872206Y-84766660D01*
X195873164Y-84760519D01*
X195880400Y-84720727D01*
X195881131Y-84717030D01*
X195890582Y-84672862D01*
X195890583Y-84672855D01*
X195901052Y-84623913D01*
X195901683Y-84620853D01*
X195901753Y-84620500D01*
X195902371Y-84617250D01*
X195911942Y-84564626D01*
X195912805Y-84559521D01*
X195912896Y-84558939D01*
X195913652Y-84553664D01*
X195921525Y-84493240D01*
X195922203Y-84487390D01*
X195922269Y-84486741D01*
X195922771Y-84481023D01*
X195928120Y-84408715D01*
X195928446Y-84403377D01*
X195928475Y-84402776D01*
X195928666Y-84397389D01*
X195930381Y-84320797D01*
X195930415Y-84318895D01*
X195930418Y-84318669D01*
X195930416Y-84318663D01*
X195930454Y-84315871D01*
X195930262Y-84311463D01*
X195930262Y-84304203D01*
X195930262Y-84304200D01*
X195919842Y-84225053D01*
X195930607Y-84156021D01*
X195976987Y-84103765D01*
X195995329Y-84094310D01*
X196021528Y-84083458D01*
X196063631Y-84066018D01*
X196121514Y-84021603D01*
X196186683Y-83996409D01*
X196255128Y-84010447D01*
X196272486Y-84021603D01*
X196330368Y-84066017D01*
X196330371Y-84066019D01*
X196359505Y-84078086D01*
X196458982Y-84119292D01*
X196499134Y-84124578D01*
X196596999Y-84137462D01*
X196597000Y-84137462D01*
X196597001Y-84137462D01*
X196643006Y-84131405D01*
X196735018Y-84119292D01*
X196863631Y-84066018D01*
X196974073Y-83981273D01*
X197058818Y-83870831D01*
X197112092Y-83742218D01*
X197128899Y-83614552D01*
X197130262Y-83604201D01*
X197130262Y-83604198D01*
X197112092Y-83466183D01*
X197112092Y-83466182D01*
X197058818Y-83337569D01*
X197031052Y-83301383D01*
X197005859Y-83236216D01*
X197019897Y-83167772D01*
X197068711Y-83117782D01*
X197129426Y-83101899D01*
X198189652Y-83101899D01*
X198220301Y-83099026D01*
X198349395Y-83053854D01*
X198429442Y-82994774D01*
X198435834Y-82990361D01*
X198467141Y-82970163D01*
X198482955Y-82959959D01*
X198487985Y-82956881D01*
X198546819Y-82922813D01*
X198552254Y-82919849D01*
X198609774Y-82890337D01*
X198615705Y-82887493D01*
X198671974Y-82862338D01*
X198678366Y-82859693D01*
X198733440Y-82838709D01*
X198740287Y-82836329D01*
X198794224Y-82819338D01*
X198801475Y-82817295D01*
X198854388Y-82804120D01*
X198861987Y-82802481D01*
X198900474Y-82795440D01*
X198914062Y-82792954D01*
X198921969Y-82791768D01*
X198973898Y-82785697D01*
X198973911Y-82785693D01*
X198978986Y-82784665D01*
X198979062Y-82785041D01*
X199008058Y-82780900D01*
X199443300Y-82780900D01*
X199510339Y-82800585D01*
X199556094Y-82853389D01*
X199567300Y-82904900D01*
X199567300Y-83962942D01*
X199567300Y-84083458D01*
X199581771Y-84137462D01*
X199598492Y-84199867D01*
X199598495Y-84199872D01*
X199658744Y-84304228D01*
X199658750Y-84304236D01*
X201777894Y-86423380D01*
X201795751Y-86445964D01*
X201800141Y-86453082D01*
X201876238Y-86534938D01*
X201917683Y-86579519D01*
X201925088Y-86588262D01*
X201936971Y-86603685D01*
X202003158Y-86689585D01*
X202011314Y-86701557D01*
X202060596Y-86783846D01*
X202067875Y-86797985D01*
X202095686Y-86861752D01*
X202100333Y-86872405D01*
X202105184Y-86885493D01*
X202130272Y-86966986D01*
X202132529Y-86975344D01*
X202156102Y-87076561D01*
X202156567Y-87078636D01*
X202182922Y-87201287D01*
X202183398Y-87203443D01*
X202183489Y-87203849D01*
X202184238Y-87207040D01*
X202188114Y-87222954D01*
X202218565Y-87347993D01*
X202220062Y-87353778D01*
X202220227Y-87354380D01*
X202221739Y-87359626D01*
X202270670Y-87521423D01*
X202272825Y-87528138D01*
X202272829Y-87528149D01*
X202273083Y-87528896D01*
X202275348Y-87535226D01*
X202342128Y-87712704D01*
X202343333Y-87715828D01*
X202345798Y-87722069D01*
X202345339Y-87722250D01*
X202346375Y-87724798D01*
X202346468Y-87724760D01*
X202348797Y-87730383D01*
X202446638Y-87913431D01*
X202446642Y-87913438D01*
X202578316Y-88073883D01*
X202738761Y-88205557D01*
X202738768Y-88205561D01*
X202921808Y-88303398D01*
X202921809Y-88303398D01*
X202921816Y-88303402D01*
X203120439Y-88363653D01*
X203120438Y-88363653D01*
X203138958Y-88365477D01*
X203327000Y-88383998D01*
X203533561Y-88363653D01*
X203732184Y-88303402D01*
X203915237Y-88205558D01*
X204075683Y-88073883D01*
X204207358Y-87913437D01*
X204305202Y-87730384D01*
X204365453Y-87531761D01*
X204385798Y-87325200D01*
X204365453Y-87118639D01*
X204305202Y-86920016D01*
X204298453Y-86907389D01*
X204207361Y-86736968D01*
X204207357Y-86736961D01*
X204075683Y-86576516D01*
X203915238Y-86444842D01*
X203915231Y-86444838D01*
X203732183Y-86346997D01*
X203732181Y-86346996D01*
X203731091Y-86346666D01*
X203720208Y-86342366D01*
X203720173Y-86342462D01*
X203537026Y-86273548D01*
X203530695Y-86271282D01*
X203529947Y-86271028D01*
X203529938Y-86271025D01*
X203523224Y-86268871D01*
X203523200Y-86268863D01*
X203523179Y-86268857D01*
X203513222Y-86265846D01*
X203513220Y-86265845D01*
X203498556Y-86261410D01*
X203457821Y-86249090D01*
X203361405Y-86219932D01*
X203355985Y-86218374D01*
X203355968Y-86218369D01*
X203355382Y-86218209D01*
X203355385Y-86218209D01*
X203355342Y-86218198D01*
X203349836Y-86216776D01*
X203349828Y-86216774D01*
X203349793Y-86216765D01*
X203278624Y-86199433D01*
X203208829Y-86182435D01*
X203205704Y-86181702D01*
X203205331Y-86181617D01*
X203204294Y-86181388D01*
X203203112Y-86181128D01*
X203148292Y-86169348D01*
X203080456Y-86154772D01*
X203078379Y-86154307D01*
X202977150Y-86130731D01*
X202968792Y-86128474D01*
X202887297Y-86103385D01*
X202874212Y-86098535D01*
X202799786Y-86066076D01*
X202785656Y-86058802D01*
X202703352Y-86009511D01*
X202691381Y-86001355D01*
X202590069Y-85923293D01*
X202581324Y-85915886D01*
X202455162Y-85798601D01*
X202455180Y-85798581D01*
X202455145Y-85798522D01*
X202455112Y-85798497D01*
X202455084Y-85798528D01*
X202454759Y-85798226D01*
X202446506Y-85793037D01*
X202424832Y-85775746D01*
X200519019Y-83869933D01*
X200485534Y-83808610D01*
X200482700Y-83782252D01*
X200482700Y-82904900D01*
X200502385Y-82837861D01*
X200555189Y-82792106D01*
X200606700Y-82780900D01*
X200624052Y-82780900D01*
X200691091Y-82800585D01*
X200711733Y-82817219D01*
X201777892Y-83883377D01*
X201795754Y-83905969D01*
X201800135Y-83913074D01*
X201800139Y-83913079D01*
X201800141Y-83913082D01*
X201820366Y-83934838D01*
X201917683Y-84039519D01*
X201925090Y-84048264D01*
X202003158Y-84149585D01*
X202011314Y-84161557D01*
X202060596Y-84243846D01*
X202067875Y-84257985D01*
X202094440Y-84318895D01*
X202100333Y-84332405D01*
X202105184Y-84345493D01*
X202130272Y-84426986D01*
X202132529Y-84435344D01*
X202156102Y-84536561D01*
X202156567Y-84538636D01*
X202182922Y-84661287D01*
X202183398Y-84663443D01*
X202183489Y-84663849D01*
X202184238Y-84667040D01*
X202196857Y-84718856D01*
X202218565Y-84807993D01*
X202220062Y-84813778D01*
X202220227Y-84814380D01*
X202221739Y-84819626D01*
X202270670Y-84981423D01*
X202272013Y-84985607D01*
X202272829Y-84988149D01*
X202273083Y-84988896D01*
X202275348Y-84995226D01*
X202342128Y-85172704D01*
X202343333Y-85175828D01*
X202345798Y-85182069D01*
X202345339Y-85182250D01*
X202346375Y-85184798D01*
X202346468Y-85184760D01*
X202348797Y-85190383D01*
X202446638Y-85373431D01*
X202446642Y-85373438D01*
X202578316Y-85533883D01*
X202738761Y-85665557D01*
X202738768Y-85665561D01*
X202921808Y-85763398D01*
X202921809Y-85763398D01*
X202921816Y-85763402D01*
X203120439Y-85823653D01*
X203120438Y-85823653D01*
X203126764Y-85824276D01*
X203327000Y-85843998D01*
X203533561Y-85823653D01*
X203732184Y-85763402D01*
X203915237Y-85665558D01*
X204075683Y-85533883D01*
X204207358Y-85373437D01*
X204305202Y-85190384D01*
X204365453Y-84991761D01*
X204385798Y-84785200D01*
X204365453Y-84578639D01*
X204305202Y-84380016D01*
X204283181Y-84338817D01*
X204207361Y-84196968D01*
X204207357Y-84196961D01*
X204075683Y-84036516D01*
X203915238Y-83904842D01*
X203915231Y-83904838D01*
X203732183Y-83806997D01*
X203732181Y-83806996D01*
X203731091Y-83806666D01*
X203720208Y-83802366D01*
X203720173Y-83802462D01*
X203537026Y-83733548D01*
X203530695Y-83731282D01*
X203529947Y-83731028D01*
X203529938Y-83731025D01*
X203523224Y-83728871D01*
X203523200Y-83728863D01*
X203523179Y-83728857D01*
X203513222Y-83725846D01*
X203513220Y-83725845D01*
X203498556Y-83721410D01*
X203440832Y-83703953D01*
X203361405Y-83679932D01*
X203355985Y-83678374D01*
X203355968Y-83678369D01*
X203355382Y-83678209D01*
X203355385Y-83678209D01*
X203355342Y-83678198D01*
X203349836Y-83676776D01*
X203349828Y-83676774D01*
X203349793Y-83676765D01*
X203285024Y-83660991D01*
X203208829Y-83642435D01*
X203205704Y-83641702D01*
X203205331Y-83641617D01*
X203204294Y-83641388D01*
X203203112Y-83641128D01*
X203148292Y-83629348D01*
X203080456Y-83614772D01*
X203078379Y-83614307D01*
X202977150Y-83590731D01*
X202968792Y-83588474D01*
X202887297Y-83563385D01*
X202874212Y-83558535D01*
X202799786Y-83526076D01*
X202785656Y-83518802D01*
X202703352Y-83469511D01*
X202691381Y-83461355D01*
X202590069Y-83383293D01*
X202581324Y-83375886D01*
X202455162Y-83258601D01*
X202455180Y-83258581D01*
X202455144Y-83258521D01*
X202455100Y-83258487D01*
X202455073Y-83258518D01*
X202454753Y-83258221D01*
X202446505Y-83253035D01*
X202424828Y-83235743D01*
X201146036Y-81956950D01*
X201146028Y-81956944D01*
X201041672Y-81896695D01*
X201041667Y-81896692D01*
X200974031Y-81878569D01*
X200925258Y-81865500D01*
X200925257Y-81865500D01*
X200925256Y-81865500D01*
X199008288Y-81865500D01*
X198980063Y-81861049D01*
X198979856Y-81862001D01*
X198973893Y-81860701D01*
X198921992Y-81854631D01*
X198914080Y-81853446D01*
X198862020Y-81843921D01*
X198854378Y-81842272D01*
X198801483Y-81829102D01*
X198794183Y-81827046D01*
X198764742Y-81817771D01*
X198764726Y-81817766D01*
X198764455Y-81817681D01*
X198762233Y-81816981D01*
X198762228Y-81816979D01*
X198740303Y-81810072D01*
X198733416Y-81807678D01*
X198678399Y-81786715D01*
X198671943Y-81784044D01*
X198615729Y-81758914D01*
X198609730Y-81756037D01*
X198552263Y-81726552D01*
X198546730Y-81723533D01*
X198497585Y-81695074D01*
X198488044Y-81689548D01*
X198482972Y-81686447D01*
X198443680Y-81661099D01*
X198398017Y-81608215D01*
X198388194Y-81539040D01*
X198417329Y-81475535D01*
X198476173Y-81437862D01*
X198510901Y-81432900D01*
X198544535Y-81432900D01*
X198544537Y-81432900D01*
X198544538Y-81432900D01*
X198628646Y-81410364D01*
X198704055Y-81366826D01*
X198765626Y-81305255D01*
X198765626Y-81305253D01*
X198775830Y-81295050D01*
X198775833Y-81295045D01*
X200887661Y-79183219D01*
X200948984Y-79149734D01*
X200975342Y-79146900D01*
X201334587Y-79146900D01*
X201360211Y-79150127D01*
X201360219Y-79150080D01*
X201361965Y-79150348D01*
X201365338Y-79150773D01*
X201366226Y-79150999D01*
X201366241Y-79151005D01*
X201375329Y-79152400D01*
X201383638Y-79153969D01*
X201392037Y-79155855D01*
X201399973Y-79157916D01*
X201404535Y-79159263D01*
X201409444Y-79160714D01*
X201416954Y-79163196D01*
X201418942Y-79163924D01*
X201427703Y-79167133D01*
X201434719Y-79169949D01*
X201446854Y-79175254D01*
X201453342Y-79178317D01*
X201458744Y-79181062D01*
X201466860Y-79185186D01*
X201472816Y-79188420D01*
X201487798Y-79197094D01*
X201493235Y-79200432D01*
X201509585Y-79211057D01*
X201514523Y-79214438D01*
X201518144Y-79217048D01*
X201532151Y-79227144D01*
X201536608Y-79230512D01*
X201556768Y-79246471D01*
X201556655Y-79246613D01*
X201571327Y-79258521D01*
X201595733Y-79282927D01*
X201703984Y-79333405D01*
X201703985Y-79333406D01*
X201713484Y-79334656D01*
X201753312Y-79339900D01*
X201753319Y-79339900D01*
X202102681Y-79339900D01*
X202102688Y-79339900D01*
X202152014Y-79333406D01*
X202260267Y-79282927D01*
X202342496Y-79200697D01*
X202403815Y-79167215D01*
X202473507Y-79172199D01*
X202529441Y-79214070D01*
X202545039Y-79241668D01*
X202545891Y-79243763D01*
X202546879Y-79246271D01*
X202557467Y-79274020D01*
X202558318Y-79276319D01*
X202569321Y-79306961D01*
X202570024Y-79308974D01*
X202581293Y-79342211D01*
X202581870Y-79343957D01*
X202593401Y-79379853D01*
X202593943Y-79381585D01*
X202603468Y-79412799D01*
X202608793Y-79453265D01*
X202607703Y-79484859D01*
X202606853Y-79495693D01*
X202601583Y-79538622D01*
X202599135Y-79552233D01*
X202593340Y-79576573D01*
X202588875Y-79591236D01*
X202582615Y-79607998D01*
X202577128Y-79620532D01*
X202566314Y-79641936D01*
X202562101Y-79649593D01*
X202541459Y-79684161D01*
X202540169Y-79686272D01*
X202510234Y-79734203D01*
X202509042Y-79736133D01*
X202508856Y-79736438D01*
X202507577Y-79738566D01*
X202493803Y-79761796D01*
X202473069Y-79796763D01*
X202470466Y-79801281D01*
X202470180Y-79801792D01*
X202469893Y-79802321D01*
X202467656Y-79806437D01*
X202430932Y-79876105D01*
X202428123Y-79881631D01*
X202428112Y-79881653D01*
X202428058Y-79881764D01*
X202427780Y-79882330D01*
X202424968Y-79888312D01*
X202391086Y-79963485D01*
X202389561Y-79966952D01*
X202389437Y-79967242D01*
X202389435Y-79967247D01*
X202386841Y-79979811D01*
X202379966Y-80002179D01*
X202357839Y-80055600D01*
X202337091Y-80213198D01*
X202337091Y-80213201D01*
X202357838Y-80370795D01*
X202357840Y-80370800D01*
X202418667Y-80517652D01*
X202418668Y-80517654D01*
X202418669Y-80517655D01*
X202515436Y-80643764D01*
X202641545Y-80740531D01*
X202788403Y-80801361D01*
X202867201Y-80811735D01*
X202945999Y-80822109D01*
X202946000Y-80822109D01*
X202946001Y-80822109D01*
X202998532Y-80815193D01*
X203103597Y-80801361D01*
X203250455Y-80740531D01*
X203376564Y-80643764D01*
X203473331Y-80517655D01*
X203534161Y-80370797D01*
X203554909Y-80213200D01*
X203553585Y-80203147D01*
X203534161Y-80055604D01*
X203534159Y-80055600D01*
X203510997Y-79999679D01*
X203504741Y-79980143D01*
X203504664Y-79979811D01*
X203500871Y-79963394D01*
X203467046Y-79888348D01*
X203464250Y-79882396D01*
X203464233Y-79882362D01*
X203463941Y-79881764D01*
X203463873Y-79881631D01*
X203463532Y-79880959D01*
X203461098Y-79876167D01*
X203441433Y-79838862D01*
X203424322Y-79806401D01*
X203421903Y-79801944D01*
X203421617Y-79801432D01*
X203420888Y-79800166D01*
X203418926Y-79796757D01*
X203400345Y-79765422D01*
X203384422Y-79738570D01*
X203383384Y-79736848D01*
X203382841Y-79735946D01*
X203382635Y-79735611D01*
X203382211Y-79734927D01*
X203381780Y-79734230D01*
X203381746Y-79734177D01*
X203381654Y-79734027D01*
X203351825Y-79686269D01*
X203350533Y-79684154D01*
X203329903Y-79649606D01*
X203325702Y-79641974D01*
X203314852Y-79620498D01*
X203309386Y-79608011D01*
X203303117Y-79591226D01*
X203298656Y-79576573D01*
X203292860Y-79552225D01*
X203290414Y-79538622D01*
X203290384Y-79538375D01*
X203285142Y-79495678D01*
X203284294Y-79484867D01*
X203283254Y-79454688D01*
X203288889Y-79413229D01*
X203298308Y-79383273D01*
X203298841Y-79381625D01*
X203310715Y-79345758D01*
X203311314Y-79344001D01*
X203322915Y-79310802D01*
X203323665Y-79308719D01*
X203334955Y-79278211D01*
X203335799Y-79275998D01*
X203346707Y-79248260D01*
X203347712Y-79245786D01*
X203358150Y-79220902D01*
X203359342Y-79218156D01*
X203369195Y-79196238D01*
X203370659Y-79193103D01*
X203379789Y-79174246D01*
X203381548Y-79170758D01*
X203388348Y-79157798D01*
X203403635Y-79116085D01*
X203407675Y-79106362D01*
X203415206Y-79090214D01*
X203421700Y-79040888D01*
X203421700Y-78591512D01*
X203415206Y-78542186D01*
X203364727Y-78433933D01*
X203280267Y-78349473D01*
X203226961Y-78324616D01*
X203172015Y-78298994D01*
X203172014Y-78298993D01*
X203122698Y-78292501D01*
X203122693Y-78292500D01*
X203122688Y-78292500D01*
X202773312Y-78292500D01*
X202773306Y-78292500D01*
X202773301Y-78292501D01*
X202723985Y-78298993D01*
X202723984Y-78298994D01*
X202615732Y-78349473D01*
X202525681Y-78439525D01*
X202464358Y-78473010D01*
X202394666Y-78468026D01*
X202350319Y-78439525D01*
X202260267Y-78349473D01*
X202152015Y-78298994D01*
X202152014Y-78298993D01*
X202102698Y-78292501D01*
X202102693Y-78292500D01*
X202102688Y-78292500D01*
X201753312Y-78292500D01*
X201753306Y-78292500D01*
X201753301Y-78292501D01*
X201703985Y-78298993D01*
X201703984Y-78298994D01*
X201595734Y-78349471D01*
X201581587Y-78363619D01*
X201571357Y-78373847D01*
X201556929Y-78385478D01*
X201557086Y-78385676D01*
X201536615Y-78401880D01*
X201532164Y-78405243D01*
X201514532Y-78417953D01*
X201509593Y-78421335D01*
X201493229Y-78431970D01*
X201487788Y-78435310D01*
X201472846Y-78443961D01*
X201466887Y-78447197D01*
X201453331Y-78454085D01*
X201446828Y-78457155D01*
X201434713Y-78462451D01*
X201427692Y-78465268D01*
X201416976Y-78469193D01*
X201409465Y-78471676D01*
X201399975Y-78474480D01*
X201392002Y-78476550D01*
X201383646Y-78478426D01*
X201375312Y-78480000D01*
X201366242Y-78481393D01*
X201362864Y-78482190D01*
X201334405Y-78485500D01*
X200743460Y-78485500D01*
X200659353Y-78508036D01*
X200583945Y-78551574D01*
X200583942Y-78551576D01*
X200544018Y-78591501D01*
X200522374Y-78613145D01*
X200522372Y-78613147D01*
X199448313Y-79687207D01*
X198400339Y-80735181D01*
X198339016Y-80768666D01*
X198312658Y-80771500D01*
X196303598Y-80771500D01*
X196236559Y-80751815D01*
X196190804Y-80699011D01*
X196180860Y-80629853D01*
X196180893Y-80629623D01*
X196186700Y-80589769D01*
X196186699Y-80222632D01*
X196176683Y-80153881D01*
X196124839Y-80047831D01*
X196124837Y-80047829D01*
X196124837Y-80047828D01*
X196041371Y-79964362D01*
X196039771Y-79963580D01*
X195935319Y-79912517D01*
X195935316Y-79912516D01*
X195935314Y-79912516D01*
X195889306Y-79905812D01*
X195825806Y-79876667D01*
X195788143Y-79817817D01*
X195784365Y-79800166D01*
X195783996Y-79797512D01*
X195782615Y-79787567D01*
X195782614Y-79787565D01*
X195782614Y-79787562D01*
X195781525Y-79782666D01*
X195782414Y-79782468D01*
X195778200Y-79754553D01*
X195778200Y-79118444D01*
X195778037Y-79117836D01*
X195747008Y-79002035D01*
X195707649Y-78933863D01*
X195686751Y-78897665D01*
X195686749Y-78897663D01*
X195686748Y-78897661D01*
X195666606Y-78877519D01*
X195633121Y-78816196D01*
X195631769Y-78808949D01*
X195630893Y-78803333D01*
X195630817Y-78802839D01*
X195616171Y-78706398D01*
X195615432Y-78701861D01*
X195614227Y-78694959D01*
X195614985Y-78694826D01*
X195611700Y-78671242D01*
X195611700Y-78514559D01*
X195608984Y-78485604D01*
X195608984Y-78485600D01*
X195608982Y-78485596D01*
X195608982Y-78485592D01*
X195579296Y-78400757D01*
X195566301Y-78363619D01*
X195510051Y-78287404D01*
X195489560Y-78259639D01*
X195396801Y-78191180D01*
X195385581Y-78182899D01*
X195385579Y-78182898D01*
X195263607Y-78140217D01*
X195263595Y-78140215D01*
X195234640Y-78137500D01*
X195234636Y-78137500D01*
X194681364Y-78137500D01*
X194681360Y-78137500D01*
X194652404Y-78140215D01*
X194652392Y-78140217D01*
X194530420Y-78182898D01*
X194426439Y-78259639D01*
X194349698Y-78363620D01*
X194307017Y-78485592D01*
X194307015Y-78485604D01*
X194304300Y-78514559D01*
X194304300Y-79117840D01*
X194307015Y-79146795D01*
X194307017Y-79146807D01*
X194349698Y-79268779D01*
X194349699Y-79268781D01*
X194374449Y-79302316D01*
X194426439Y-79372760D01*
X194509374Y-79433969D01*
X194530419Y-79449501D01*
X194543270Y-79453997D01*
X194572992Y-79469152D01*
X194576303Y-79471448D01*
X194577371Y-79472189D01*
X194582109Y-79475645D01*
X194610409Y-79497328D01*
X194614682Y-79500756D01*
X194644189Y-79525513D01*
X194648032Y-79528874D01*
X194678692Y-79556828D01*
X194682144Y-79560099D01*
X194713800Y-79591266D01*
X194716885Y-79594413D01*
X194749442Y-79628834D01*
X194752164Y-79631808D01*
X194775996Y-79658739D01*
X194775997Y-79658739D01*
X194785572Y-79669559D01*
X194788055Y-79672454D01*
X194798012Y-79684430D01*
X194815768Y-79705786D01*
X194843491Y-79769920D01*
X194832140Y-79838862D01*
X194785318Y-79890722D01*
X194738298Y-79907765D01*
X194712804Y-79911479D01*
X194705680Y-79912517D01*
X194599628Y-79964362D01*
X194516162Y-80047828D01*
X194464317Y-80153881D01*
X194464315Y-80153886D01*
X194454300Y-80222630D01*
X194454300Y-80225458D01*
X194454027Y-80226385D01*
X194453975Y-80227111D01*
X194453817Y-80227099D01*
X194434615Y-80292497D01*
X194381811Y-80338252D01*
X194312653Y-80348196D01*
X194249097Y-80319171D01*
X194242619Y-80313139D01*
X194139696Y-80210216D01*
X194139694Y-80210213D01*
X194071057Y-80141576D01*
X194071055Y-80141574D01*
X193995646Y-80098036D01*
X193911538Y-80075500D01*
X193911537Y-80075500D01*
X193903688Y-80073397D01*
X193904261Y-80071255D01*
X193850940Y-80047664D01*
X193845517Y-80042796D01*
X193831681Y-80029621D01*
X193829549Y-80027541D01*
X193766369Y-79964361D01*
X193660319Y-79912517D01*
X193660317Y-79912516D01*
X193660313Y-79912515D01*
X193591569Y-79902500D01*
X192499436Y-79902500D01*
X192430680Y-79912517D01*
X192324628Y-79964362D01*
X192241162Y-80047828D01*
X192189317Y-80153881D01*
X192189315Y-80153886D01*
X192179300Y-80222630D01*
X192179300Y-80589763D01*
X192189317Y-80658519D01*
X192241162Y-80764571D01*
X192324628Y-80848037D01*
X192324629Y-80848037D01*
X192324631Y-80848039D01*
X192430681Y-80899883D01*
X192430684Y-80899883D01*
X192430686Y-80899884D01*
X192447264Y-80902299D01*
X192499431Y-80909900D01*
X193591568Y-80909899D01*
X193660319Y-80899883D01*
X193673841Y-80893272D01*
X193742711Y-80881513D01*
X193807009Y-80908856D01*
X193846317Y-80966620D01*
X193852300Y-81004673D01*
X193852300Y-81706699D01*
X193832615Y-81773738D01*
X193779811Y-81819493D01*
X193710653Y-81829437D01*
X193693281Y-81825651D01*
X193687999Y-81824096D01*
X193668562Y-81816547D01*
X193660319Y-81812517D01*
X193660317Y-81812516D01*
X193660313Y-81812515D01*
X193591569Y-81802500D01*
X192499436Y-81802500D01*
X192430673Y-81812518D01*
X192422285Y-81815109D01*
X192411217Y-81817976D01*
X192407238Y-81818813D01*
X192403049Y-81819693D01*
X192401064Y-81820094D01*
X192366388Y-81826787D01*
X192364356Y-81827161D01*
X192329814Y-81833233D01*
X192327761Y-81833577D01*
X192293180Y-81839059D01*
X192291110Y-81839369D01*
X192281575Y-81840716D01*
X192234273Y-81838262D01*
X192197485Y-81829103D01*
X192190183Y-81827046D01*
X192160742Y-81817771D01*
X192160726Y-81817766D01*
X192160455Y-81817681D01*
X192158233Y-81816981D01*
X192158228Y-81816979D01*
X192136303Y-81810072D01*
X192129416Y-81807678D01*
X192074399Y-81786715D01*
X192067943Y-81784044D01*
X192011729Y-81758914D01*
X192005730Y-81756037D01*
X191948263Y-81726552D01*
X191942730Y-81723533D01*
X191893585Y-81695074D01*
X191884044Y-81689548D01*
X191878971Y-81686446D01*
X191831840Y-81656040D01*
X191825429Y-81651612D01*
X191745402Y-81592550D01*
X191745395Y-81592546D01*
X191745392Y-81592545D01*
X191731881Y-81587817D01*
X191713413Y-81579608D01*
X191711363Y-81578488D01*
X191708818Y-81577466D01*
X191706276Y-81576446D01*
X191670291Y-81565644D01*
X191670289Y-81565644D01*
X191660938Y-81562837D01*
X191661060Y-81562427D01*
X191655525Y-81561099D01*
X191629223Y-81551895D01*
X191616299Y-81547373D01*
X191585657Y-81544500D01*
X190176353Y-81544500D01*
X190159539Y-81546076D01*
X190145699Y-81547374D01*
X190145697Y-81547374D01*
X190145693Y-81547375D01*
X190016606Y-81592545D01*
X189906563Y-81673761D01*
X189899993Y-81680331D01*
X189899109Y-81679447D01*
X189883217Y-81695074D01*
X189867663Y-81706162D01*
X189862969Y-81709349D01*
X189804065Y-81747401D01*
X189798929Y-81750545D01*
X189741271Y-81783941D01*
X189735669Y-81786996D01*
X189679251Y-81815905D01*
X189673174Y-81818813D01*
X189637038Y-81834915D01*
X189567791Y-81844221D01*
X189544459Y-81838282D01*
X189514329Y-81827404D01*
X189514317Y-81827399D01*
X189514287Y-81827389D01*
X189509522Y-81825734D01*
X189509118Y-81825599D01*
X189508969Y-81825549D01*
X189503990Y-81823956D01*
X189439763Y-81804302D01*
X189431416Y-81801936D01*
X189430530Y-81801705D01*
X189426802Y-81800812D01*
X189422281Y-81799730D01*
X189357275Y-81785550D01*
X189348281Y-81783588D01*
X189338802Y-81781749D01*
X189337747Y-81781570D01*
X189328311Y-81780187D01*
X189239190Y-81769208D01*
X189230254Y-81768303D01*
X189229276Y-81768225D01*
X189220488Y-81767713D01*
X189122797Y-81764090D01*
X189119085Y-81763985D01*
X189113254Y-81763870D01*
X189105576Y-81763291D01*
X189102999Y-81763291D01*
X188945403Y-81784039D01*
X188945402Y-81784039D01*
X188798544Y-81844869D01*
X188672436Y-81941636D01*
X188575669Y-82067744D01*
X188514839Y-82214602D01*
X188514838Y-82214604D01*
X188494091Y-82372198D01*
X188494091Y-82372201D01*
X188514838Y-82529795D01*
X188514840Y-82529800D01*
X188575667Y-82676652D01*
X188575668Y-82676654D01*
X188575669Y-82676655D01*
X188672436Y-82802764D01*
X188798545Y-82899531D01*
X188945403Y-82960361D01*
X189103000Y-82981109D01*
X189103000Y-82981108D01*
X189103001Y-82981109D01*
X189106896Y-82981109D01*
X189116753Y-82980765D01*
X189116745Y-82980534D01*
X189122837Y-82980307D01*
X189122838Y-82980308D01*
X189220465Y-82976687D01*
X189229439Y-82976160D01*
X189230435Y-82976080D01*
X189239242Y-82975184D01*
X189328279Y-82964216D01*
X189337763Y-82962826D01*
X189338827Y-82962645D01*
X189348306Y-82960806D01*
X189422269Y-82944672D01*
X189430550Y-82942688D01*
X189431480Y-82942445D01*
X189439790Y-82940089D01*
X189503943Y-82920457D01*
X189508870Y-82918882D01*
X189509419Y-82918699D01*
X189514291Y-82917008D01*
X189573868Y-82895499D01*
X189573872Y-82895497D01*
X189577285Y-82894265D01*
X189577289Y-82894263D01*
X189602732Y-82885077D01*
X189672472Y-82880826D01*
X189681969Y-82883397D01*
X189698823Y-82888686D01*
X189705708Y-82891071D01*
X189760742Y-82911977D01*
X189767138Y-82914616D01*
X189823386Y-82939694D01*
X189829341Y-82942543D01*
X189886850Y-82971983D01*
X189892371Y-82974990D01*
X189905930Y-82982826D01*
X189912393Y-82985506D01*
X189921408Y-82989674D01*
X189939294Y-82998830D01*
X189956423Y-83009437D01*
X190016605Y-83053854D01*
X190054511Y-83067118D01*
X190145697Y-83099026D01*
X190153694Y-83099775D01*
X190176347Y-83101900D01*
X191264570Y-83101899D01*
X191331609Y-83121584D01*
X191377364Y-83174387D01*
X191387308Y-83243546D01*
X191362947Y-83301384D01*
X191335181Y-83337569D01*
X191335180Y-83337571D01*
X191281908Y-83466181D01*
X191281907Y-83466183D01*
X191263738Y-83604198D01*
X191263738Y-83604201D01*
X191281907Y-83742216D01*
X191281908Y-83742218D01*
X191321168Y-83837000D01*
X191335182Y-83870831D01*
X191419927Y-83981273D01*
X191530369Y-84066018D01*
X191658982Y-84119292D01*
X191699134Y-84124578D01*
X191796999Y-84137462D01*
X191797000Y-84137462D01*
X191797001Y-84137462D01*
X191843006Y-84131405D01*
X191935018Y-84119292D01*
X192063631Y-84066018D01*
X192121514Y-84021603D01*
X192186683Y-83996409D01*
X192255128Y-84010447D01*
X192272486Y-84021603D01*
X192330368Y-84066017D01*
X192330371Y-84066019D01*
X192398671Y-84094310D01*
X192453074Y-84138151D01*
X192475139Y-84204445D01*
X192474157Y-84225056D01*
X192463738Y-84304198D01*
X192463738Y-84304201D01*
X192481907Y-84442216D01*
X192481908Y-84442218D01*
X192532611Y-84564626D01*
X192535182Y-84570831D01*
X192619927Y-84681273D01*
X192730369Y-84766018D01*
X192858982Y-84819292D01*
X192927991Y-84828377D01*
X192996999Y-84837462D01*
X192997000Y-84837462D01*
X192997001Y-84837462D01*
X193043006Y-84831405D01*
X193135018Y-84819292D01*
X193263631Y-84766018D01*
X193263634Y-84766015D01*
X193270666Y-84761956D01*
X193272461Y-84765066D01*
X193322065Y-84745677D01*
X193390562Y-84759461D01*
X193440733Y-84808088D01*
X193456279Y-84857410D01*
X193459165Y-84887605D01*
X193459684Y-84896110D01*
X193461071Y-84948348D01*
X193461072Y-84948356D01*
X193463410Y-84958994D01*
X193466300Y-84985607D01*
X193466300Y-85525536D01*
X193467416Y-85529700D01*
X193488836Y-85609643D01*
X193532374Y-85685052D01*
X193532376Y-85685054D01*
X193601010Y-85753688D01*
X193601016Y-85753693D01*
X193946916Y-86099593D01*
X193980401Y-86160916D01*
X193975417Y-86230608D01*
X193933545Y-86286541D01*
X193891330Y-86307049D01*
X193867686Y-86313384D01*
X193836158Y-86321832D01*
X193836157Y-86321832D01*
X193836155Y-86321833D01*
X193760749Y-86365370D01*
X193760746Y-86365372D01*
X192978576Y-87147542D01*
X192978574Y-87147545D01*
X192935036Y-87222953D01*
X192912500Y-87307060D01*
X192912500Y-87728581D01*
X192892815Y-87795620D01*
X192840011Y-87841375D01*
X192838589Y-87842014D01*
X192833396Y-87844307D01*
X192753107Y-87924596D01*
X192707246Y-88028460D01*
X192707246Y-88028462D01*
X192704300Y-88053853D01*
X192704300Y-88344537D01*
X192704302Y-88344560D01*
X192707245Y-88369934D01*
X192707246Y-88369937D01*
X192753244Y-88474113D01*
X192762316Y-88543391D01*
X192753245Y-88574285D01*
X192753108Y-88574594D01*
X192753108Y-88574595D01*
X192729433Y-88628215D01*
X192707246Y-88678463D01*
X192704300Y-88703853D01*
X192704300Y-88994537D01*
X192704302Y-88994560D01*
X192707245Y-89019934D01*
X192707246Y-89019937D01*
X192753244Y-89124113D01*
X192762316Y-89193391D01*
X192753245Y-89224285D01*
X192707246Y-89328463D01*
X192704300Y-89353853D01*
X192704300Y-89644537D01*
X192704302Y-89644560D01*
X192707245Y-89669934D01*
X192707246Y-89669937D01*
X192753107Y-89773804D01*
X192753108Y-89773805D01*
X192833395Y-89854092D01*
X192937263Y-89899954D01*
X192962655Y-89902900D01*
X193476300Y-89902899D01*
X193543339Y-89922583D01*
X193589094Y-89975387D01*
X193600300Y-90026899D01*
X193600300Y-92248320D01*
X193622836Y-92332428D01*
X193666374Y-92407837D01*
X193666376Y-92407839D01*
X193735010Y-92476473D01*
X193735016Y-92476478D01*
X195892451Y-94633913D01*
X195892461Y-94633924D01*
X195896791Y-94638254D01*
X195896792Y-94638255D01*
X195958363Y-94699826D01*
X196025588Y-94738639D01*
X196033772Y-94743364D01*
X196033773Y-94743364D01*
X196033773Y-94743365D01*
X196085245Y-94757155D01*
X196117880Y-94765900D01*
X196204955Y-94765900D01*
X198014620Y-94765900D01*
X198081659Y-94785585D01*
X198127414Y-94838389D01*
X198135705Y-94863169D01*
X198136360Y-94866136D01*
X198136363Y-94866150D01*
X198140825Y-94886376D01*
X198141750Y-94890374D01*
X198141888Y-94890941D01*
X198143178Y-94895992D01*
X198159985Y-94958490D01*
X198162367Y-94966674D01*
X198162652Y-94967583D01*
X198165135Y-94974984D01*
X198165277Y-94975406D01*
X198165417Y-94975797D01*
X198184822Y-95030048D01*
X198186507Y-95034589D01*
X198186707Y-95035108D01*
X198186709Y-95035112D01*
X198193501Y-95045577D01*
X198204049Y-95065630D01*
X198209192Y-95078046D01*
X198216661Y-95147516D01*
X198185387Y-95209995D01*
X198125298Y-95245648D01*
X198094631Y-95249500D01*
X191830258Y-95249500D01*
X191709743Y-95249500D01*
X191593334Y-95280692D01*
X191593332Y-95280692D01*
X191593332Y-95280693D01*
X191488966Y-95340949D01*
X191488963Y-95340951D01*
X188098510Y-98731402D01*
X188075851Y-98749306D01*
X188068818Y-98753636D01*
X188068816Y-98753638D01*
X188006666Y-98811342D01*
X187998599Y-98818214D01*
X187950387Y-98855850D01*
X187941062Y-98862461D01*
X187900916Y-98888228D01*
X187892125Y-98893373D01*
X187851554Y-98914932D01*
X187846062Y-98917678D01*
X187795932Y-98941212D01*
X187795931Y-98941213D01*
X187738532Y-98968158D01*
X187733917Y-98970395D01*
X187733462Y-98970623D01*
X187728865Y-98972992D01*
X187669589Y-99004491D01*
X187662174Y-99008627D01*
X187661378Y-99009092D01*
X187657823Y-99011271D01*
X187653963Y-99013638D01*
X187631058Y-99028340D01*
X187590234Y-99054543D01*
X187582334Y-99059871D01*
X187581502Y-99060461D01*
X187573704Y-99066261D01*
X187535968Y-99095720D01*
X187502936Y-99121506D01*
X187495864Y-99127280D01*
X187495853Y-99127289D01*
X187495140Y-99127897D01*
X187488631Y-99133692D01*
X187417044Y-99200160D01*
X187413892Y-99203147D01*
X187410457Y-99206468D01*
X187404256Y-99211814D01*
X187402436Y-99213634D01*
X187305669Y-99339744D01*
X187244839Y-99486602D01*
X187244838Y-99486604D01*
X187224091Y-99644198D01*
X182626000Y-99644198D01*
X182626000Y-97515200D01*
X183853202Y-97515200D01*
X183873546Y-97721759D01*
X183873547Y-97721761D01*
X183933798Y-97920384D01*
X183933799Y-97920387D01*
X183933800Y-97920388D01*
X183933801Y-97920391D01*
X184031638Y-98103431D01*
X184031642Y-98103438D01*
X184163316Y-98263883D01*
X184323761Y-98395557D01*
X184323768Y-98395561D01*
X184506808Y-98493398D01*
X184506809Y-98493398D01*
X184506816Y-98493402D01*
X184705439Y-98553653D01*
X184705438Y-98553653D01*
X184723958Y-98555477D01*
X184912000Y-98573998D01*
X185118561Y-98553653D01*
X185317184Y-98493402D01*
X185500237Y-98395558D01*
X185660683Y-98263883D01*
X185792358Y-98103437D01*
X185890202Y-97920384D01*
X185950453Y-97721761D01*
X185970798Y-97515200D01*
X185950453Y-97308639D01*
X185890202Y-97110016D01*
X185874164Y-97080011D01*
X185792361Y-96926968D01*
X185792357Y-96926961D01*
X185660683Y-96766516D01*
X185500238Y-96634842D01*
X185500231Y-96634838D01*
X185317191Y-96537001D01*
X185317188Y-96537000D01*
X185317187Y-96536999D01*
X185317184Y-96536998D01*
X185118561Y-96476747D01*
X185118559Y-96476746D01*
X185118561Y-96476746D01*
X184912000Y-96456402D01*
X184705440Y-96476746D01*
X184588165Y-96512321D01*
X184506816Y-96536998D01*
X184506813Y-96536999D01*
X184506811Y-96537000D01*
X184506808Y-96537001D01*
X184323768Y-96634838D01*
X184323761Y-96634842D01*
X184163316Y-96766516D01*
X184031642Y-96926961D01*
X184031638Y-96926968D01*
X183933801Y-97110008D01*
X183933800Y-97110011D01*
X183933799Y-97110013D01*
X183933798Y-97110016D01*
X183914254Y-97174445D01*
X183873546Y-97308640D01*
X183853202Y-97515200D01*
X182626000Y-97515200D01*
X182626000Y-94975200D01*
X183853202Y-94975200D01*
X183873546Y-95181759D01*
X183888124Y-95229815D01*
X183933798Y-95380384D01*
X183933799Y-95380387D01*
X183933800Y-95380388D01*
X183933801Y-95380391D01*
X184031638Y-95563431D01*
X184031642Y-95563438D01*
X184163316Y-95723883D01*
X184323761Y-95855557D01*
X184323768Y-95855561D01*
X184506808Y-95953398D01*
X184506809Y-95953398D01*
X184506816Y-95953402D01*
X184705439Y-96013653D01*
X184705438Y-96013653D01*
X184723958Y-96015477D01*
X184912000Y-96033998D01*
X185118561Y-96013653D01*
X185317184Y-95953402D01*
X185500237Y-95855558D01*
X185660683Y-95723883D01*
X185792358Y-95563437D01*
X185890202Y-95380384D01*
X185950453Y-95181761D01*
X185970798Y-94975200D01*
X185950453Y-94768639D01*
X185890202Y-94570016D01*
X185874164Y-94540011D01*
X185792361Y-94386968D01*
X185792357Y-94386961D01*
X185660683Y-94226516D01*
X185500238Y-94094842D01*
X185500231Y-94094838D01*
X185317191Y-93997001D01*
X185317188Y-93997000D01*
X185317187Y-93996999D01*
X185317184Y-93996998D01*
X185118561Y-93936747D01*
X185118559Y-93936746D01*
X185118561Y-93936746D01*
X184912000Y-93916402D01*
X184705440Y-93936746D01*
X184605707Y-93967000D01*
X184506816Y-93996998D01*
X184506813Y-93996999D01*
X184506811Y-93997000D01*
X184506808Y-93997001D01*
X184323768Y-94094838D01*
X184323761Y-94094842D01*
X184163316Y-94226516D01*
X184031642Y-94386961D01*
X184031638Y-94386968D01*
X183933801Y-94570008D01*
X183933800Y-94570011D01*
X183873546Y-94768640D01*
X183853202Y-94975200D01*
X182626000Y-94975200D01*
X182626000Y-92435200D01*
X183853202Y-92435200D01*
X183873546Y-92641759D01*
X183873547Y-92641761D01*
X183933798Y-92840384D01*
X183933799Y-92840387D01*
X183933800Y-92840388D01*
X183933801Y-92840391D01*
X184031638Y-93023431D01*
X184031642Y-93023438D01*
X184163316Y-93183883D01*
X184323761Y-93315557D01*
X184323768Y-93315561D01*
X184506808Y-93413398D01*
X184506809Y-93413398D01*
X184506816Y-93413402D01*
X184705439Y-93473653D01*
X184705438Y-93473653D01*
X184723958Y-93475477D01*
X184912000Y-93493998D01*
X185118561Y-93473653D01*
X185317184Y-93413402D01*
X185500237Y-93315558D01*
X185660683Y-93183883D01*
X185792358Y-93023437D01*
X185890202Y-92840384D01*
X185950453Y-92641761D01*
X185970798Y-92435200D01*
X185950453Y-92228639D01*
X185890202Y-92030016D01*
X185874164Y-92000011D01*
X185792361Y-91846968D01*
X185792357Y-91846961D01*
X185660683Y-91686516D01*
X185500238Y-91554842D01*
X185500231Y-91554838D01*
X185317191Y-91457001D01*
X185317188Y-91457000D01*
X185317187Y-91456999D01*
X185317184Y-91456998D01*
X185118561Y-91396747D01*
X185118559Y-91396746D01*
X185118561Y-91396746D01*
X184912000Y-91376402D01*
X184705440Y-91396746D01*
X184605707Y-91427000D01*
X184506816Y-91456998D01*
X184506813Y-91456999D01*
X184506811Y-91457000D01*
X184506808Y-91457001D01*
X184323768Y-91554838D01*
X184323761Y-91554842D01*
X184163316Y-91686516D01*
X184031642Y-91846961D01*
X184031638Y-91846968D01*
X183933801Y-92030008D01*
X183933800Y-92030011D01*
X183873546Y-92228640D01*
X183853202Y-92435200D01*
X182626000Y-92435200D01*
X182626000Y-89895200D01*
X183853202Y-89895200D01*
X183873546Y-90101759D01*
X183873547Y-90101761D01*
X183933798Y-90300384D01*
X183933799Y-90300387D01*
X183933800Y-90300388D01*
X183933801Y-90300391D01*
X184031638Y-90483431D01*
X184031642Y-90483438D01*
X184163316Y-90643883D01*
X184323761Y-90775557D01*
X184323768Y-90775561D01*
X184506808Y-90873398D01*
X184506809Y-90873398D01*
X184506816Y-90873402D01*
X184705439Y-90933653D01*
X184705438Y-90933653D01*
X184723958Y-90935477D01*
X184912000Y-90953998D01*
X185118561Y-90933653D01*
X185317184Y-90873402D01*
X185500237Y-90775558D01*
X185660683Y-90643883D01*
X185792358Y-90483437D01*
X185890202Y-90300384D01*
X185950453Y-90101761D01*
X185970798Y-89895200D01*
X185950453Y-89688639D01*
X185890202Y-89490016D01*
X185874164Y-89460011D01*
X185792361Y-89306968D01*
X185792357Y-89306961D01*
X185660683Y-89146516D01*
X185500238Y-89014842D01*
X185500231Y-89014838D01*
X185317191Y-88917001D01*
X185317188Y-88917000D01*
X185317187Y-88916999D01*
X185317184Y-88916998D01*
X185118561Y-88856747D01*
X185118559Y-88856746D01*
X185118561Y-88856746D01*
X184912000Y-88836402D01*
X184705440Y-88856746D01*
X184605707Y-88887000D01*
X184506816Y-88916998D01*
X184506813Y-88916999D01*
X184506811Y-88917000D01*
X184506808Y-88917001D01*
X184323768Y-89014838D01*
X184323761Y-89014842D01*
X184163316Y-89146516D01*
X184031642Y-89306961D01*
X184031638Y-89306968D01*
X183933801Y-89490008D01*
X183933800Y-89490011D01*
X183873546Y-89688640D01*
X183853202Y-89895200D01*
X182626000Y-89895200D01*
X182626000Y-87355200D01*
X183853202Y-87355200D01*
X183873546Y-87561759D01*
X183881637Y-87588430D01*
X183933798Y-87760384D01*
X183933799Y-87760387D01*
X183933800Y-87760388D01*
X183933801Y-87760391D01*
X184031638Y-87943431D01*
X184031642Y-87943438D01*
X184163316Y-88103883D01*
X184323761Y-88235557D01*
X184323768Y-88235561D01*
X184506808Y-88333398D01*
X184506809Y-88333398D01*
X184506816Y-88333402D01*
X184705439Y-88393653D01*
X184705438Y-88393653D01*
X184723958Y-88395477D01*
X184912000Y-88413998D01*
X185118561Y-88393653D01*
X185317184Y-88333402D01*
X185500237Y-88235558D01*
X185660683Y-88103883D01*
X185792358Y-87943437D01*
X185890202Y-87760384D01*
X185950453Y-87561761D01*
X185970798Y-87355200D01*
X185950453Y-87148639D01*
X185890202Y-86950016D01*
X185890198Y-86950008D01*
X185792361Y-86766968D01*
X185792357Y-86766961D01*
X185660683Y-86606516D01*
X185500238Y-86474842D01*
X185500231Y-86474838D01*
X185317191Y-86377001D01*
X185317188Y-86377000D01*
X185317187Y-86376999D01*
X185317184Y-86376998D01*
X185118561Y-86316747D01*
X185118559Y-86316746D01*
X185118561Y-86316746D01*
X184912000Y-86296402D01*
X184705440Y-86316746D01*
X184602173Y-86348072D01*
X184506816Y-86376998D01*
X184506813Y-86376999D01*
X184506811Y-86377000D01*
X184506808Y-86377001D01*
X184323768Y-86474838D01*
X184323761Y-86474842D01*
X184163316Y-86606516D01*
X184031642Y-86766961D01*
X184031638Y-86766968D01*
X183933801Y-86950008D01*
X183933800Y-86950011D01*
X183933799Y-86950013D01*
X183933798Y-86950016D01*
X183917945Y-87002277D01*
X183873546Y-87148640D01*
X183853202Y-87355200D01*
X182626000Y-87355200D01*
X182626000Y-84815200D01*
X183853202Y-84815200D01*
X183873546Y-85021759D01*
X183876036Y-85029966D01*
X183933798Y-85220384D01*
X183933799Y-85220387D01*
X183933800Y-85220388D01*
X183933801Y-85220391D01*
X184031638Y-85403431D01*
X184031642Y-85403438D01*
X184163316Y-85563883D01*
X184323761Y-85695557D01*
X184323768Y-85695561D01*
X184506808Y-85793398D01*
X184506809Y-85793398D01*
X184506816Y-85793402D01*
X184705439Y-85853653D01*
X184705438Y-85853653D01*
X184723958Y-85855477D01*
X184912000Y-85873998D01*
X185118561Y-85853653D01*
X185317184Y-85793402D01*
X185500237Y-85695558D01*
X185660683Y-85563883D01*
X185792358Y-85403437D01*
X185890202Y-85220384D01*
X185950453Y-85021761D01*
X185964570Y-84878434D01*
X189871500Y-84878434D01*
X189871500Y-85029965D01*
X189910719Y-85176336D01*
X189936151Y-85220384D01*
X189986485Y-85307565D01*
X190093635Y-85414715D01*
X190224865Y-85490481D01*
X190371234Y-85529700D01*
X190371236Y-85529700D01*
X190822764Y-85529700D01*
X190822766Y-85529700D01*
X190969135Y-85490481D01*
X191100365Y-85414715D01*
X191207515Y-85307565D01*
X191283281Y-85176335D01*
X191322500Y-85029966D01*
X191322500Y-84878434D01*
X191283281Y-84732065D01*
X191207515Y-84600835D01*
X191100365Y-84493685D01*
X191011222Y-84442218D01*
X190969136Y-84417919D01*
X190827677Y-84380016D01*
X190822766Y-84378700D01*
X190371234Y-84378700D01*
X190224863Y-84417919D01*
X190093635Y-84493685D01*
X190093632Y-84493687D01*
X189986487Y-84600832D01*
X189986485Y-84600835D01*
X189910719Y-84732063D01*
X189871500Y-84878434D01*
X185964570Y-84878434D01*
X185970798Y-84815200D01*
X185950453Y-84608639D01*
X185890202Y-84410016D01*
X185889507Y-84408715D01*
X185792361Y-84226968D01*
X185792357Y-84226961D01*
X185660683Y-84066516D01*
X185500238Y-83934842D01*
X185500231Y-83934838D01*
X185317191Y-83837001D01*
X185317188Y-83837000D01*
X185317187Y-83836999D01*
X185317184Y-83836998D01*
X185118561Y-83776747D01*
X185118559Y-83776746D01*
X185118561Y-83776746D01*
X184912000Y-83756402D01*
X184705440Y-83776746D01*
X184588165Y-83812321D01*
X184506816Y-83836998D01*
X184506813Y-83836999D01*
X184506811Y-83837000D01*
X184506808Y-83837001D01*
X184323768Y-83934838D01*
X184323761Y-83934842D01*
X184163316Y-84066516D01*
X184031642Y-84226961D01*
X184031638Y-84226968D01*
X183933801Y-84410008D01*
X183933800Y-84410011D01*
X183933799Y-84410013D01*
X183933798Y-84410016D01*
X183912256Y-84481030D01*
X183873546Y-84608640D01*
X183853202Y-84815200D01*
X182626000Y-84815200D01*
X182626000Y-83145266D01*
X183858299Y-83145266D01*
X183870117Y-83204676D01*
X183870118Y-83204679D01*
X183870119Y-83204680D01*
X183915140Y-83272060D01*
X183982520Y-83317081D01*
X183982523Y-83317082D01*
X184041933Y-83328900D01*
X184041936Y-83328900D01*
X185782066Y-83328900D01*
X185841476Y-83317082D01*
X185841477Y-83317081D01*
X185841480Y-83317081D01*
X185908860Y-83272060D01*
X185953881Y-83204680D01*
X185955219Y-83197953D01*
X185965700Y-83145266D01*
X185965700Y-81405133D01*
X185953882Y-81345723D01*
X185953881Y-81345720D01*
X185908860Y-81278340D01*
X185841480Y-81233319D01*
X185841479Y-81233318D01*
X185841476Y-81233317D01*
X185782066Y-81221500D01*
X185782064Y-81221500D01*
X184041936Y-81221500D01*
X184041934Y-81221500D01*
X183982523Y-81233317D01*
X183982520Y-81233318D01*
X183915140Y-81278340D01*
X183870118Y-81345720D01*
X183870117Y-81345723D01*
X183858300Y-81405133D01*
X183858300Y-81405136D01*
X183858300Y-83145264D01*
X183858300Y-83145266D01*
X183858299Y-83145266D01*
X182626000Y-83145266D01*
X182626000Y-77674569D01*
X182626029Y-77671869D01*
X182627700Y-77595145D01*
X182628209Y-77571778D01*
X182630064Y-77552952D01*
X182640884Y-77491590D01*
X182665047Y-77354552D01*
X182670638Y-77333686D01*
X182739084Y-77145633D01*
X182748212Y-77126060D01*
X182848269Y-76952755D01*
X182860653Y-76935068D01*
X182989291Y-76781762D01*
X183004562Y-76766491D01*
X183157868Y-76637853D01*
X183175555Y-76625469D01*
X183348860Y-76525412D01*
X183368433Y-76516284D01*
X183556486Y-76447838D01*
X183577352Y-76442247D01*
X183775758Y-76407263D01*
X183794578Y-76405409D01*
X183888845Y-76403355D01*
X183894670Y-76403229D01*
X183897370Y-76403200D01*
X187192957Y-76403200D01*
X187259996Y-76422885D01*
G37*
%TD.AperFunction*%
%TD*%
%TA.AperFunction,Conductor*%
%TO.N,Net-(D2-A)*%
G36*
X185668976Y-79417025D02*
G01*
X185672396Y-79424888D01*
X185675275Y-79507060D01*
X185684736Y-79582903D01*
X185699778Y-79645121D01*
X185699825Y-79645315D01*
X185719990Y-79698521D01*
X185719993Y-79698528D01*
X185719994Y-79698529D01*
X185744676Y-79746727D01*
X185773316Y-79794119D01*
X185805336Y-79844880D01*
X185805484Y-79845122D01*
X185840165Y-79903179D01*
X185840461Y-79903703D01*
X185877393Y-79973441D01*
X185877717Y-79974103D01*
X185911596Y-80049149D01*
X185911876Y-80058099D01*
X185905746Y-80064627D01*
X185905434Y-80064762D01*
X185551502Y-80212323D01*
X185542548Y-80212344D01*
X185542498Y-80212323D01*
X185188552Y-80064756D01*
X185182234Y-80058409D01*
X185182255Y-80049455D01*
X185182349Y-80049237D01*
X185216113Y-79974220D01*
X185216420Y-79973591D01*
X185216499Y-79973441D01*
X185253023Y-79903874D01*
X185253282Y-79903409D01*
X185287580Y-79845193D01*
X185287662Y-79845058D01*
X185319142Y-79794222D01*
X185347221Y-79746707D01*
X185371339Y-79698404D01*
X185390987Y-79645128D01*
X185405653Y-79582692D01*
X185414828Y-79506911D01*
X185417616Y-79424901D01*
X185421322Y-79416749D01*
X185429309Y-79413598D01*
X185660703Y-79413598D01*
X185668976Y-79417025D01*
G37*
%TD.AperFunction*%
%TD*%
%TA.AperFunction,Conductor*%
%TO.N,/P3.3*%
G36*
X204447136Y-96201173D02*
G01*
X204611026Y-96365063D01*
X204614453Y-96373336D01*
X204611441Y-96381172D01*
X204481627Y-96525105D01*
X204387262Y-96661768D01*
X204387261Y-96661770D01*
X204326933Y-96788004D01*
X204326931Y-96788010D01*
X204291758Y-96908963D01*
X204272874Y-97029746D01*
X204272873Y-97029750D01*
X204261406Y-97155491D01*
X204261401Y-97155536D01*
X204248518Y-97290964D01*
X204248435Y-97291636D01*
X204225320Y-97441814D01*
X204225113Y-97442847D01*
X204182944Y-97613106D01*
X204182601Y-97614239D01*
X204116435Y-97798929D01*
X204110419Y-97805562D01*
X204101475Y-97805997D01*
X204100955Y-97805797D01*
X203330785Y-97487762D01*
X203324447Y-97481438D01*
X203006402Y-96711242D01*
X203006411Y-96702288D01*
X203012750Y-96695963D01*
X203013243Y-96695773D01*
X203197957Y-96629596D01*
X203199077Y-96629257D01*
X203369368Y-96587080D01*
X203370366Y-96586880D01*
X203520594Y-96563757D01*
X203521198Y-96563683D01*
X203656661Y-96550796D01*
X203656708Y-96550810D01*
X203656707Y-96550792D01*
X203782450Y-96539325D01*
X203903236Y-96520440D01*
X204024189Y-96485267D01*
X204150432Y-96424936D01*
X204287087Y-96330575D01*
X204431027Y-96200757D01*
X204439466Y-96197762D01*
X204447136Y-96201173D01*
G37*
%TD.AperFunction*%
%TD*%
%TA.AperFunction,Conductor*%
%TO.N,/RST*%
G36*
X187842898Y-104349427D02*
G01*
X188088115Y-104573814D01*
X188091906Y-104581928D01*
X188090611Y-104587818D01*
X188081445Y-104605552D01*
X188068186Y-104633354D01*
X188054898Y-104663358D01*
X188041636Y-104695451D01*
X188028362Y-104729716D01*
X188015097Y-104766101D01*
X188001804Y-104804713D01*
X187988548Y-104845358D01*
X187975279Y-104888189D01*
X187964475Y-104924811D01*
X187958847Y-104931776D01*
X187953253Y-104933200D01*
X187716747Y-104933200D01*
X187708474Y-104929773D01*
X187705525Y-104924811D01*
X187704491Y-104921308D01*
X187694727Y-104888213D01*
X187681455Y-104845372D01*
X187668182Y-104804676D01*
X187654910Y-104766124D01*
X187641638Y-104729718D01*
X187628365Y-104695457D01*
X187615093Y-104663340D01*
X187601820Y-104633369D01*
X187594592Y-104618215D01*
X187588553Y-104605552D01*
X187579388Y-104587819D01*
X187578634Y-104578896D01*
X187581884Y-104573815D01*
X187827102Y-104349427D01*
X187835518Y-104346370D01*
X187842898Y-104349427D01*
G37*
%TD.AperFunction*%
%TD*%
%TA.AperFunction,Conductor*%
%TO.N,Net-(U3-BP)*%
G36*
X195404770Y-78729765D02*
G01*
X195409746Y-78737210D01*
X195409838Y-78737737D01*
X195424646Y-78835245D01*
X195441296Y-78941944D01*
X195457946Y-79045703D01*
X195474605Y-79146577D01*
X195491245Y-79244401D01*
X195507894Y-79339338D01*
X195513453Y-79370052D01*
X195524550Y-79431370D01*
X195527411Y-79446676D01*
X195541207Y-79520466D01*
X195557842Y-79606513D01*
X195571698Y-79675735D01*
X195569962Y-79684519D01*
X195562522Y-79689503D01*
X195560226Y-79689731D01*
X195072389Y-79689731D01*
X195064116Y-79686304D01*
X195062992Y-79685001D01*
X195026083Y-79635239D01*
X194985682Y-79583709D01*
X194945255Y-79535085D01*
X194932286Y-79520430D01*
X194904841Y-79489417D01*
X194864426Y-79446689D01*
X194864413Y-79446676D01*
X194824026Y-79406913D01*
X194783589Y-79370045D01*
X194743182Y-79336142D01*
X194702763Y-79305172D01*
X194702760Y-79305170D01*
X194671617Y-79283572D01*
X194666772Y-79276042D01*
X194668430Y-79267651D01*
X194955316Y-78819393D01*
X194962660Y-78814274D01*
X194962818Y-78814240D01*
X195395989Y-78728019D01*
X195404770Y-78729765D01*
G37*
%TD.AperFunction*%
%TD*%
%TA.AperFunction,Conductor*%
%TO.N,/UD_N*%
G36*
X195198898Y-87733643D02*
G01*
X195201562Y-87737761D01*
X195207577Y-87753593D01*
X195220039Y-87785297D01*
X195232478Y-87815852D01*
X195244920Y-87845315D01*
X195257369Y-87873702D01*
X195269838Y-87901037D01*
X195282258Y-87927171D01*
X195294726Y-87952310D01*
X195307159Y-87976285D01*
X195315601Y-87991822D01*
X195316540Y-88000728D01*
X195313905Y-88005359D01*
X195141685Y-88191293D01*
X195133549Y-88195033D01*
X195125152Y-88191926D01*
X194930202Y-88010070D01*
X194926490Y-88001921D01*
X194929628Y-87993534D01*
X194931852Y-87991676D01*
X194937946Y-87987755D01*
X194947645Y-87980476D01*
X194957344Y-87972159D01*
X194967043Y-87962804D01*
X194976741Y-87952411D01*
X194986440Y-87940980D01*
X194996139Y-87928511D01*
X195005838Y-87915004D01*
X195014899Y-87901415D01*
X195016350Y-87899645D01*
X195182353Y-87733642D01*
X195190625Y-87730216D01*
X195198898Y-87733643D01*
G37*
%TD.AperFunction*%
%TD*%
%TA.AperFunction,Conductor*%
%TO.N,+5V*%
G36*
X197117052Y-100303882D02*
G01*
X197460317Y-100647147D01*
X197463744Y-100655420D01*
X197460618Y-100663381D01*
X197393239Y-100735949D01*
X197337385Y-100807498D01*
X197295953Y-100872049D01*
X197295948Y-100872058D01*
X197264110Y-100931974D01*
X197237066Y-100989580D01*
X197210149Y-101046916D01*
X197209890Y-101047434D01*
X197178409Y-101106677D01*
X197177923Y-101107507D01*
X197137036Y-101171209D01*
X197136413Y-101172089D01*
X197081197Y-101242819D01*
X197080548Y-101243580D01*
X197014083Y-101315167D01*
X197005943Y-101318898D01*
X196997548Y-101315780D01*
X196997257Y-101315500D01*
X196996922Y-101315167D01*
X196722293Y-101041907D01*
X196448698Y-100766941D01*
X196445293Y-100758661D01*
X196448741Y-100750396D01*
X196449013Y-100750133D01*
X196520635Y-100683633D01*
X196521359Y-100683015D01*
X196592120Y-100627776D01*
X196592977Y-100627169D01*
X196656694Y-100586272D01*
X196657520Y-100585789D01*
X196716796Y-100554290D01*
X196717248Y-100554064D01*
X196774618Y-100527132D01*
X196832217Y-100500092D01*
X196892139Y-100468251D01*
X196956707Y-100426808D01*
X197028247Y-100370961D01*
X197100818Y-100303580D01*
X197109213Y-100300463D01*
X197117052Y-100303882D01*
G37*
%TD.AperFunction*%
%TD*%
%TA.AperFunction,Conductor*%
%TO.N,+5V*%
G36*
X203006205Y-91630714D02*
G01*
X203006353Y-91631055D01*
X203326134Y-92400711D01*
X203326143Y-92409666D01*
X203326134Y-92409689D01*
X203006353Y-93179344D01*
X203000014Y-93185669D01*
X202991059Y-93185660D01*
X202990718Y-93185512D01*
X202818033Y-93107251D01*
X202817339Y-93106908D01*
X202668344Y-93027106D01*
X202667787Y-93026788D01*
X202543943Y-92951451D01*
X202543674Y-92951282D01*
X202435927Y-92881650D01*
X202335395Y-92819097D01*
X202284282Y-92792048D01*
X202233170Y-92765000D01*
X202120241Y-92720661D01*
X202120238Y-92720660D01*
X202120235Y-92720659D01*
X201987590Y-92687382D01*
X201826182Y-92666462D01*
X201638274Y-92659611D01*
X201630131Y-92655885D01*
X201627000Y-92647919D01*
X201627000Y-92162480D01*
X201630427Y-92154207D01*
X201638271Y-92150788D01*
X201826178Y-92143937D01*
X201987584Y-92123017D01*
X201987585Y-92123016D01*
X201987590Y-92123016D01*
X202053912Y-92106377D01*
X202120241Y-92089738D01*
X202233170Y-92045399D01*
X202335394Y-91991301D01*
X202435935Y-91928743D01*
X202543716Y-91859089D01*
X202543905Y-91858970D01*
X202667809Y-91783595D01*
X202668320Y-91783304D01*
X202817346Y-91703485D01*
X202818025Y-91703149D01*
X202990719Y-91624886D01*
X202999668Y-91624594D01*
X203006205Y-91630714D01*
G37*
%TD.AperFunction*%
%TD*%
%TA.AperFunction,Conductor*%
%TO.N,/UD_P*%
G36*
X198125714Y-94308621D02*
G01*
X198201429Y-94311264D01*
X198202333Y-94311332D01*
X198273550Y-94319582D01*
X198274524Y-94319737D01*
X198333733Y-94331871D01*
X198334603Y-94332085D01*
X198385977Y-94346840D01*
X198386500Y-94347003D01*
X198434321Y-94363200D01*
X198482390Y-94379480D01*
X198520270Y-94390360D01*
X198534464Y-94394437D01*
X198534465Y-94394437D01*
X198534475Y-94394440D01*
X198594594Y-94406760D01*
X198666764Y-94415120D01*
X198743737Y-94417806D01*
X198751885Y-94421519D01*
X198755028Y-94429470D01*
X198755980Y-94810353D01*
X198752574Y-94818634D01*
X198748747Y-94821196D01*
X198396795Y-94966585D01*
X198387840Y-94966576D01*
X198381514Y-94960238D01*
X198381323Y-94959741D01*
X198361785Y-94905118D01*
X198361515Y-94904257D01*
X198344729Y-94841838D01*
X198344608Y-94841338D01*
X198340164Y-94821196D01*
X198331707Y-94782860D01*
X198319899Y-94729268D01*
X198306393Y-94681657D01*
X198288339Y-94640852D01*
X198262887Y-94607679D01*
X198227187Y-94582963D01*
X198227183Y-94582961D01*
X198178389Y-94567528D01*
X198124383Y-94563083D01*
X198116419Y-94558989D01*
X198113643Y-94551422D01*
X198113643Y-94320315D01*
X198117070Y-94312042D01*
X198125343Y-94308615D01*
X198125714Y-94308621D01*
G37*
%TD.AperFunction*%
%TD*%
%TA.AperFunction,Conductor*%
%TO.N,+5V*%
G36*
X189115052Y-81972647D02*
G01*
X189212743Y-81976270D01*
X189213712Y-81976347D01*
X189302775Y-81987319D01*
X189303816Y-81987496D01*
X189377803Y-82003635D01*
X189378707Y-82003871D01*
X189442881Y-82023509D01*
X189443414Y-82023687D01*
X189502999Y-82045200D01*
X189562848Y-82066808D01*
X189627734Y-82086664D01*
X189702697Y-82103016D01*
X189775170Y-82111943D01*
X189792771Y-82114112D01*
X189809638Y-82114737D01*
X189891734Y-82117782D01*
X189899874Y-82121513D01*
X189903000Y-82129474D01*
X189903000Y-82614925D01*
X189899573Y-82623198D01*
X189891734Y-82626617D01*
X189792771Y-82630287D01*
X189702693Y-82641384D01*
X189702689Y-82641385D01*
X189627747Y-82657733D01*
X189627730Y-82657737D01*
X189603976Y-82665006D01*
X189562848Y-82677592D01*
X189562839Y-82677594D01*
X189562827Y-82677599D01*
X189502999Y-82699200D01*
X189443422Y-82720709D01*
X189442873Y-82720892D01*
X189378720Y-82740524D01*
X189377790Y-82740767D01*
X189303827Y-82756901D01*
X189302763Y-82757082D01*
X189213726Y-82768050D01*
X189212730Y-82768130D01*
X189115103Y-82771751D01*
X189106708Y-82768633D01*
X189102977Y-82760493D01*
X189102969Y-82760129D01*
X189102000Y-82372200D01*
X189102969Y-81984309D01*
X189106417Y-81976046D01*
X189114698Y-81972640D01*
X189115052Y-81972647D01*
G37*
%TD.AperFunction*%
%TD*%
%TA.AperFunction,Conductor*%
%TO.N,/RST*%
G36*
X189970427Y-105508453D02*
G01*
X189970559Y-105508759D01*
X190118123Y-105862698D01*
X190118144Y-105871652D01*
X190118123Y-105871702D01*
X189970559Y-106225640D01*
X189964212Y-106231958D01*
X189955258Y-106231937D01*
X189954952Y-106231805D01*
X189879906Y-106197980D01*
X189879258Y-106197663D01*
X189809520Y-106160902D01*
X189809008Y-106160616D01*
X189750817Y-106126110D01*
X189750587Y-106125969D01*
X189699817Y-106094259D01*
X189652327Y-106065902D01*
X189627681Y-106053450D01*
X189604036Y-106041504D01*
X189604032Y-106041502D01*
X189604029Y-106041501D01*
X189550769Y-106021608D01*
X189550756Y-106021604D01*
X189527326Y-106016026D01*
X189488294Y-106006734D01*
X189488288Y-106006733D01*
X189488287Y-106006733D01*
X189460661Y-106003341D01*
X189412441Y-105997422D01*
X189403124Y-105997100D01*
X189330297Y-105994589D01*
X189322147Y-105990879D01*
X189319000Y-105982896D01*
X189319000Y-105751503D01*
X189322427Y-105743230D01*
X189330296Y-105739810D01*
X189412441Y-105736977D01*
X189488294Y-105727665D01*
X189550759Y-105712794D01*
X189604036Y-105692894D01*
X189652324Y-105668498D01*
X189699823Y-105640135D01*
X189750643Y-105608394D01*
X189750817Y-105608288D01*
X189809009Y-105573782D01*
X189809520Y-105573496D01*
X189879267Y-105536730D01*
X189879897Y-105536422D01*
X189954953Y-105502593D01*
X189963903Y-105502319D01*
X189970427Y-105508453D01*
G37*
%TD.AperFunction*%
%TD*%
%TA.AperFunction,Conductor*%
%TO.N,+5V*%
G36*
X192486968Y-82017995D02*
G01*
X192591814Y-82071999D01*
X193027560Y-82296444D01*
X193033345Y-82303279D01*
X193032603Y-82312203D01*
X193028104Y-82316947D01*
X192536468Y-82604173D01*
X192529018Y-82605668D01*
X192487990Y-82600192D01*
X192443036Y-82594882D01*
X192398011Y-82590255D01*
X192398000Y-82590254D01*
X192353000Y-82586319D01*
X192352991Y-82586318D01*
X192352987Y-82586318D01*
X192343480Y-82585632D01*
X192308000Y-82583075D01*
X192307984Y-82583074D01*
X192307969Y-82583073D01*
X192275433Y-82581225D01*
X192263000Y-82580520D01*
X192249078Y-82579943D01*
X192217994Y-82578654D01*
X192172980Y-82577479D01*
X192128028Y-82576995D01*
X192128008Y-82576995D01*
X192128000Y-82576995D01*
X192120786Y-82577027D01*
X192094753Y-82577146D01*
X192086464Y-82573757D01*
X192083000Y-82565499D01*
X192083000Y-82080272D01*
X192086427Y-82071999D01*
X192094055Y-82068590D01*
X192123027Y-82066994D01*
X192147348Y-82065234D01*
X192163042Y-82064099D01*
X192163049Y-82064098D01*
X192163054Y-82064098D01*
X192203081Y-82060512D01*
X192243108Y-82056236D01*
X192283136Y-82051270D01*
X192323163Y-82045614D01*
X192363190Y-82039268D01*
X192403217Y-82032232D01*
X192443244Y-82024506D01*
X192479204Y-82016946D01*
X192486968Y-82017995D01*
G37*
%TD.AperFunction*%
%TD*%
%TA.AperFunction,Conductor*%
%TO.N,+5V*%
G36*
X193621213Y-82021931D02*
G01*
X193641571Y-82037044D01*
X193641576Y-82037047D01*
X193641581Y-82037051D01*
X193667760Y-82054384D01*
X193693939Y-82069616D01*
X193693952Y-82069622D01*
X193693962Y-82069628D01*
X193720112Y-82082743D01*
X193720118Y-82082746D01*
X193746297Y-82093775D01*
X193746305Y-82093778D01*
X193746311Y-82093780D01*
X193753347Y-82096179D01*
X193772476Y-82102703D01*
X193772491Y-82102707D01*
X193772501Y-82102710D01*
X193798630Y-82109524D01*
X193798643Y-82109526D01*
X193798655Y-82109530D01*
X193824834Y-82114255D01*
X193851013Y-82116879D01*
X193872484Y-82117308D01*
X193880522Y-82120733D01*
X194043422Y-82283633D01*
X194046849Y-82291906D01*
X194043422Y-82300179D01*
X194038858Y-82303002D01*
X194019026Y-82309631D01*
X194019017Y-82309634D01*
X193981205Y-82324869D01*
X193943438Y-82342679D01*
X193943418Y-82342690D01*
X193905626Y-82363106D01*
X193905611Y-82363115D01*
X193867834Y-82386118D01*
X193867825Y-82386124D01*
X193830033Y-82411730D01*
X193792254Y-82439922D01*
X193754459Y-82470721D01*
X193716658Y-82504122D01*
X193684146Y-82535081D01*
X193675792Y-82538304D01*
X193672040Y-82537589D01*
X193070001Y-82316177D01*
X193063419Y-82310105D01*
X193063058Y-82301158D01*
X193068745Y-82294763D01*
X193608949Y-82020889D01*
X193617877Y-82020205D01*
X193621213Y-82021931D01*
G37*
%TD.AperFunction*%
%TD*%
%TA.AperFunction,Conductor*%
%TO.N,+5V*%
G36*
X201697890Y-78554509D02*
G01*
X201922160Y-78808455D01*
X201925068Y-78816925D01*
X201922160Y-78823945D01*
X201697891Y-79077889D01*
X201689846Y-79081822D01*
X201681859Y-79079317D01*
X201660310Y-79062258D01*
X201660308Y-79062257D01*
X201660296Y-79062247D01*
X201630041Y-79040439D01*
X201630033Y-79040433D01*
X201599783Y-79020775D01*
X201599768Y-79020766D01*
X201569555Y-79003273D01*
X201569531Y-79003259D01*
X201565696Y-79001310D01*
X201539297Y-78987897D01*
X201539265Y-78987882D01*
X201509016Y-78974658D01*
X201478766Y-78963577D01*
X201478756Y-78963574D01*
X201448515Y-78954641D01*
X201418259Y-78947847D01*
X201418244Y-78947845D01*
X201397924Y-78944724D01*
X201390267Y-78940081D01*
X201388000Y-78933160D01*
X201388000Y-78699239D01*
X201391427Y-78690966D01*
X201397922Y-78687675D01*
X201418255Y-78684552D01*
X201448510Y-78677759D01*
X201478765Y-78668822D01*
X201509020Y-78657739D01*
X201539276Y-78644512D01*
X201569531Y-78629140D01*
X201599786Y-78611622D01*
X201630041Y-78591960D01*
X201660296Y-78570152D01*
X201681861Y-78553079D01*
X201690471Y-78550632D01*
X201697890Y-78554509D01*
G37*
%TD.AperFunction*%
%TD*%
%TA.AperFunction,Conductor*%
%TO.N,/UD_P*%
G36*
X194477379Y-85982220D02*
G01*
X194537468Y-86038303D01*
X194597689Y-86085355D01*
X194652374Y-86119008D01*
X194704117Y-86142610D01*
X194755513Y-86159504D01*
X194809155Y-86173035D01*
X194867543Y-86186528D01*
X194867748Y-86186578D01*
X194933301Y-86203328D01*
X194933820Y-86203475D01*
X195009150Y-86226800D01*
X195009833Y-86227034D01*
X195086815Y-86256182D01*
X195093339Y-86262316D01*
X195093614Y-86271267D01*
X195093492Y-86271576D01*
X194947563Y-86626192D01*
X194941245Y-86632539D01*
X194941195Y-86632560D01*
X194586579Y-86778489D01*
X194577625Y-86778468D01*
X194571307Y-86772121D01*
X194571185Y-86771812D01*
X194542037Y-86694829D01*
X194541803Y-86694147D01*
X194522733Y-86632560D01*
X194518478Y-86618817D01*
X194518326Y-86618280D01*
X194501586Y-86552765D01*
X194501522Y-86552503D01*
X194488038Y-86494152D01*
X194474507Y-86440510D01*
X194457613Y-86389114D01*
X194434011Y-86337371D01*
X194400358Y-86282686D01*
X194391436Y-86271267D01*
X194353318Y-86222480D01*
X194353315Y-86222476D01*
X194353306Y-86222465D01*
X194297223Y-86162376D01*
X194294084Y-86153991D01*
X194297503Y-86146122D01*
X194461125Y-85982500D01*
X194469397Y-85979074D01*
X194477379Y-85982220D01*
G37*
%TD.AperFunction*%
%TD*%
%TA.AperFunction,Conductor*%
%TO.N,+5V*%
G36*
X188227052Y-98906882D02*
G01*
X188570317Y-99250147D01*
X188573744Y-99258420D01*
X188570618Y-99266381D01*
X188503239Y-99338949D01*
X188447385Y-99410498D01*
X188405953Y-99475049D01*
X188405948Y-99475058D01*
X188374110Y-99534974D01*
X188347066Y-99592580D01*
X188320149Y-99649916D01*
X188319890Y-99650434D01*
X188288409Y-99709677D01*
X188287923Y-99710507D01*
X188247036Y-99774209D01*
X188246413Y-99775089D01*
X188191197Y-99845819D01*
X188190548Y-99846580D01*
X188124083Y-99918167D01*
X188115943Y-99921898D01*
X188107548Y-99918780D01*
X188107257Y-99918500D01*
X188106922Y-99918167D01*
X187832293Y-99644907D01*
X187558698Y-99369941D01*
X187555293Y-99361661D01*
X187558741Y-99353396D01*
X187559013Y-99353133D01*
X187630635Y-99286633D01*
X187631359Y-99286015D01*
X187702120Y-99230776D01*
X187702977Y-99230169D01*
X187766694Y-99189272D01*
X187767520Y-99188789D01*
X187826796Y-99157290D01*
X187827248Y-99157064D01*
X187884618Y-99130132D01*
X187942217Y-99103092D01*
X188002139Y-99071251D01*
X188066707Y-99029808D01*
X188138247Y-98973961D01*
X188210818Y-98906580D01*
X188219213Y-98903463D01*
X188227052Y-98906882D01*
G37*
%TD.AperFunction*%
%TD*%
%TA.AperFunction,Conductor*%
%TO.N,Net-(U3-BP)*%
G36*
X195572586Y-79809627D02*
G01*
X195575901Y-79816289D01*
X195579099Y-79839305D01*
X195583699Y-79871720D01*
X195588299Y-79903445D01*
X195592899Y-79934480D01*
X195597500Y-79964825D01*
X195602100Y-79994480D01*
X195604948Y-80012415D01*
X195606696Y-80023423D01*
X195606700Y-80023445D01*
X195611300Y-80051720D01*
X195615896Y-80079280D01*
X195615896Y-80079281D01*
X195619481Y-80100247D01*
X195617497Y-80108979D01*
X195616235Y-80110478D01*
X195328787Y-80398885D01*
X195320519Y-80402326D01*
X195312241Y-80398913D01*
X195312213Y-80398885D01*
X195219407Y-80305770D01*
X195024762Y-80110476D01*
X195021350Y-80102200D01*
X195021515Y-80100259D01*
X195025099Y-80079305D01*
X195029699Y-80051720D01*
X195034299Y-80023445D01*
X195034303Y-80023423D01*
X195036050Y-80012415D01*
X195038899Y-79994480D01*
X195043500Y-79964825D01*
X195048100Y-79934480D01*
X195052700Y-79903445D01*
X195057300Y-79871720D01*
X195061900Y-79839305D01*
X195065098Y-79816288D01*
X195069631Y-79808567D01*
X195076687Y-79806200D01*
X195564313Y-79806200D01*
X195572586Y-79809627D01*
G37*
%TD.AperFunction*%
%TD*%
%TA.AperFunction,Conductor*%
%TO.N,+3V3*%
G36*
X202312784Y-85951193D02*
G01*
X202313104Y-85951490D01*
X202450498Y-86079218D01*
X202579422Y-86178556D01*
X202579421Y-86178556D01*
X202579423Y-86178557D01*
X202696757Y-86248827D01*
X202696760Y-86248828D01*
X202696765Y-86248831D01*
X202802044Y-86294747D01*
X202807962Y-86297328D01*
X202918498Y-86331358D01*
X203033827Y-86358217D01*
X203159269Y-86385171D01*
X203159543Y-86385233D01*
X203300411Y-86419539D01*
X203300997Y-86419699D01*
X203438143Y-86461175D01*
X203462810Y-86468635D01*
X203463543Y-86468884D01*
X203640977Y-86535648D01*
X203647514Y-86541768D01*
X203647807Y-86550718D01*
X203647671Y-86551064D01*
X203329562Y-87321414D01*
X203323237Y-87327753D01*
X203323214Y-87327762D01*
X202552864Y-87645871D01*
X202543909Y-87645862D01*
X202537584Y-87639523D01*
X202537460Y-87639209D01*
X202470684Y-87461743D01*
X202470435Y-87461010D01*
X202421504Y-87299213D01*
X202421339Y-87298611D01*
X202387033Y-87157743D01*
X202386967Y-87157451D01*
X202360015Y-87032020D01*
X202333160Y-86916707D01*
X202333158Y-86916698D01*
X202299128Y-86806162D01*
X202299125Y-86806155D01*
X202250631Y-86694965D01*
X202250624Y-86694952D01*
X202180356Y-86577622D01*
X202081019Y-86448699D01*
X201952993Y-86310984D01*
X201949871Y-86302594D01*
X201953289Y-86294748D01*
X202296548Y-85951489D01*
X202304820Y-85948063D01*
X202312784Y-85951193D01*
G37*
%TD.AperFunction*%
%TD*%
%TA.AperFunction,Conductor*%
%TO.N,Net-(D2-A)*%
G36*
X185552898Y-78822427D02*
G01*
X185798115Y-79046814D01*
X185801906Y-79054928D01*
X185800611Y-79060818D01*
X185791445Y-79078552D01*
X185778186Y-79106354D01*
X185764898Y-79136358D01*
X185751636Y-79168451D01*
X185738362Y-79202716D01*
X185725097Y-79239101D01*
X185711804Y-79277713D01*
X185698548Y-79318358D01*
X185685279Y-79361189D01*
X185674475Y-79397811D01*
X185668847Y-79404776D01*
X185663253Y-79406200D01*
X185426747Y-79406200D01*
X185418474Y-79402773D01*
X185415525Y-79397811D01*
X185414491Y-79394308D01*
X185404727Y-79361213D01*
X185391455Y-79318372D01*
X185378182Y-79277676D01*
X185364910Y-79239124D01*
X185351638Y-79202718D01*
X185338365Y-79168457D01*
X185325093Y-79136340D01*
X185311820Y-79106369D01*
X185304592Y-79091215D01*
X185298553Y-79078552D01*
X185289388Y-79060819D01*
X185288634Y-79051896D01*
X185291884Y-79046815D01*
X185537102Y-78822427D01*
X185545518Y-78819370D01*
X185552898Y-78822427D01*
G37*
%TD.AperFunction*%
%TD*%
%TA.AperFunction,Conductor*%
%TO.N,Net-(D1-A)*%
G36*
X202955898Y-78822427D02*
G01*
X203201073Y-79046776D01*
X203204864Y-79054890D01*
X203203536Y-79060843D01*
X203195395Y-79076361D01*
X203194251Y-79078543D01*
X203180779Y-79106369D01*
X203180766Y-79106396D01*
X203167309Y-79136331D01*
X203153831Y-79168462D01*
X203140372Y-79202689D01*
X203126883Y-79239138D01*
X203113411Y-79277690D01*
X203099945Y-79318365D01*
X203086466Y-79361231D01*
X203075499Y-79397856D01*
X203069843Y-79404799D01*
X203064291Y-79406200D01*
X202827784Y-79406200D01*
X202819511Y-79402773D01*
X202816549Y-79397765D01*
X202805934Y-79361238D01*
X202805932Y-79361231D01*
X202805927Y-79361213D01*
X202792855Y-79318372D01*
X202792842Y-79318331D01*
X202779784Y-79277681D01*
X202766723Y-79239161D01*
X202766710Y-79239124D01*
X202753638Y-79202718D01*
X202740565Y-79168457D01*
X202727493Y-79136340D01*
X202714420Y-79106369D01*
X202701348Y-79078543D01*
X202692311Y-79060790D01*
X202691613Y-79051865D01*
X202694838Y-79046857D01*
X202940102Y-78822426D01*
X202948518Y-78819370D01*
X202955898Y-78822427D01*
G37*
%TD.AperFunction*%
%TD*%
%TA.AperFunction,Conductor*%
%TO.N,+5V*%
G36*
X199396889Y-87452169D02*
G01*
X199405153Y-87455617D01*
X199408559Y-87463898D01*
X199408551Y-87464303D01*
X199404930Y-87561930D01*
X199404850Y-87562926D01*
X199393882Y-87651963D01*
X199393701Y-87653027D01*
X199377567Y-87726990D01*
X199377324Y-87727920D01*
X199357692Y-87792073D01*
X199357509Y-87792622D01*
X199336000Y-87852199D01*
X199314399Y-87912027D01*
X199314393Y-87912046D01*
X199294537Y-87976930D01*
X199294533Y-87976947D01*
X199278185Y-88051889D01*
X199278184Y-88051893D01*
X199267087Y-88141971D01*
X199263418Y-88240934D01*
X199259687Y-88249074D01*
X199251726Y-88252200D01*
X198766274Y-88252200D01*
X198758001Y-88248773D01*
X198754582Y-88240934D01*
X198750912Y-88141971D01*
X198748743Y-88124370D01*
X198739816Y-88051897D01*
X198723464Y-87976934D01*
X198703608Y-87912048D01*
X198682000Y-87852199D01*
X198660487Y-87792614D01*
X198660307Y-87792073D01*
X198640671Y-87727907D01*
X198640435Y-87727003D01*
X198624296Y-87653016D01*
X198624119Y-87651975D01*
X198613147Y-87562912D01*
X198613070Y-87561943D01*
X198609448Y-87464300D01*
X198612566Y-87455908D01*
X198620706Y-87452177D01*
X198621069Y-87452169D01*
X199009000Y-87451200D01*
X199396889Y-87452169D01*
G37*
%TD.AperFunction*%
%TD*%
%TA.AperFunction,Conductor*%
%TO.N,/UD_P*%
G36*
X193369536Y-87802627D02*
G01*
X193372551Y-87807822D01*
X193376993Y-87824114D01*
X193377007Y-87824163D01*
X193383774Y-87847890D01*
X193390602Y-87870730D01*
X193397380Y-87892310D01*
X193404189Y-87912891D01*
X193410991Y-87932354D01*
X193415616Y-87944844D01*
X193417779Y-87950687D01*
X193417784Y-87950699D01*
X193424581Y-87967961D01*
X193431025Y-87983285D01*
X193431379Y-87984127D01*
X193432995Y-87987710D01*
X193434817Y-87991751D01*
X193435094Y-88000701D01*
X193432339Y-88004918D01*
X193241399Y-88191971D01*
X193233091Y-88195312D01*
X193224854Y-88191801D01*
X193043915Y-88005249D01*
X193040615Y-87996924D01*
X193041927Y-87991718D01*
X193045863Y-87984127D01*
X193053678Y-87967959D01*
X193061493Y-87950697D01*
X193069308Y-87932339D01*
X193077124Y-87912887D01*
X193084939Y-87892340D01*
X193092754Y-87870697D01*
X193100569Y-87847960D01*
X193108384Y-87824127D01*
X193113629Y-87807398D01*
X193119374Y-87800530D01*
X193124793Y-87799200D01*
X193361263Y-87799200D01*
X193369536Y-87802627D01*
G37*
%TD.AperFunction*%
%TD*%
%TA.AperFunction,Conductor*%
%TO.N,+3V3*%
G36*
X195878000Y-82013904D02*
G01*
X195878016Y-82013906D01*
X195878019Y-82013907D01*
X195922986Y-82020917D01*
X195922997Y-82020918D01*
X195923000Y-82020919D01*
X195968000Y-82027244D01*
X196013000Y-82032879D01*
X196058000Y-82037825D01*
X196103000Y-82042080D01*
X196133552Y-82044500D01*
X196147982Y-82045644D01*
X196193000Y-82048520D01*
X196237958Y-82050703D01*
X196237960Y-82050703D01*
X196238000Y-82050705D01*
X196271688Y-82051824D01*
X196279843Y-82055524D01*
X196283000Y-82063518D01*
X196283000Y-82548881D01*
X196279573Y-82557154D01*
X196271688Y-82560575D01*
X196237958Y-82561695D01*
X196193000Y-82563878D01*
X196147982Y-82566754D01*
X196103024Y-82570317D01*
X196103017Y-82570317D01*
X196103000Y-82570319D01*
X196087780Y-82571758D01*
X196058005Y-82574574D01*
X196012979Y-82579522D01*
X195968007Y-82585154D01*
X195922986Y-82591481D01*
X195878019Y-82598491D01*
X195837198Y-82605481D01*
X195829321Y-82604051D01*
X195336790Y-82316301D01*
X195331376Y-82309170D01*
X195332591Y-82300298D01*
X195336791Y-82296098D01*
X195829323Y-82008347D01*
X195837196Y-82006918D01*
X195878000Y-82013904D01*
G37*
%TD.AperFunction*%
%TD*%
%TA.AperFunction,Conductor*%
%TO.N,+5V*%
G36*
X203006205Y-89090714D02*
G01*
X203006353Y-89091055D01*
X203326134Y-89860711D01*
X203326143Y-89869666D01*
X203326134Y-89869689D01*
X203006353Y-90639344D01*
X203000014Y-90645669D01*
X202991059Y-90645660D01*
X202990718Y-90645512D01*
X202818033Y-90567251D01*
X202817339Y-90566908D01*
X202668344Y-90487106D01*
X202667787Y-90486788D01*
X202543943Y-90411451D01*
X202543674Y-90411282D01*
X202435927Y-90341650D01*
X202335395Y-90279097D01*
X202284282Y-90252048D01*
X202233170Y-90225000D01*
X202120241Y-90180661D01*
X202120238Y-90180660D01*
X202120235Y-90180659D01*
X201987590Y-90147382D01*
X201826182Y-90126462D01*
X201638274Y-90119611D01*
X201630131Y-90115885D01*
X201627000Y-90107919D01*
X201627000Y-89622480D01*
X201630427Y-89614207D01*
X201638271Y-89610788D01*
X201826178Y-89603937D01*
X201987584Y-89583017D01*
X201987585Y-89583016D01*
X201987590Y-89583016D01*
X202053912Y-89566377D01*
X202120241Y-89549738D01*
X202233170Y-89505399D01*
X202335394Y-89451301D01*
X202435935Y-89388743D01*
X202543716Y-89319089D01*
X202543905Y-89318970D01*
X202667809Y-89243595D01*
X202668320Y-89243304D01*
X202817346Y-89163485D01*
X202818025Y-89163149D01*
X202990719Y-89084886D01*
X202999668Y-89084594D01*
X203006205Y-89090714D01*
G37*
%TD.AperFunction*%
%TD*%
%TA.AperFunction,Conductor*%
%TO.N,+5V*%
G36*
X197245932Y-90027891D02*
G01*
X197296015Y-90053322D01*
X197353269Y-90079640D01*
X197410523Y-90103206D01*
X197467777Y-90124020D01*
X197525031Y-90142081D01*
X197582284Y-90157390D01*
X197582288Y-90157390D01*
X197582296Y-90157393D01*
X197582302Y-90157394D01*
X197639538Y-90169946D01*
X197696792Y-90179750D01*
X197754046Y-90186801D01*
X197800476Y-90190287D01*
X197808469Y-90194323D01*
X197811300Y-90201954D01*
X197811300Y-90688245D01*
X197807873Y-90696518D01*
X197800476Y-90699912D01*
X197754077Y-90703395D01*
X197754052Y-90703397D01*
X197754046Y-90703398D01*
X197754038Y-90703398D01*
X197754028Y-90703400D01*
X197696822Y-90710445D01*
X197696809Y-90710446D01*
X197696792Y-90710449D01*
X197696772Y-90710452D01*
X197696768Y-90710453D01*
X197639560Y-90720249D01*
X197639547Y-90720251D01*
X197639538Y-90720253D01*
X197639532Y-90720254D01*
X197639502Y-90720260D01*
X197582302Y-90732804D01*
X197582296Y-90732805D01*
X197525031Y-90748117D01*
X197467774Y-90766180D01*
X197410515Y-90786996D01*
X197353289Y-90810550D01*
X197295998Y-90836885D01*
X197245932Y-90862307D01*
X197237004Y-90862997D01*
X197232793Y-90860558D01*
X197206582Y-90836885D01*
X196782412Y-90453781D01*
X196778570Y-90445694D01*
X196781572Y-90437258D01*
X196782405Y-90436424D01*
X197232794Y-90029640D01*
X197241230Y-90026639D01*
X197245932Y-90027891D01*
G37*
%TD.AperFunction*%
%TD*%
%TA.AperFunction,Conductor*%
%TO.N,+5V*%
G36*
X199021052Y-87052647D02*
G01*
X199118743Y-87056270D01*
X199119712Y-87056347D01*
X199208775Y-87067319D01*
X199209816Y-87067496D01*
X199283805Y-87083635D01*
X199284707Y-87083871D01*
X199348881Y-87103508D01*
X199349414Y-87103686D01*
X199408999Y-87125200D01*
X199468848Y-87146808D01*
X199533734Y-87166664D01*
X199608697Y-87183016D01*
X199681170Y-87191943D01*
X199698771Y-87194112D01*
X199715638Y-87194737D01*
X199797734Y-87197782D01*
X199805874Y-87201513D01*
X199809000Y-87209474D01*
X199809000Y-87694925D01*
X199805573Y-87703198D01*
X199797734Y-87706617D01*
X199698771Y-87710287D01*
X199608693Y-87721384D01*
X199608689Y-87721385D01*
X199533747Y-87737733D01*
X199533741Y-87737734D01*
X199533734Y-87737736D01*
X199533729Y-87737737D01*
X199533723Y-87737739D01*
X199468873Y-87757582D01*
X199468845Y-87757592D01*
X199408999Y-87779200D01*
X199349422Y-87800709D01*
X199348873Y-87800892D01*
X199284720Y-87820524D01*
X199283790Y-87820767D01*
X199209827Y-87836901D01*
X199208763Y-87837082D01*
X199119726Y-87848050D01*
X199118730Y-87848130D01*
X199021103Y-87851751D01*
X199012708Y-87848633D01*
X199008977Y-87840493D01*
X199008969Y-87840129D01*
X199008000Y-87452200D01*
X199008969Y-87064309D01*
X199012417Y-87056046D01*
X199020698Y-87052640D01*
X199021052Y-87052647D01*
G37*
%TD.AperFunction*%
%TD*%
%TA.AperFunction,Conductor*%
%TO.N,+3V3*%
G36*
X196746046Y-81772232D02*
G01*
X197473397Y-82313816D01*
X197477986Y-82321505D01*
X197475793Y-82330188D01*
X197473397Y-82332584D01*
X196746269Y-82874002D01*
X196737586Y-82876195D01*
X196732355Y-82874048D01*
X196731861Y-82873685D01*
X196666396Y-82825605D01*
X196593463Y-82776856D01*
X196520524Y-82732917D01*
X196520521Y-82732916D01*
X196447578Y-82693792D01*
X196447575Y-82693791D01*
X196374667Y-82659498D01*
X196301716Y-82630001D01*
X196228809Y-82605336D01*
X196228792Y-82605331D01*
X196155867Y-82585473D01*
X196082931Y-82570428D01*
X196020075Y-82561613D01*
X196012358Y-82557070D01*
X196010000Y-82550026D01*
X196010000Y-82062855D01*
X196013427Y-82054582D01*
X196020607Y-82051206D01*
X196082932Y-82045370D01*
X196155865Y-82033726D01*
X196228798Y-82017266D01*
X196301731Y-81995992D01*
X196374664Y-81969902D01*
X196447597Y-81938998D01*
X196447622Y-81938986D01*
X196520494Y-81903296D01*
X196520501Y-81903291D01*
X196520530Y-81903278D01*
X196593463Y-81862744D01*
X196666396Y-81817394D01*
X196732429Y-81771975D01*
X196741186Y-81770111D01*
X196746046Y-81772232D01*
G37*
%TD.AperFunction*%
%TD*%
%TA.AperFunction,Conductor*%
%TO.N,+3V3*%
G36*
X198237608Y-81772163D02*
G01*
X198303603Y-81819094D01*
X198376536Y-81866144D01*
X198449469Y-81908378D01*
X198522402Y-81945798D01*
X198522411Y-81945802D01*
X198522413Y-81945803D01*
X198595337Y-81978403D01*
X198668268Y-82006191D01*
X198668277Y-82006194D01*
X198699525Y-82016037D01*
X198741201Y-82029166D01*
X198814129Y-82047324D01*
X198814132Y-82047324D01*
X198814134Y-82047325D01*
X198887067Y-82060670D01*
X198949660Y-82067990D01*
X198957478Y-82072355D01*
X198960000Y-82079611D01*
X198960000Y-82566788D01*
X198956573Y-82575061D01*
X198949659Y-82578409D01*
X198887067Y-82585728D01*
X198814130Y-82599074D01*
X198814128Y-82599074D01*
X198741201Y-82617232D01*
X198741189Y-82617236D01*
X198668277Y-82640204D01*
X198668268Y-82640207D01*
X198595337Y-82667995D01*
X198522413Y-82700595D01*
X198449479Y-82738015D01*
X198449471Y-82738020D01*
X198376537Y-82780254D01*
X198376528Y-82780259D01*
X198354006Y-82794788D01*
X198343088Y-82801832D01*
X198336747Y-82803700D01*
X198247940Y-82803700D01*
X198166178Y-82825607D01*
X198157300Y-82824438D01*
X198156162Y-82823690D01*
X197496602Y-82332583D01*
X197492013Y-82324894D01*
X197494206Y-82316211D01*
X197496595Y-82313821D01*
X198223842Y-81772314D01*
X198232524Y-81770122D01*
X198237608Y-81772163D01*
G37*
%TD.AperFunction*%
%TD*%
%TA.AperFunction,Conductor*%
%TO.N,/UD_P*%
G36*
X194796427Y-86271250D02*
G01*
X194796559Y-86271556D01*
X194944123Y-86625495D01*
X194944144Y-86634449D01*
X194944123Y-86634499D01*
X194796559Y-86988437D01*
X194790212Y-86994755D01*
X194781258Y-86994734D01*
X194780952Y-86994602D01*
X194705906Y-86960777D01*
X194705258Y-86960460D01*
X194635520Y-86923699D01*
X194635008Y-86923413D01*
X194576817Y-86888907D01*
X194576587Y-86888766D01*
X194525817Y-86857056D01*
X194478327Y-86828699D01*
X194453681Y-86816247D01*
X194430036Y-86804301D01*
X194430032Y-86804299D01*
X194430029Y-86804298D01*
X194376769Y-86784405D01*
X194376756Y-86784401D01*
X194353326Y-86778823D01*
X194314294Y-86769531D01*
X194314288Y-86769530D01*
X194314287Y-86769530D01*
X194286661Y-86766138D01*
X194238441Y-86760219D01*
X194229124Y-86759897D01*
X194156297Y-86757386D01*
X194148147Y-86753676D01*
X194145000Y-86745693D01*
X194145000Y-86514300D01*
X194148427Y-86506027D01*
X194156296Y-86502607D01*
X194238441Y-86499774D01*
X194314294Y-86490462D01*
X194376759Y-86475591D01*
X194430036Y-86455691D01*
X194478324Y-86431295D01*
X194525823Y-86402932D01*
X194576643Y-86371191D01*
X194576817Y-86371085D01*
X194635009Y-86336579D01*
X194635520Y-86336293D01*
X194705267Y-86299527D01*
X194705897Y-86299219D01*
X194780953Y-86265390D01*
X194789903Y-86265116D01*
X194796427Y-86271250D01*
G37*
%TD.AperFunction*%
%TD*%
%TA.AperFunction,Conductor*%
%TO.N,/UD_N*%
G36*
X198396781Y-93399808D02*
G01*
X198748748Y-93545204D01*
X198755085Y-93551529D01*
X198755980Y-93556046D01*
X198755028Y-93936929D01*
X198751580Y-93945194D01*
X198743736Y-93948593D01*
X198666774Y-93951279D01*
X198666757Y-93951280D01*
X198594607Y-93959638D01*
X198594588Y-93959641D01*
X198534464Y-93971962D01*
X198482408Y-93986912D01*
X198434321Y-94003200D01*
X198386500Y-94019395D01*
X198385977Y-94019558D01*
X198334609Y-94034312D01*
X198333728Y-94034529D01*
X198274538Y-94046659D01*
X198273535Y-94046819D01*
X198202350Y-94055065D01*
X198201412Y-94055136D01*
X198125751Y-94057777D01*
X198117363Y-94054641D01*
X198113650Y-94046492D01*
X198113643Y-94046084D01*
X198113643Y-93814977D01*
X198117070Y-93806704D01*
X198124383Y-93803316D01*
X198178389Y-93798871D01*
X198208656Y-93789297D01*
X198227182Y-93783438D01*
X198227185Y-93783436D01*
X198227187Y-93783436D01*
X198227187Y-93783435D01*
X198227191Y-93783434D01*
X198250987Y-93766958D01*
X198262887Y-93758719D01*
X198288339Y-93725546D01*
X198306393Y-93684742D01*
X198319899Y-93637131D01*
X198331707Y-93583539D01*
X198344614Y-93525031D01*
X198344727Y-93524570D01*
X198361515Y-93462139D01*
X198361784Y-93461282D01*
X198381313Y-93406685D01*
X198387325Y-93400052D01*
X198396269Y-93399612D01*
X198396781Y-93399808D01*
G37*
%TD.AperFunction*%
%TD*%
%TA.AperFunction,Conductor*%
%TO.N,/P3.3*%
G36*
X186691526Y-78229627D02*
G01*
X186694475Y-78234589D01*
X186705279Y-78271209D01*
X186718548Y-78314040D01*
X186731804Y-78354685D01*
X186745097Y-78393297D01*
X186758356Y-78429666D01*
X186758362Y-78429681D01*
X186771634Y-78463942D01*
X186784906Y-78496059D01*
X186798179Y-78526030D01*
X186798186Y-78526044D01*
X186811445Y-78553846D01*
X186820611Y-78571581D01*
X186821365Y-78580504D01*
X186818115Y-78585585D01*
X186572898Y-78809972D01*
X186564482Y-78813029D01*
X186557102Y-78809972D01*
X186311883Y-78585584D01*
X186308092Y-78577470D01*
X186309385Y-78571585D01*
X186318548Y-78553856D01*
X186331820Y-78526030D01*
X186345093Y-78496059D01*
X186358365Y-78463942D01*
X186371638Y-78429681D01*
X186384910Y-78393275D01*
X186398182Y-78354723D01*
X186411455Y-78314027D01*
X186424727Y-78271186D01*
X186435525Y-78234589D01*
X186441153Y-78227624D01*
X186446747Y-78226200D01*
X186683253Y-78226200D01*
X186691526Y-78229627D01*
G37*
%TD.AperFunction*%
%TD*%
%TA.AperFunction,Conductor*%
%TO.N,/UD_N*%
G36*
X194932680Y-87632781D02*
G01*
X195276122Y-87775425D01*
X195282448Y-87781763D01*
X195282439Y-87790718D01*
X195281814Y-87791997D01*
X195278528Y-87797798D01*
X195278278Y-87798218D01*
X195244795Y-87851962D01*
X195244404Y-87852550D01*
X195202084Y-87912132D01*
X195201458Y-87912936D01*
X195151927Y-87971189D01*
X195150866Y-87972284D01*
X195095912Y-88022034D01*
X195093987Y-88023448D01*
X195035668Y-88057712D01*
X195032156Y-88059072D01*
X194969918Y-88072199D01*
X194969918Y-88158811D01*
X194966491Y-88167084D01*
X194958218Y-88170511D01*
X194949945Y-88167084D01*
X194949420Y-88166523D01*
X194914653Y-88126862D01*
X194914642Y-88126850D01*
X194834766Y-88049402D01*
X194834764Y-88049401D01*
X194788809Y-88009232D01*
X194752571Y-87977556D01*
X194738215Y-87966080D01*
X194680106Y-87919630D01*
X194664831Y-87908877D01*
X194660039Y-87901312D01*
X194661999Y-87892575D01*
X194663302Y-87891026D01*
X194919935Y-87635298D01*
X194928215Y-87631887D01*
X194932680Y-87632781D01*
G37*
%TD.AperFunction*%
%TD*%
%TA.AperFunction,Conductor*%
%TO.N,Net-(D1-A)*%
G36*
X203069970Y-79416627D02*
G01*
X203073390Y-79424497D01*
X203076222Y-79506639D01*
X203085533Y-79582487D01*
X203085534Y-79582492D01*
X203100404Y-79644956D01*
X203100408Y-79644969D01*
X203120301Y-79698229D01*
X203120304Y-79698236D01*
X203120305Y-79698237D01*
X203144702Y-79746527D01*
X203173059Y-79794017D01*
X203204769Y-79844787D01*
X203204910Y-79845017D01*
X203239416Y-79903208D01*
X203239702Y-79903720D01*
X203276463Y-79973458D01*
X203276780Y-79974106D01*
X203310605Y-80049152D01*
X203310880Y-80058103D01*
X203304746Y-80064627D01*
X203304440Y-80064759D01*
X202950502Y-80212323D01*
X202941548Y-80212344D01*
X202941498Y-80212323D01*
X202587559Y-80064759D01*
X202581241Y-80058412D01*
X202581262Y-80049458D01*
X202581382Y-80049178D01*
X202615222Y-79974097D01*
X202615535Y-79973458D01*
X202652296Y-79903720D01*
X202652582Y-79903209D01*
X202687088Y-79845017D01*
X202687194Y-79844843D01*
X202718935Y-79794023D01*
X202747298Y-79746524D01*
X202771694Y-79698236D01*
X202791594Y-79644959D01*
X202806465Y-79582494D01*
X202815777Y-79506641D01*
X202818610Y-79424496D01*
X202822320Y-79416347D01*
X202830303Y-79413200D01*
X203061697Y-79413200D01*
X203069970Y-79416627D01*
G37*
%TD.AperFunction*%
%TD*%
%TA.AperFunction,Conductor*%
%TO.N,+5V*%
G36*
X190133886Y-81778148D02*
G01*
X190527860Y-82065185D01*
X190869161Y-82313846D01*
X190873829Y-82321487D01*
X190871727Y-82330192D01*
X190869259Y-82332686D01*
X190217245Y-82818173D01*
X190208562Y-82820366D01*
X190207229Y-82820090D01*
X190146059Y-82803700D01*
X190146057Y-82803700D01*
X190016209Y-82803700D01*
X190010356Y-82802130D01*
X189989463Y-82790056D01*
X189983250Y-82786875D01*
X189916531Y-82752721D01*
X189843595Y-82720201D01*
X189843573Y-82720192D01*
X189770684Y-82692504D01*
X189770654Y-82692493D01*
X189697745Y-82669611D01*
X189697721Y-82669604D01*
X189624834Y-82651541D01*
X189624811Y-82651536D01*
X189624798Y-82651533D01*
X189616689Y-82650058D01*
X189551869Y-82638273D01*
X189551844Y-82638269D01*
X189478939Y-82629829D01*
X189417118Y-82626753D01*
X189409026Y-82622919D01*
X189406000Y-82615067D01*
X189406000Y-82127997D01*
X189409427Y-82119724D01*
X189415643Y-82116479D01*
X189478075Y-82105343D01*
X189550151Y-82087671D01*
X189622227Y-82065184D01*
X189694303Y-82037882D01*
X189766379Y-82005765D01*
X189838455Y-81968833D01*
X189910531Y-81927086D01*
X189982607Y-81880524D01*
X190054683Y-81829147D01*
X190119804Y-81778377D01*
X190128435Y-81775994D01*
X190133886Y-81778148D01*
G37*
%TD.AperFunction*%
%TD*%
%TA.AperFunction,Conductor*%
%TO.N,/UD_N*%
G36*
X194814487Y-88114344D02*
G01*
X195126510Y-88196595D01*
X195133636Y-88202018D01*
X195135038Y-88205817D01*
X195167825Y-88386234D01*
X195165933Y-88394987D01*
X195158406Y-88399837D01*
X195157028Y-88400004D01*
X195128795Y-88401729D01*
X195087450Y-88405353D01*
X195087429Y-88405355D01*
X195087422Y-88405356D01*
X195046042Y-88410077D01*
X195046023Y-88410079D01*
X195046020Y-88410080D01*
X195004660Y-88415893D01*
X194963287Y-88422803D01*
X194921906Y-88430807D01*
X194886107Y-88438681D01*
X194880521Y-88439910D01*
X194880515Y-88439911D01*
X194880508Y-88439913D01*
X194839138Y-88450105D01*
X194797785Y-88461389D01*
X194763071Y-88471780D01*
X194754162Y-88470869D01*
X194751443Y-88468844D01*
X194587603Y-88305004D01*
X194584176Y-88296731D01*
X194587603Y-88288458D01*
X194590064Y-88286576D01*
X194599899Y-88280951D01*
X194623021Y-88266629D01*
X194646143Y-88251212D01*
X194669266Y-88234700D01*
X194692388Y-88217093D01*
X194715510Y-88198391D01*
X194738633Y-88178594D01*
X194761755Y-88157702D01*
X194784877Y-88135715D01*
X194803248Y-88117377D01*
X194811522Y-88113959D01*
X194814487Y-88114344D01*
G37*
%TD.AperFunction*%
%TD*%
%TA.AperFunction,Conductor*%
%TO.N,/RST*%
G36*
X189970427Y-105508453D02*
G01*
X189970559Y-105508759D01*
X190118123Y-105862698D01*
X190118144Y-105871652D01*
X190118123Y-105871702D01*
X189970559Y-106225640D01*
X189964212Y-106231958D01*
X189955258Y-106231937D01*
X189954952Y-106231805D01*
X189879906Y-106197980D01*
X189879258Y-106197663D01*
X189809520Y-106160902D01*
X189809008Y-106160616D01*
X189750817Y-106126110D01*
X189750587Y-106125969D01*
X189699817Y-106094259D01*
X189652327Y-106065902D01*
X189627681Y-106053450D01*
X189604036Y-106041504D01*
X189604032Y-106041502D01*
X189604029Y-106041501D01*
X189550769Y-106021608D01*
X189550756Y-106021604D01*
X189527326Y-106016026D01*
X189488294Y-106006734D01*
X189488288Y-106006733D01*
X189488287Y-106006733D01*
X189460661Y-106003341D01*
X189412441Y-105997422D01*
X189403124Y-105997100D01*
X189330297Y-105994589D01*
X189322147Y-105990879D01*
X189319000Y-105982896D01*
X189319000Y-105751503D01*
X189322427Y-105743230D01*
X189330296Y-105739810D01*
X189412441Y-105736977D01*
X189488294Y-105727665D01*
X189550759Y-105712794D01*
X189604036Y-105692894D01*
X189652324Y-105668498D01*
X189699823Y-105640135D01*
X189750643Y-105608394D01*
X189750817Y-105608288D01*
X189809009Y-105573782D01*
X189809520Y-105573496D01*
X189879267Y-105536730D01*
X189879897Y-105536422D01*
X189954953Y-105502593D01*
X189963903Y-105502319D01*
X189970427Y-105508453D01*
G37*
%TD.AperFunction*%
%TD*%
%TA.AperFunction,Conductor*%
%TO.N,Net-(FB1-Pad1)*%
G36*
X197057007Y-87448527D02*
G01*
X197059963Y-87453513D01*
X197074357Y-87502692D01*
X197091186Y-87557435D01*
X197108027Y-87609468D01*
X197124864Y-87658736D01*
X197141724Y-87705317D01*
X197158575Y-87749121D01*
X197175401Y-87790108D01*
X197192249Y-87828397D01*
X197209089Y-87863915D01*
X197221908Y-87888855D01*
X197222642Y-87897780D01*
X197219509Y-87902735D01*
X196782132Y-88313278D01*
X196773755Y-88316441D01*
X196765784Y-88312952D01*
X196362238Y-87902735D01*
X196357067Y-87897478D01*
X196353709Y-87889179D01*
X196355454Y-87883128D01*
X196370518Y-87858739D01*
X196390405Y-87823789D01*
X196410292Y-87786087D01*
X196430179Y-87745632D01*
X196442538Y-87718778D01*
X196450063Y-87702431D01*
X196450604Y-87701180D01*
X196469952Y-87656464D01*
X196489839Y-87607752D01*
X196509726Y-87556287D01*
X196529613Y-87502069D01*
X196546762Y-87452944D01*
X196552724Y-87446262D01*
X196557808Y-87445100D01*
X197048734Y-87445100D01*
X197057007Y-87448527D01*
G37*
%TD.AperFunction*%
%TD*%
%TA.AperFunction,Conductor*%
%TO.N,+3V3*%
G36*
X202312784Y-83411193D02*
G01*
X202313104Y-83411490D01*
X202450498Y-83539218D01*
X202579422Y-83638556D01*
X202579421Y-83638556D01*
X202579423Y-83638557D01*
X202696757Y-83708827D01*
X202696760Y-83708828D01*
X202696765Y-83708831D01*
X202802044Y-83754747D01*
X202807962Y-83757328D01*
X202918498Y-83791358D01*
X203033827Y-83818217D01*
X203159269Y-83845171D01*
X203159543Y-83845233D01*
X203300411Y-83879539D01*
X203300997Y-83879699D01*
X203438143Y-83921175D01*
X203462810Y-83928635D01*
X203463543Y-83928884D01*
X203640977Y-83995648D01*
X203647514Y-84001768D01*
X203647807Y-84010718D01*
X203647671Y-84011064D01*
X203329562Y-84781414D01*
X203323237Y-84787753D01*
X203323214Y-84787762D01*
X202552864Y-85105871D01*
X202543909Y-85105862D01*
X202537584Y-85099523D01*
X202537460Y-85099209D01*
X202470684Y-84921743D01*
X202470435Y-84921010D01*
X202421504Y-84759213D01*
X202421339Y-84758611D01*
X202387033Y-84617743D01*
X202386967Y-84617451D01*
X202360015Y-84492020D01*
X202333160Y-84376707D01*
X202333158Y-84376698D01*
X202299128Y-84266162D01*
X202299125Y-84266155D01*
X202250631Y-84154965D01*
X202250624Y-84154952D01*
X202180356Y-84037622D01*
X202081019Y-83908699D01*
X201952993Y-83770984D01*
X201949871Y-83762594D01*
X201953289Y-83754748D01*
X202296548Y-83411489D01*
X202304820Y-83408063D01*
X202312784Y-83411193D01*
G37*
%TD.AperFunction*%
%TD*%
%TA.AperFunction,Conductor*%
%TO.N,Net-(FB1-Pad1)*%
G36*
X195710072Y-84304163D02*
G01*
X195718335Y-84307615D01*
X195721736Y-84315899D01*
X195721733Y-84316125D01*
X195720018Y-84392717D01*
X195719989Y-84393318D01*
X195714640Y-84465626D01*
X195714574Y-84466275D01*
X195706701Y-84526699D01*
X195706610Y-84527281D01*
X195697039Y-84579905D01*
X195696969Y-84580258D01*
X195686500Y-84629200D01*
X195686500Y-84629201D01*
X195675991Y-84678322D01*
X195666340Y-84731385D01*
X195666335Y-84731417D01*
X195658384Y-84792436D01*
X195658383Y-84792455D01*
X195652987Y-84865390D01*
X195651256Y-84942762D01*
X195647645Y-84950956D01*
X195639559Y-84954200D01*
X195154441Y-84954200D01*
X195146168Y-84950773D01*
X195142744Y-84942762D01*
X195141012Y-84865390D01*
X195141012Y-84865382D01*
X195135616Y-84792443D01*
X195127664Y-84731412D01*
X195118008Y-84678321D01*
X195107500Y-84629200D01*
X195097021Y-84580214D01*
X195096966Y-84579938D01*
X195087386Y-84527262D01*
X195087298Y-84526699D01*
X195084432Y-84504702D01*
X195085224Y-84498721D01*
X195108974Y-84441383D01*
X195125722Y-84314168D01*
X195130198Y-84306416D01*
X195137281Y-84303999D01*
X195397000Y-84303200D01*
X195710072Y-84304163D01*
G37*
%TD.AperFunction*%
%TD*%
%TA.AperFunction,Conductor*%
%TO.N,/UD_P*%
G36*
X193801507Y-84305082D02*
G01*
X194076316Y-84419826D01*
X194082629Y-84426175D01*
X194083407Y-84429094D01*
X194085025Y-84441383D01*
X194086302Y-84444465D01*
X194086301Y-84453420D01*
X194086198Y-84453661D01*
X194066777Y-84497713D01*
X194066562Y-84498174D01*
X194038662Y-84554671D01*
X194038495Y-84554995D01*
X194013135Y-84602551D01*
X194013101Y-84602613D01*
X193990534Y-84644323D01*
X193970915Y-84683492D01*
X193954488Y-84723265D01*
X193954485Y-84723274D01*
X193941413Y-84766931D01*
X193941408Y-84766951D01*
X193931851Y-84817814D01*
X193925991Y-84879147D01*
X193924302Y-84942810D01*
X193920657Y-84950990D01*
X193912606Y-84954200D01*
X193681394Y-84954200D01*
X193673121Y-84950773D01*
X193669698Y-84942811D01*
X193668007Y-84879147D01*
X193668007Y-84879141D01*
X193662146Y-84817815D01*
X193652590Y-84766948D01*
X193639510Y-84723263D01*
X193623080Y-84683486D01*
X193603474Y-84644341D01*
X193580863Y-84602552D01*
X193555495Y-84554982D01*
X193555365Y-84554729D01*
X193527417Y-84498134D01*
X193527231Y-84497736D01*
X193507799Y-84453660D01*
X193507598Y-84444709D01*
X193507697Y-84444465D01*
X193508974Y-84441383D01*
X193510591Y-84429094D01*
X193515068Y-84421340D01*
X193517670Y-84419832D01*
X193792492Y-84305081D01*
X193801446Y-84305057D01*
X193801507Y-84305082D01*
G37*
%TD.AperFunction*%
%TD*%
%TA.AperFunction,Conductor*%
%TO.N,+5V*%
G36*
X193680988Y-80175171D02*
G01*
X193684147Y-80177318D01*
X193706134Y-80198254D01*
X193716667Y-80208284D01*
X193750259Y-80237965D01*
X193754460Y-80241677D01*
X193792255Y-80272477D01*
X193830017Y-80300657D01*
X193830027Y-80300663D01*
X193830043Y-80300675D01*
X193867836Y-80326282D01*
X193905628Y-80349293D01*
X193943411Y-80369705D01*
X193943430Y-80369715D01*
X193981205Y-80387529D01*
X193981209Y-80387530D01*
X193981212Y-80387532D01*
X194019004Y-80402759D01*
X194019016Y-80402763D01*
X194019021Y-80402765D01*
X194038859Y-80409396D01*
X194045619Y-80415268D01*
X194046246Y-80424201D01*
X194043423Y-80428765D01*
X193880522Y-80591666D01*
X193872483Y-80595091D01*
X193851013Y-80595520D01*
X193824830Y-80598144D01*
X193798657Y-80602868D01*
X193798630Y-80602874D01*
X193772501Y-80609688D01*
X193772469Y-80609698D01*
X193746311Y-80618618D01*
X193746285Y-80618628D01*
X193720117Y-80629653D01*
X193720112Y-80629655D01*
X193693962Y-80642770D01*
X193693942Y-80642781D01*
X193667763Y-80658012D01*
X193641571Y-80675354D01*
X193621213Y-80690468D01*
X193612528Y-80692648D01*
X193608948Y-80691509D01*
X193090696Y-80428765D01*
X193068747Y-80417637D01*
X193062919Y-80410841D01*
X193063604Y-80401912D01*
X193070000Y-80396222D01*
X193672041Y-80174810D01*
X193680988Y-80175171D01*
G37*
%TD.AperFunction*%
%TD*%
%TA.AperFunction,Conductor*%
%TO.N,+5V*%
G36*
X191633608Y-81772163D02*
G01*
X191699603Y-81819094D01*
X191772536Y-81866144D01*
X191845469Y-81908378D01*
X191918402Y-81945798D01*
X191918411Y-81945802D01*
X191918413Y-81945803D01*
X191991337Y-81978403D01*
X192064268Y-82006191D01*
X192064277Y-82006194D01*
X192095525Y-82016037D01*
X192137201Y-82029166D01*
X192210129Y-82047324D01*
X192210132Y-82047324D01*
X192210134Y-82047325D01*
X192283067Y-82060670D01*
X192345660Y-82067990D01*
X192353478Y-82072355D01*
X192356000Y-82079611D01*
X192356000Y-82566788D01*
X192352573Y-82575061D01*
X192345659Y-82578409D01*
X192283067Y-82585728D01*
X192210130Y-82599074D01*
X192210128Y-82599074D01*
X192137201Y-82617232D01*
X192137189Y-82617236D01*
X192064277Y-82640204D01*
X192064268Y-82640207D01*
X191991337Y-82667995D01*
X191918413Y-82700595D01*
X191845479Y-82738015D01*
X191845471Y-82738020D01*
X191772542Y-82780251D01*
X191699594Y-82827311D01*
X191633609Y-82874235D01*
X191624880Y-82876237D01*
X191619840Y-82874084D01*
X191557016Y-82827305D01*
X190892601Y-82332582D01*
X190888013Y-82324895D01*
X190890206Y-82316212D01*
X190892599Y-82313818D01*
X191619842Y-81772314D01*
X191628524Y-81770122D01*
X191633608Y-81772163D01*
G37*
%TD.AperFunction*%
%TD*%
%TA.AperFunction,Conductor*%
%TO.N,/UD_P*%
G36*
X193556376Y-88068024D02*
G01*
X193576285Y-88083757D01*
X193599547Y-88101134D01*
X193601599Y-88102667D01*
X193626926Y-88120493D01*
X193652254Y-88137224D01*
X193677582Y-88152860D01*
X193702909Y-88167400D01*
X193728237Y-88180846D01*
X193753564Y-88193197D01*
X193778892Y-88204453D01*
X193787771Y-88208015D01*
X193794172Y-88214275D01*
X193794273Y-88223229D01*
X193791687Y-88227146D01*
X193629379Y-88389454D01*
X193621106Y-88392881D01*
X193618100Y-88392488D01*
X193607964Y-88389793D01*
X193607945Y-88389788D01*
X193591286Y-88386455D01*
X193574636Y-88384217D01*
X193574638Y-88384217D01*
X193574629Y-88384216D01*
X193574622Y-88384215D01*
X193574608Y-88384214D01*
X193557984Y-88383072D01*
X193557988Y-88383072D01*
X193541314Y-88383021D01*
X193524654Y-88384067D01*
X193524641Y-88384068D01*
X193507978Y-88386208D01*
X193507968Y-88386210D01*
X193491336Y-88389440D01*
X193482506Y-88391735D01*
X193474661Y-88393774D01*
X193474656Y-88393775D01*
X193474643Y-88393779D01*
X193464380Y-88397121D01*
X193455453Y-88396424D01*
X193452983Y-88394739D01*
X193452399Y-88394220D01*
X193246131Y-88210798D01*
X193242226Y-88202740D01*
X193245163Y-88194280D01*
X193249346Y-88191280D01*
X193544566Y-88066427D01*
X193553519Y-88066362D01*
X193556376Y-88068024D01*
G37*
%TD.AperFunction*%
%TD*%
M02*
